<svg xmlns="http://www.w3.org/2000/svg" width="1920" height="1080"><path d="M-43,-245L259,-232L708,-272Z" fill="#e0f3db" stroke="#e0f3db" stroke-width="1.51"/><path d="M806,1318L102,1306L890,1334Z" fill="#59925d" stroke="#59925d" stroke-width="1.51"/><path d="M890,1334L102,1306L960,1347Z" fill="#55905a" stroke="#55905a" stroke-width="1.51"/><path d="M708,-272L1212,-258L1582,-278Z" fill="#a8d8aa" stroke="#a8d8aa" stroke-width="1.51"/><path d="M1985,1006L1985,1116L2124,1166Z" fill="#05652b" stroke="#05652b" stroke-width="1.51"/><path d="M1985,1006L2124,1166L2126,931Z" fill="#0a672d" stroke="#0a672d" stroke-width="1.51"/><path d="M1582,-278L1888,-156L2130,-157Z" fill="#84b187" stroke="#84b187" stroke-width="1.51"/><path d="M1888,-156L1915,-132L2130,-157Z" fill="#7ea881" stroke="#7ea881" stroke-width="1.51"/><path d="M1987,308L2022,386L2141,264Z" fill="#58945c" stroke="#58945c" stroke-width="1.51"/><path d="M2022,386L2072,490L2141,264Z" fill="#508f57" stroke="#508f57" stroke-width="1.51"/><path d="M2130,-157L2052,-69L2141,264Z" fill="#709a72" stroke="#709a72" stroke-width="1.51"/><path d="M2052,-69L2012,134L2141,264Z" fill="#6a9a6d" stroke="#6a9a6d" stroke-width="1.51"/><path d="M1870,1264L1680,1334L2148,1295Z" fill="#005c25" stroke="#005c25" stroke-width="1.51"/><path d="M2124,1166L1985,1116L2148,1295Z" fill="#005a24" stroke="#005a24" stroke-width="1.51"/><path d="M1985,1116L1870,1264L2148,1295Z" fill="#005c25" stroke="#005c25" stroke-width="1.51"/><path d="M2126,931L2124,1166L2148,1295Z" fill="#025c26" stroke="#025c26" stroke-width="1.51"/><path d="M1999,841L2126,931L2150,791Z" fill="#1a7237" stroke="#1a7237" stroke-width="1.51"/><path d="M2076,704L1999,841L2150,791Z" fill="#20793b" stroke="#20793b" stroke-width="1.51"/><path d="M2141,264L2072,490L2150,791Z" fill="#408549" stroke="#408549" stroke-width="1.51"/><path d="M2072,490L2076,704L2150,791Z" fill="#2e7f41" stroke="#2e7f41" stroke-width="1.51"/><path d="M2126,931L2148,1295L2150,791Z" fill="#0d642d" stroke="#0d642d" stroke-width="1.51"/><path d="M2072,490L1920,561L2076,704Z" fill="#3a8948" stroke="#3a8948" stroke-width="1.51"/><path d="M2012,134L1987,308L2141,264Z" fill="#5f9763" stroke="#5f9763" stroke-width="1.51"/><path d="M1915,-132L2052,-69L2130,-157Z" fill="#7ba37d" stroke="#7ba37d" stroke-width="1.51"/><path d="M1999,841L1985,1006L2126,931Z" fill="#147135" stroke="#147135" stroke-width="1.51"/><path d="M1432,1259L960,1347L1680,1334Z" fill="#1d7639" stroke="#1d7639" stroke-width="1.51"/><path d="M1885,69L2012,134L2052,-69Z" fill="#72a375" stroke="#72a375" stroke-width="1.51"/><path d="M1865,627L1999,841L2076,704Z" fill="#278442" stroke="#278442" stroke-width="1.51"/><path d="M1920,561L1865,627L2076,704Z" fill="#358b48" stroke="#358b48" stroke-width="1.51"/><path d="M1582,-278L1796,-145L1888,-156Z" fill="#88b78d" stroke="#88b78d" stroke-width="1.51"/><path d="M2022,386L1888,429L2072,490Z" fill="#4c9354" stroke="#4c9354" stroke-width="1.51"/><path d="M1888,429L1920,561L2072,490Z" fill="#479250" stroke="#479250" stroke-width="1.51"/><path d="M1915,-132L1885,69L2052,-69Z" fill="#79a87c" stroke="#79a87c" stroke-width="1.51"/><path d="M1865,627L1781,796L1999,841Z" fill="#258943" stroke="#258943" stroke-width="1.51"/><path d="M1848,1000L1985,1006L1999,841Z" fill="#147636" stroke="#147636" stroke-width="1.51"/><path d="M1783,237L1987,308L2012,134Z" fill="#64a168" stroke="#64a168" stroke-width="1.51"/><path d="M1885,69L1783,237L2012,134Z" fill="#6da770" stroke="#6da770" stroke-width="1.51"/><path d="M1987,308L1888,429L2022,386Z" fill="#54985b" stroke="#54985b" stroke-width="1.51"/><path d="M1848,1000L1985,1116L1985,1006Z" fill="#0b7030" stroke="#0b7030" stroke-width="1.51"/><path d="M1781,796L1848,1000L1999,841Z" fill="#1b803c" stroke="#1b803c" stroke-width="1.51"/><path d="M1796,1175L1870,1264L1985,1116Z" fill="#00692a" stroke="#00692a" stroke-width="1.51"/><path d="M1849,403L1888,429L1987,308Z" fill="#559c5c" stroke="#559c5c" stroke-width="1.51"/><path d="M1783,237L1849,403L1987,308Z" fill="#5da162" stroke="#5da162" stroke-width="1.51"/><path d="M1848,1000L1796,1175L1985,1116Z" fill="#06702f" stroke="#06702f" stroke-width="1.51"/><path d="M1133,1272L960,1347L1432,1259Z" fill="#2c8041" stroke="#2c8041" stroke-width="1.51"/><path d="M1791,-84L1786,35L1885,69Z" fill="#7aaf7e" stroke="#7aaf7e" stroke-width="1.51"/><path d="M1888,-156L1791,-84L1915,-132Z" fill="#81b084" stroke="#81b084" stroke-width="1.51"/><path d="M1791,-84L1885,69L1915,-132Z" fill="#7dae80" stroke="#7dae80" stroke-width="1.51"/><path d="M1888,429L1719,564L1920,561Z" fill="#479a52" stroke="#479a52" stroke-width="1.51"/><path d="M1719,564L1865,627L1920,561Z" fill="#3e964f" stroke="#3e964f" stroke-width="1.51"/><path d="M1849,403L1719,564L1888,429Z" fill="#4e9e58" stroke="#4e9e58" stroke-width="1.51"/><path d="M1719,748L1781,796L1865,627Z" fill="#2c9149" stroke="#2c9149" stroke-width="1.51"/><path d="M1736,1245L1680,1334L1870,1264Z" fill="#06652b" stroke="#06652b" stroke-width="1.51"/><path d="M1786,35L1783,237L1885,69Z" fill="#72ac76" stroke="#72ac76" stroke-width="1.51"/><path d="M1796,-145L1791,-84L1888,-156Z" fill="#82b286" stroke="#82b286" stroke-width="1.51"/><path d="M1781,796L1650,969L1848,1000Z" fill="#1c833e" stroke="#1c833e" stroke-width="1.51"/><path d="M1796,1175L1736,1245L1870,1264Z" fill="#04692b" stroke="#04692b" stroke-width="1.51"/><path d="M1719,564L1719,748L1865,627Z" fill="#39964e" stroke="#39964e" stroke-width="1.51"/><path d="M1646,168L1783,237L1786,35Z" fill="#73b077" stroke="#73b077" stroke-width="1.51"/><path d="M1650,969L1796,1175L1848,1000Z" fill="#117936" stroke="#117936" stroke-width="1.51"/><path d="M1783,237L1616,426L1849,403Z" fill="#5da764" stroke="#5da764" stroke-width="1.51"/><path d="M1616,426L1719,564L1849,403Z" fill="#51a25c" stroke="#51a25c" stroke-width="1.51"/><path d="M1604,841L1650,969L1781,796Z" fill="#258b45" stroke="#258b45" stroke-width="1.51"/><path d="M1555,298L1616,426L1783,237Z" fill="#65ad6c" stroke="#65ad6c" stroke-width="1.51"/><path d="M1658,-9L1646,168L1786,35Z" fill="#7ab47f" stroke="#7ab47f" stroke-width="1.51"/><path d="M1658,-9L1786,35L1791,-84Z" fill="#7fb483" stroke="#7fb483" stroke-width="1.51"/><path d="M1658,-9L1791,-84L1796,-145Z" fill="#83b687" stroke="#83b687" stroke-width="1.51"/><path d="M1538,-102L1658,-9L1796,-145Z" fill="#87ba8b" stroke="#87ba8b" stroke-width="1.51"/><path d="M1582,-278L1538,-102L1796,-145Z" fill="#8cbd91" stroke="#8cbd91" stroke-width="1.51"/><path d="M1608,1194L1736,1245L1796,1175Z" fill="#0a7030" stroke="#0a7030" stroke-width="1.51"/><path d="M1650,969L1608,1194L1796,1175Z" fill="#117936" stroke="#117936" stroke-width="1.51"/><path d="M1719,748L1604,841L1781,796Z" fill="#299048" stroke="#299048" stroke-width="1.51"/><path d="M1646,168L1555,298L1783,237Z" fill="#6db073" stroke="#6db073" stroke-width="1.51"/><path d="M1616,426L1608,510L1719,564Z" fill="#50a45d" stroke="#50a45d" stroke-width="1.51"/><path d="M1606,715L1719,748L1719,564Z" fill="#389950" stroke="#389950" stroke-width="1.51"/><path d="M1212,-258L1439,-222L1582,-278Z" fill="#99cb9f" stroke="#99cb9f" stroke-width="1.51"/><path d="M1608,1194L1680,1334L1736,1245Z" fill="#0c6c2f" stroke="#0c6c2f" stroke-width="1.51"/><path d="M1560,42L1646,168L1658,-9Z" fill="#7db982" stroke="#7db982" stroke-width="1.51"/><path d="M1606,715L1604,841L1719,748Z" fill="#2d954c" stroke="#2d954c" stroke-width="1.51"/><path d="M1608,510L1606,715L1719,564Z" fill="#449f56" stroke="#449f56" stroke-width="1.51"/><path d="M1495,955L1608,1194L1650,969Z" fill="#1c833e" stroke="#1c833e" stroke-width="1.51"/><path d="M1608,1194L1432,1259L1680,1334Z" fill="#127133" stroke="#127133" stroke-width="1.51"/><path d="M1495,955L1417,1154L1608,1194Z" fill="#1c833e" stroke="#1c833e" stroke-width="1.51"/><path d="M1524,720L1606,715L1608,510Z" fill="#40a056" stroke="#40a056" stroke-width="1.51"/><path d="M1604,841L1495,955L1650,969Z" fill="#258c46" stroke="#258c46" stroke-width="1.51"/><path d="M1534,21L1560,42L1658,-9Z" fill="#83bc88" stroke="#83bc88" stroke-width="1.51"/><path d="M1538,-102L1534,21L1658,-9Z" fill="#86bd8b" stroke="#86bd8b" stroke-width="1.51"/><path d="M1560,42L1555,298L1646,168Z" fill="#76b77c" stroke="#76b77c" stroke-width="1.51"/><path d="M1439,-222L1538,-102L1582,-278Z" fill="#92c497" stroke="#92c497" stroke-width="1.51"/><path d="M1524,720L1604,841L1606,715Z" fill="#31994f" stroke="#31994f" stroke-width="1.51"/><path d="M1424,509L1524,720L1608,510Z" fill="#4ba75c" stroke="#4ba75c" stroke-width="1.51"/><path d="M1472,421L1608,510L1616,426Z" fill="#59ab65" stroke="#59ab65" stroke-width="1.51"/><path d="M1555,298L1472,421L1616,426Z" fill="#62b06b" stroke="#62b06b" stroke-width="1.51"/><path d="M1285,251L1367,328L1555,298Z" fill="#72bc79" stroke="#72bc79" stroke-width="1.51"/><path d="M1285,251L1555,298L1560,42Z" fill="#78bc7e" stroke="#78bc7e" stroke-width="1.51"/><path d="M1534,21L1285,251L1560,42Z" fill="#81c087" stroke="#81c087" stroke-width="1.51"/><path d="M1524,720L1434,777L1604,841Z" fill="#329a50" stroke="#329a50" stroke-width="1.51"/><path d="M1417,1154L1432,1259L1608,1194Z" fill="#187b39" stroke="#187b39" stroke-width="1.51"/><path d="M1472,421L1424,509L1608,510Z" fill="#58ad65" stroke="#58ad65" stroke-width="1.51"/><path d="M1434,777L1495,955L1604,841Z" fill="#2d954c" stroke="#2d954c" stroke-width="1.51"/><path d="M1266,98L1285,251L1534,21Z" fill="#84c58a" stroke="#84c58a" stroke-width="1.51"/><path d="M628,1272L102,1306L806,1318Z" fill="#5f9663" stroke="#5f9663" stroke-width="1.51"/><path d="M1424,509L1346,682L1524,720Z" fill="#48a85c" stroke="#48a85c" stroke-width="1.51"/><path d="M1352,-23L1266,98L1534,21Z" fill="#8ac78f" stroke="#8ac78f" stroke-width="1.51"/><path d="M1352,-23L1534,21L1538,-102Z" fill="#8bc390" stroke="#8bc390" stroke-width="1.51"/><path d="M1367,328L1472,421L1555,298Z" fill="#6ab672" stroke="#6ab672" stroke-width="1.51"/><path d="M708,-272L881,-214L1212,-258Z" fill="#b8e1b4" stroke="#b8e1b4" stroke-width="1.51"/><path d="M1434,777L1372,933L1495,955Z" fill="#2f964d" stroke="#2f964d" stroke-width="1.51"/><path d="M1439,-222L1352,-23L1538,-102Z" fill="#91c797" stroke="#91c797" stroke-width="1.51"/><path d="M1330,1215L1133,1272L1432,1259Z" fill="#21803e" stroke="#21803e" stroke-width="1.51"/><path d="M1316,-163L1352,-23L1439,-222Z" fill="#96cb9b" stroke="#96cb9b" stroke-width="1.51"/><path d="M1372,933L1417,1154L1495,955Z" fill="#268d46" stroke="#268d46" stroke-width="1.51"/><path d="M1346,682L1434,777L1524,720Z" fill="#3ca257" stroke="#3ca257" stroke-width="1.51"/><path d="M1372,933L1327,1154L1417,1154Z" fill="#258b44" stroke="#258b44" stroke-width="1.51"/><path d="M1404,496L1424,509L1472,421Z" fill="#5cb168" stroke="#5cb168" stroke-width="1.51"/><path d="M1367,328L1404,496L1472,421Z" fill="#64b56e" stroke="#64b56e" stroke-width="1.51"/><path d="M1404,496L1346,682L1424,509Z" fill="#53af62" stroke="#53af62" stroke-width="1.51"/><path d="M1417,1154L1330,1215L1432,1259Z" fill="#1d7f3d" stroke="#1d7f3d" stroke-width="1.51"/><path d="M1283,772L1372,933L1434,777Z" fill="#379f54" stroke="#379f54" stroke-width="1.51"/><path d="M1212,-258L1316,-163L1439,-222Z" fill="#9bcfa1" stroke="#9bcfa1" stroke-width="1.51"/><path d="M1230,627L1346,682L1404,496Z" fill="#52b063" stroke="#52b063" stroke-width="1.51"/><path d="M1346,682L1283,772L1434,777Z" fill="#3da659" stroke="#3da659" stroke-width="1.51"/><path d="M1327,1154L1330,1215L1417,1154Z" fill="#208540" stroke="#208540" stroke-width="1.51"/><path d="M1367,328L1207,340L1404,496Z" fill="#6bbc74" stroke="#6bbc74" stroke-width="1.51"/><path d="M1207,340L1176,498L1404,496Z" fill="#67bd72" stroke="#67bd72" stroke-width="1.51"/><path d="M1142,1027L1327,1154L1372,933Z" fill="#2c934b" stroke="#2c934b" stroke-width="1.51"/><path d="M1176,498L1230,627L1404,496Z" fill="#5bb769" stroke="#5bb769" stroke-width="1.51"/><path d="M1266,98L1227,156L1285,251Z" fill="#85c98a" stroke="#85c98a" stroke-width="1.51"/><path d="M1194,1210L1133,1272L1330,1215Z" fill="#298542" stroke="#298542" stroke-width="1.51"/><path d="M1283,772L1166,882L1372,933Z" fill="#39a155" stroke="#39a155" stroke-width="1.51"/><path d="M1166,882L1142,1027L1372,933Z" fill="#369d53" stroke="#369d53" stroke-width="1.51"/><path d="M1285,251L1207,340L1367,328Z" fill="#75c27d" stroke="#75c27d" stroke-width="1.51"/><path d="M1316,-163L1110,-57L1352,-23Z" fill="#98d09d" stroke="#98d09d" stroke-width="1.51"/><path d="M1110,-57L1266,98L1352,-23Z" fill="#93ce97" stroke="#93ce97" stroke-width="1.51"/><path d="M1230,627L1283,772L1346,682Z" fill="#47ac5f" stroke="#47ac5f" stroke-width="1.51"/><path d="M1142,1027L1194,1210L1327,1154Z" fill="#2c8f47" stroke="#2c8f47" stroke-width="1.51"/><path d="M1327,1154L1194,1210L1330,1215Z" fill="#248641" stroke="#248641" stroke-width="1.51"/><path d="M428,1248L102,1306L628,1272Z" fill="#689c6b" stroke="#689c6b" stroke-width="1.51"/><path d="M1212,-258L1110,-57L1316,-163Z" fill="#9fd4a3" stroke="#9fd4a3" stroke-width="1.51"/><path d="M1110,-57L1102,84L1266,98Z" fill="#97d198" stroke="#97d198" stroke-width="1.51"/><path d="M1230,627L1076,774L1283,772Z" fill="#4aaf61" stroke="#4aaf61" stroke-width="1.51"/><path d="M1227,156L1167,199L1285,251Z" fill="#83c989" stroke="#83c989" stroke-width="1.51"/><path d="M1167,199L1207,340L1285,251Z" fill="#7ec783" stroke="#7ec783" stroke-width="1.51"/><path d="M1076,774L1166,882L1283,772Z" fill="#45a95d" stroke="#45a95d" stroke-width="1.51"/><path d="M1105,631L1076,774L1230,627Z" fill="#55b466" stroke="#55b466" stroke-width="1.51"/><path d="M1102,84L1227,156L1266,98Z" fill="#8ecd91" stroke="#8ecd91" stroke-width="1.51"/><path d="M1029,431L1176,498L1207,340Z" fill="#73c379" stroke="#73c379" stroke-width="1.51"/><path d="M1039,-142L1110,-57L1212,-258Z" fill="#a5d8a7" stroke="#a5d8a7" stroke-width="1.51"/><path d="M1102,84L1167,199L1227,156Z" fill="#8ece90" stroke="#8ece90" stroke-width="1.51"/><path d="M1176,498L1105,631L1230,627Z" fill="#5eb86a" stroke="#5eb86a" stroke-width="1.51"/><path d="M881,-214L1039,-142L1212,-258Z" fill="#aedbad" stroke="#aedbad" stroke-width="1.51"/><path d="M1080,953L1142,1027L1166,882Z" fill="#40a056" stroke="#40a056" stroke-width="1.51"/><path d="M1142,1027L1008,1087L1194,1210Z" fill="#38954d" stroke="#38954d" stroke-width="1.51"/><path d="M1167,199L999,236L1207,340Z" fill="#86cb88" stroke="#86cb88" stroke-width="1.51"/><path d="M999,236L1029,431L1207,340Z" fill="#82ca83" stroke="#82ca83" stroke-width="1.51"/><path d="M1008,1087L1133,1272L1194,1210Z" fill="#358e48" stroke="#358e48" stroke-width="1.51"/><path d="M1029,431L1105,631L1176,498Z" fill="#6bbf72" stroke="#6bbf72" stroke-width="1.51"/><path d="M999,236L958,366L1029,431Z" fill="#87cd86" stroke="#87cd86" stroke-width="1.51"/><path d="M1029,431L977,469L1105,631Z" fill="#72c375" stroke="#72c375" stroke-width="1.51"/><path d="M1076,774L1080,953L1166,882Z" fill="#47a85c" stroke="#47a85c" stroke-width="1.51"/><path d="M1102,84L999,236L1167,199Z" fill="#91d091" stroke="#91d091" stroke-width="1.51"/><path d="M1011,-21L1102,84L1110,-57Z" fill="#9fd59f" stroke="#9fd59f" stroke-width="1.51"/><path d="M1008,1087L933,1188L1133,1272Z" fill="#3d924c" stroke="#3d924c" stroke-width="1.51"/><path d="M1080,953L1008,1087L1142,1027Z" fill="#409d54" stroke="#409d54" stroke-width="1.51"/><path d="M933,1188L960,1347L1133,1272Z" fill="#3b8a49" stroke="#3b8a49" stroke-width="1.51"/><path d="M259,-232L421,-212L708,-272Z" fill="#d7efd1" stroke="#d7efd1" stroke-width="1.51"/><path d="M860,830L900,962L1076,774Z" fill="#56af64" stroke="#56af64" stroke-width="1.51"/><path d="M1076,774L900,962L1080,953Z" fill="#4da95e" stroke="#4da95e" stroke-width="1.51"/><path d="M876,715L1076,774L1105,631Z" fill="#5cb769" stroke="#5cb769" stroke-width="1.51"/><path d="M1039,-142L1011,-21L1110,-57Z" fill="#a7d9a6" stroke="#a7d9a6" stroke-width="1.51"/><path d="M908,49L999,236L1102,84Z" fill="#9cd599" stroke="#9cd599" stroke-width="1.51"/><path d="M977,469L876,715L1105,631Z" fill="#6bbf71" stroke="#6bbf71" stroke-width="1.51"/><path d="M1011,-21L908,49L1102,84Z" fill="#a2d79f" stroke="#a2d79f" stroke-width="1.51"/><path d="M271,1256L102,1306L428,1248Z" fill="#6f9f72" stroke="#6f9f72" stroke-width="1.51"/><path d="M900,962L1008,1087L1080,953Z" fill="#49a258" stroke="#49a258" stroke-width="1.51"/><path d="M946,465L876,715L977,469Z" fill="#75c577" stroke="#75c577" stroke-width="1.51"/><path d="M876,715L860,830L1076,774Z" fill="#5cb669" stroke="#5cb669" stroke-width="1.51"/><path d="M908,49L905,232L999,236Z" fill="#9cd698" stroke="#9cd698" stroke-width="1.51"/><path d="M927,-27L1011,-21L1039,-142Z" fill="#abdba8" stroke="#abdba8" stroke-width="1.51"/><path d="M881,-214L927,-27L1039,-142Z" fill="#b1dead" stroke="#b1dead" stroke-width="1.51"/><path d="M958,366L977,469L1029,431Z" fill="#7fc97f" stroke="#7fc97f" stroke-width="1.51"/><path d="M933,1188L890,1334L960,1347Z" fill="#418a4c" stroke="#418a4c" stroke-width="1.51"/><path d="M958,366L946,465L977,469Z" fill="#80ca7f" stroke="#80ca7f" stroke-width="1.51"/><path d="M905,232L958,366L999,236Z" fill="#91d18e" stroke="#91d18e" stroke-width="1.51"/><path d="M927,-27L908,49L1011,-21Z" fill="#a9dba5" stroke="#a9dba5" stroke-width="1.51"/><path d="M900,962L933,1188L1008,1087Z" fill="#499e56" stroke="#499e56" stroke-width="1.51"/><path d="M900,962L740,1088L933,1188Z" fill="#50a15b" stroke="#50a15b" stroke-width="1.51"/><path d="M710,554L876,715L946,465Z" fill="#79c67a" stroke="#79c67a" stroke-width="1.51"/><path d="M748,338L946,465L958,366Z" fill="#8bce88" stroke="#8bce88" stroke-width="1.51"/><path d="M905,232L748,338L958,366Z" fill="#94d390" stroke="#94d390" stroke-width="1.51"/><path d="M715,148L905,232L908,49Z" fill="#a5daa0" stroke="#a5daa0" stroke-width="1.51"/><path d="M881,-214L793,9L927,-27Z" fill="#b5e0b0" stroke="#b5e0b0" stroke-width="1.51"/><path d="M806,1318L890,1334L933,1188Z" fill="#468d4f" stroke="#468d4f" stroke-width="1.51"/><path d="M748,338L710,554L946,465Z" fill="#8ace87" stroke="#8ace87" stroke-width="1.51"/><path d="M740,1088L806,1318L933,1188Z" fill="#4d9856" stroke="#4d9856" stroke-width="1.51"/><path d="M793,9L715,148L908,49Z" fill="#afdea9" stroke="#afdea9" stroke-width="1.51"/><path d="M793,9L908,49L927,-27Z" fill="#addda9" stroke="#addda9" stroke-width="1.51"/><path d="M-43,-245L143,-223L259,-232Z" fill="#e9f7e5" stroke="#e9f7e5" stroke-width="1.51"/><path d="M710,554L688,667L876,715Z" fill="#78c57c" stroke="#78c57c" stroke-width="1.51"/><path d="M860,830L744,895L900,962Z" fill="#5db068" stroke="#5db068" stroke-width="1.51"/><path d="M714,270L748,338L905,232Z" fill="#9dd798" stroke="#9dd798" stroke-width="1.51"/><path d="M688,1005L740,1088L900,962Z" fill="#5aa864" stroke="#5aa864" stroke-width="1.51"/><path d="M715,148L714,270L905,232Z" fill="#a4da9e" stroke="#a4da9e" stroke-width="1.51"/><path d="M708,-272L793,9L881,-214Z" fill="#bde4b8" stroke="#bde4b8" stroke-width="1.51"/><path d="M744,895L688,1005L900,962Z" fill="#5eae68" stroke="#5eae68" stroke-width="1.51"/><path d="M688,667L860,830L876,715Z" fill="#69be73" stroke="#69be73" stroke-width="1.51"/><path d="M740,1088L628,1272L806,1318Z" fill="#54985a" stroke="#54985a" stroke-width="1.51"/><path d="M688,667L744,895L860,830Z" fill="#69ba72" stroke="#69ba72" stroke-width="1.51"/><path d="M421,-212L549,-201L708,-272Z" fill="#d0eccb" stroke="#d0eccb" stroke-width="1.51"/><path d="M549,-201L545,-52L708,-272Z" fill="#cbeac6" stroke="#cbeac6" stroke-width="1.51"/><path d="M688,667L632,896L744,895Z" fill="#6dbb75" stroke="#6dbb75" stroke-width="1.51"/><path d="M708,-272L545,-52L793,9Z" fill="#c3e7bd" stroke="#c3e7bd" stroke-width="1.51"/><path d="M536,20L715,148L793,9Z" fill="#b8e3b1" stroke="#b8e3b1" stroke-width="1.51"/><path d="M545,-52L536,20L793,9Z" fill="#c1e6ba" stroke="#c1e6ba" stroke-width="1.51"/><path d="M550,347L509,533L710,554Z" fill="#96d492" stroke="#96d492" stroke-width="1.51"/><path d="M647,594L688,667L710,554Z" fill="#82ca83" stroke="#82ca83" stroke-width="1.51"/><path d="M531,1124L628,1272L740,1088Z" fill="#5da263" stroke="#5da263" stroke-width="1.51"/><path d="M632,896L688,1005L744,895Z" fill="#66b26f" stroke="#66b26f" stroke-width="1.51"/><path d="M550,347L710,554L748,338Z" fill="#98d593" stroke="#98d593" stroke-width="1.51"/><path d="M638,296L550,347L748,338Z" fill="#a3da9d" stroke="#a3da9d" stroke-width="1.51"/><path d="M714,270L638,296L748,338Z" fill="#a1d99b" stroke="#a1d99b" stroke-width="1.51"/><path d="M688,1005L588,1021L740,1088Z" fill="#61aa69" stroke="#61aa69" stroke-width="1.51"/><path d="M588,1021L531,1124L740,1088Z" fill="#63a969" stroke="#63a969" stroke-width="1.51"/><path d="M552,632L632,896L688,667Z" fill="#78c47f" stroke="#78c47f" stroke-width="1.51"/><path d="M509,533L647,594L710,554Z" fill="#8bcf89" stroke="#8bcf89" stroke-width="1.51"/><path d="M638,296L714,270L715,148Z" fill="#a8dca1" stroke="#a8dca1" stroke-width="1.51"/><path d="M499,74L638,296L715,148Z" fill="#b3e1ac" stroke="#b3e1ac" stroke-width="1.51"/><path d="M536,20L499,74L715,148Z" fill="#bde5b5" stroke="#bde5b5" stroke-width="1.51"/><path d="M491,397L509,533L550,347Z" fill="#a0d99b" stroke="#a0d99b" stroke-width="1.51"/><path d="M552,632L454,881L632,896Z" fill="#78c07f" stroke="#78c07f" stroke-width="1.51"/><path d="M632,896L588,1021L688,1005Z" fill="#67b16f" stroke="#67b16f" stroke-width="1.51"/><path d="M647,594L552,632L688,667Z" fill="#83ca85" stroke="#83ca85" stroke-width="1.51"/><path d="M426,686L454,881L552,632Z" fill="#82c887" stroke="#82c887" stroke-width="1.51"/><path d="M531,1124L489,1164L628,1272Z" fill="#62a267" stroke="#62a267" stroke-width="1.51"/><path d="M499,74L550,347L638,296Z" fill="#b1dfa9" stroke="#b1dfa9" stroke-width="1.51"/><path d="M509,533L552,632L647,594Z" fill="#8cce8b" stroke="#8cce8b" stroke-width="1.51"/><path d="M499,74L405,313L550,347Z" fill="#b5e1ae" stroke="#b5e1ae" stroke-width="1.51"/><path d="M454,881L588,1021L632,896Z" fill="#6fb676" stroke="#6fb676" stroke-width="1.51"/><path d="M489,1164L428,1248L628,1272Z" fill="#639e66" stroke="#639e66" stroke-width="1.51"/><path d="M432,939L531,1124L588,1021Z" fill="#6cb073" stroke="#6cb073" stroke-width="1.51"/><path d="M454,881L432,939L588,1021Z" fill="#73b77a" stroke="#73b77a" stroke-width="1.51"/><path d="M338,277L405,313L499,74Z" fill="#bbe4b4" stroke="#bbe4b4" stroke-width="1.51"/><path d="M334,87L338,277L499,74Z" fill="#c3e7bc" stroke="#c3e7bc" stroke-width="1.51"/><path d="M421,-76L545,-52L549,-201Z" fill="#cfecc8" stroke="#cfecc8" stroke-width="1.51"/><path d="M421,-212L421,-76L549,-201Z" fill="#d3eece" stroke="#d3eece" stroke-width="1.51"/><path d="M405,313L491,397L550,347Z" fill="#abdda4" stroke="#abdda4" stroke-width="1.51"/><path d="M509,533L426,686L552,632Z" fill="#8dcf8e" stroke="#8dcf8e" stroke-width="1.51"/><path d="M421,-76L536,20L545,-52Z" fill="#caebc4" stroke="#caebc4" stroke-width="1.51"/><path d="M432,939L489,1164L531,1124Z" fill="#6cad71" stroke="#6cad71" stroke-width="1.51"/><path d="M432,939L312,1013L489,1164Z" fill="#73b178" stroke="#73b178" stroke-width="1.51"/><path d="M421,-76L499,74L536,20Z" fill="#c8e9c1" stroke="#c8e9c1" stroke-width="1.51"/><path d="M312,1013L296,1126L489,1164Z" fill="#72ae76" stroke="#72ae76" stroke-width="1.51"/><path d="M421,-76L334,87L499,74Z" fill="#cbebc4" stroke="#cbebc4" stroke-width="1.51"/><path d="M226,584L426,686L509,533Z" fill="#96d396" stroke="#96d396" stroke-width="1.51"/><path d="M329,410L226,584L509,533Z" fill="#a2d89e" stroke="#a2d89e" stroke-width="1.51"/><path d="M491,397L329,410L509,533Z" fill="#a3da9e" stroke="#a3da9e" stroke-width="1.51"/><path d="M426,686L357,898L454,881Z" fill="#80c385" stroke="#80c385" stroke-width="1.51"/><path d="M405,313L329,410L491,397Z" fill="#addea7" stroke="#addea7" stroke-width="1.51"/><path d="M296,1126L428,1248L489,1164Z" fill="#6ba76f" stroke="#6ba76f" stroke-width="1.51"/><path d="M226,584L224,625L426,686Z" fill="#98d398" stroke="#98d398" stroke-width="1.51"/><path d="M357,898L432,939L454,881Z" fill="#7abc80" stroke="#7abc80" stroke-width="1.51"/><path d="M252,-93L334,87L421,-76Z" fill="#d4eecd" stroke="#d4eecd" stroke-width="1.51"/><path d="M252,-93L421,-76L421,-212Z" fill="#d8f0d2" stroke="#d8f0d2" stroke-width="1.51"/><path d="M259,-232L252,-93L421,-212Z" fill="#ddf2d7" stroke="#ddf2d7" stroke-width="1.51"/><path d="M192,868L357,898L426,686Z" fill="#86c58b" stroke="#86c58b" stroke-width="1.51"/><path d="M224,625L192,868L426,686Z" fill="#8fcd93" stroke="#8fcd93" stroke-width="1.51"/><path d="M296,1126L271,1256L428,1248Z" fill="#6fa572" stroke="#6fa572" stroke-width="1.51"/><path d="M357,898L312,1013L432,939Z" fill="#7aba80" stroke="#7aba80" stroke-width="1.51"/><path d="M338,277L329,410L405,313Z" fill="#b4e1ad" stroke="#b4e1ad" stroke-width="1.51"/><path d="M252,-93L199,-67L334,87Z" fill="#d7f0d1" stroke="#d7f0d1" stroke-width="1.51"/><path d="M334,87L117,223L338,277Z" fill="#c6e9bf" stroke="#c6e9bf" stroke-width="1.51"/><path d="M192,868L312,1013L357,898Z" fill="#80bd86" stroke="#80bd86" stroke-width="1.51"/><path d="M192,868L186,998L312,1013Z" fill="#81bc87" stroke="#81bc87" stroke-width="1.51"/><path d="M104,460L226,584L329,410Z" fill="#abdda7" stroke="#abdda7" stroke-width="1.51"/><path d="M117,223L104,460L329,410Z" fill="#bae3b4" stroke="#bae3b4" stroke-width="1.51"/><path d="M73,145L117,223L334,87Z" fill="#cfecc8" stroke="#cfecc8" stroke-width="1.51"/><path d="M117,223L329,410L338,277Z" fill="#bce4b5" stroke="#bce4b5" stroke-width="1.51"/><path d="M199,-67L73,145L334,87Z" fill="#d5eece" stroke="#d5eece" stroke-width="1.51"/><path d="M186,998L296,1126L312,1013Z" fill="#7bb47f" stroke="#7bb47f" stroke-width="1.51"/><path d="M45,763L192,868L224,625Z" fill="#93ce98" stroke="#93ce98" stroke-width="1.51"/><path d="M105,1164L271,1256L296,1126Z" fill="#75aa78" stroke="#75aa78" stroke-width="1.51"/><path d="M186,998L105,1164L296,1126Z" fill="#7bb27f" stroke="#7bb27f" stroke-width="1.51"/><path d="M89,622L45,763L224,625Z" fill="#9dd49f" stroke="#9dd49f" stroke-width="1.51"/><path d="M104,460L133,565L226,584Z" fill="#aadba6" stroke="#aadba6" stroke-width="1.51"/><path d="M143,-223L199,-67L252,-93Z" fill="#e0f4db" stroke="#e0f4db" stroke-width="1.51"/><path d="M143,-223L252,-93L259,-232Z" fill="#e2f4dd" stroke="#e2f4dd" stroke-width="1.51"/><path d="M105,1164L102,1306L271,1256Z" fill="#76a478" stroke="#76a478" stroke-width="1.51"/><path d="M6,289L104,460L117,223Z" fill="#c3e7bd" stroke="#c3e7bd" stroke-width="1.51"/><path d="M8,103L73,145L199,-67Z" fill="#daf1d3" stroke="#daf1d3" stroke-width="1.51"/><path d="M133,565L224,625L226,584Z" fill="#a2d7a0" stroke="#a2d7a0" stroke-width="1.51"/><path d="M133,565L89,622L224,625Z" fill="#a2d7a1" stroke="#a2d7a1" stroke-width="1.51"/><path d="M22,1116L105,1164L186,998Z" fill="#80b484" stroke="#80b484" stroke-width="1.51"/><path d="M-3,1043L22,1116L186,998Z" fill="#84b889" stroke="#84b889" stroke-width="1.51"/><path d="M47,894L186,998L192,868Z" fill="#88c18e" stroke="#88c18e" stroke-width="1.51"/><path d="M45,763L47,894L192,868Z" fill="#90c895" stroke="#90c895" stroke-width="1.51"/><path d="M143,-223L-84,-93L199,-67Z" fill="#e6f6e1" stroke="#e6f6e1" stroke-width="1.51"/><path d="M-84,-93L8,103L199,-67Z" fill="#e1f4dc" stroke="#e1f4dc" stroke-width="1.51"/><path d="M45,1252L102,1306L105,1164Z" fill="#7aa67c" stroke="#7aa67c" stroke-width="1.51"/><path d="M47,894L-3,1043L186,998Z" fill="#88bd8d" stroke="#88bd8d" stroke-width="1.51"/><path d="M6,289L-34,321L104,460Z" fill="#c2e7bc" stroke="#c2e7bc" stroke-width="1.51"/><path d="M104,460L40,558L133,565Z" fill="#aeddaa" stroke="#aeddaa" stroke-width="1.51"/><path d="M-43,-245L-84,-93L143,-223Z" fill="#ebf8e7" stroke="#ebf8e7" stroke-width="1.51"/><path d="M40,558L89,622L133,565Z" fill="#a8daa6" stroke="#a8daa6" stroke-width="1.51"/><path d="M45,1252L-173,1284L102,1306Z" fill="#7aa37e" stroke="#7aa37e" stroke-width="1.51"/><path d="M73,145L6,289L117,223Z" fill="#cdecc7" stroke="#cdecc7" stroke-width="1.51"/><path d="M22,1116L45,1252L105,1164Z" fill="#7eae81" stroke="#7eae81" stroke-width="1.51"/><path d="M-34,321L40,558L104,460Z" fill="#b8e2b4" stroke="#b8e2b4" stroke-width="1.51"/><path d="M40,558L45,763L89,622Z" fill="#a3d6a3" stroke="#a3d6a3" stroke-width="1.51"/><path d="M-106,252L6,289L8,103Z" fill="#d1edcb" stroke="#d1edcb" stroke-width="1.51"/><path d="M-189,720L-108,791L40,558Z" fill="#a3d6a6" stroke="#a3d6a6" stroke-width="1.51"/><path d="M40,558L-108,791L45,763Z" fill="#9fd4a2" stroke="#9fd4a2" stroke-width="1.51"/><path d="M8,103L6,289L73,145Z" fill="#d3eecc" stroke="#d3eecc" stroke-width="1.51"/><path d="M-84,-93L-106,91L8,103Z" fill="#e1f3db" stroke="#e1f3db" stroke-width="1.51"/><path d="M-221,521L-189,720L40,558Z" fill="#addbad" stroke="#addbad" stroke-width="1.51"/><path d="M-34,321L-221,521L40,558Z" fill="#bae2b5" stroke="#bae2b5" stroke-width="1.51"/><path d="M22,1116L-173,1284L45,1252Z" fill="#7faa82" stroke="#7faa82" stroke-width="1.51"/><path d="M45,763L-108,791L47,894Z" fill="#95cc9b" stroke="#95cc9b" stroke-width="1.51"/><path d="M-108,791L-3,1043L47,894Z" fill="#90c495" stroke="#90c495" stroke-width="1.51"/><path d="M-108,791L-216,1014L-3,1043Z" fill="#90c296" stroke="#90c296" stroke-width="1.51"/><path d="M-96,-89L-106,91L-84,-93Z" fill="#e6f6e1" stroke="#e6f6e1" stroke-width="1.51"/><path d="M-167,320L-221,521L-34,321Z" fill="#c4e7bf" stroke="#c4e7bf" stroke-width="1.51"/><path d="M-106,91L-106,252L8,103Z" fill="#d8f0d2" stroke="#d8f0d2" stroke-width="1.51"/><path d="M-3,1043L-190,1081L22,1116Z" fill="#87b78b" stroke="#87b78b" stroke-width="1.51"/><path d="M-190,1081L-173,1284L22,1116Z" fill="#84b287" stroke="#84b287" stroke-width="1.51"/><path d="M-106,252L-34,321L6,289Z" fill="#cbeac5" stroke="#cbeac5" stroke-width="1.51"/><path d="M-216,1014L-190,1081L-3,1043Z" fill="#8bbb90" stroke="#8bbb90" stroke-width="1.51"/><path d="M-198,-136L-96,-89L-84,-93Z" fill="#ecf8e8" stroke="#ecf8e8" stroke-width="1.51"/><path d="M-198,-136L-84,-93L-43,-245Z" fill="#eef9ea" stroke="#eef9ea" stroke-width="1.51"/><path d="M-106,252L-167,320L-34,321Z" fill="#ccebc6" stroke="#ccebc6" stroke-width="1.51"/><path d="M-198,-136L-106,91L-96,-89Z" fill="#e9f7e4" stroke="#e9f7e4" stroke-width="1.51"/><path d="M-189,720L-216,1014L-108,791Z" fill="#99cb9f" stroke="#99cb9f" stroke-width="1.51"/><path d="M-106,91L-167,320L-106,252Z" fill="#d3eece" stroke="#d3eece" stroke-width="1.51"/><path d="M-198,-136L-167,320L-106,91Z" fill="#dff3da" stroke="#dff3da" stroke-width="1.51"/><path d="M-198,-136L-221,521L-167,320Z" fill="#d4eecf" stroke="#d4eecf" stroke-width="1.51"/><path d="M-190,1081L-216,1014L-173,1284Z" fill="#88b68d" stroke="#88b68d" stroke-width="1.51"/><path d="M-221,521L-216,1014L-189,720Z" fill="#a0d3a6" stroke="#a0d3a6" stroke-width="1.51"/></svg>