<svg xmlns="http://www.w3.org/2000/svg" width="1920" height="1080"><path d="M-43,-245L259,-232L708,-272Z" fill="#dfebf7" stroke="#dfebf7" stroke-width="1.51"/><path d="M806,1318L102,1306L890,1334Z" fill="#607eac" stroke="#607eac" stroke-width="1.51"/><path d="M890,1334L102,1306L960,1347Z" fill="#5c7ca9" stroke="#5c7ca9" stroke-width="1.51"/><path d="M708,-272L1212,-258L1582,-278Z" fill="#a9c9e5" stroke="#a9c9e5" stroke-width="1.51"/><path d="M1985,1006L1985,1116L2124,1166Z" fill="#0e4c92" stroke="#0e4c92" stroke-width="1.51"/><path d="M1985,1006L2124,1166L2126,931Z" fill="#124e91" stroke="#124e91" stroke-width="1.51"/><path d="M1582,-278L1888,-156L2130,-157Z" fill="#8c9dcb" stroke="#8c9dcb" stroke-width="1.51"/><path d="M1888,-156L1915,-132L2130,-157Z" fill="#8595c0" stroke="#8595c0" stroke-width="1.51"/><path d="M1987,308L2022,386L2141,264Z" fill="#5f80af" stroke="#5f80af" stroke-width="1.51"/><path d="M2022,386L2072,490L2141,264Z" fill="#577bab" stroke="#577bab" stroke-width="1.51"/><path d="M2130,-157L2052,-69L2141,264Z" fill="#7787b2" stroke="#7787b2" stroke-width="1.51"/><path d="M2052,-69L2012,134L2141,264Z" fill="#7286b4" stroke="#7286b4" stroke-width="1.51"/><path d="M1870,1264L1680,1334L2148,1295Z" fill="#094388" stroke="#094388" stroke-width="1.51"/><path d="M2124,1166L1985,1116L2148,1295Z" fill="#094185" stroke="#094185" stroke-width="1.51"/><path d="M1985,1116L1870,1264L2148,1295Z" fill="#094388" stroke="#094388" stroke-width="1.51"/><path d="M2126,931L2124,1166L2148,1295Z" fill="#0b4487" stroke="#0b4487" stroke-width="1.51"/><path d="M1999,841L2126,931L2150,791Z" fill="#215b99" stroke="#215b99" stroke-width="1.51"/><path d="M2076,704L1999,841L2150,791Z" fill="#28629d" stroke="#28629d" stroke-width="1.51"/><path d="M2141,264L2072,490L2150,791Z" fill="#446fa3" stroke="#446fa3" stroke-width="1.51"/><path d="M2072,490L2076,704L2150,791Z" fill="#3367a0" stroke="#3367a0" stroke-width="1.51"/><path d="M2126,931L2148,1295L2150,791Z" fill="#134d8e" stroke="#134d8e" stroke-width="1.51"/><path d="M2072,490L1920,561L2076,704Z" fill="#3d71a9" stroke="#3d71a9" stroke-width="1.51"/><path d="M2012,134L1987,308L2141,264Z" fill="#6783b2" stroke="#6783b2" stroke-width="1.51"/><path d="M1915,-132L2052,-69L2130,-157Z" fill="#8190bb" stroke="#8190bb" stroke-width="1.51"/><path d="M1999,841L1985,1006L2126,931Z" fill="#19589b" stroke="#19589b" stroke-width="1.51"/><path d="M1432,1259L960,1347L1680,1334Z" fill="#245e9b" stroke="#245e9b" stroke-width="1.51"/><path d="M1885,69L2012,134L2052,-69Z" fill="#798dbc" stroke="#798dbc" stroke-width="1.51"/><path d="M1865,627L1999,841L2076,704Z" fill="#2e6ba8" stroke="#2e6ba8" stroke-width="1.51"/><path d="M1920,561L1865,627L2076,704Z" fill="#3972ad" stroke="#3972ad" stroke-width="1.51"/><path d="M1582,-278L1796,-145L1888,-156Z" fill="#8fa4d0" stroke="#8fa4d0" stroke-width="1.51"/><path d="M2022,386L1888,429L2072,490Z" fill="#527cb0" stroke="#527cb0" stroke-width="1.51"/><path d="M1888,429L1920,561L2072,490Z" fill="#4a7bb2" stroke="#4a7bb2" stroke-width="1.51"/><path d="M1915,-132L1885,69L2052,-69Z" fill="#7f93c1" stroke="#7f93c1" stroke-width="1.51"/><path d="M1865,627L1781,796L1999,841Z" fill="#2b6fae" stroke="#2b6fae" stroke-width="1.51"/><path d="M1848,1000L1985,1006L1999,841Z" fill="#175da1" stroke="#175da1" stroke-width="1.51"/><path d="M1783,237L1987,308L2012,134Z" fill="#6c8abc" stroke="#6c8abc" stroke-width="1.51"/><path d="M1885,69L1783,237L2012,134Z" fill="#758fc2" stroke="#758fc2" stroke-width="1.51"/><path d="M1987,308L1888,429L2022,386Z" fill="#5a81b4" stroke="#5a81b4" stroke-width="1.51"/><path d="M1848,1000L1985,1116L1985,1006Z" fill="#12559c" stroke="#12559c" stroke-width="1.51"/><path d="M1781,796L1848,1000L1999,841Z" fill="#2066aa" stroke="#2066aa" stroke-width="1.51"/><path d="M1796,1175L1870,1264L1985,1116Z" fill="#084d97" stroke="#084d97" stroke-width="1.51"/><path d="M1849,403L1888,429L1987,308Z" fill="#5b85b9" stroke="#5b85b9" stroke-width="1.51"/><path d="M1783,237L1849,403L1987,308Z" fill="#648bbe" stroke="#648bbe" stroke-width="1.51"/><path d="M1848,1000L1796,1175L1985,1116Z" fill="#0d549e" stroke="#0d549e" stroke-width="1.51"/><path d="M1133,1272L960,1347L1432,1259Z" fill="#3169a3" stroke="#3169a3" stroke-width="1.51"/><path d="M1791,-84L1786,35L1885,69Z" fill="#8099c9" stroke="#8099c9" stroke-width="1.51"/><path d="M1888,-156L1791,-84L1915,-132Z" fill="#879bca" stroke="#879bca" stroke-width="1.51"/><path d="M1791,-84L1885,69L1915,-132Z" fill="#8399c8" stroke="#8399c8" stroke-width="1.51"/><path d="M1888,429L1719,564L1920,561Z" fill="#4980ba" stroke="#4980ba" stroke-width="1.51"/><path d="M1719,564L1865,627L1920,561Z" fill="#417db8" stroke="#417db8" stroke-width="1.51"/><path d="M1849,403L1719,564L1888,429Z" fill="#5185bc" stroke="#5185bc" stroke-width="1.51"/><path d="M1719,748L1781,796L1865,627Z" fill="#3176b5" stroke="#3176b5" stroke-width="1.51"/><path d="M1736,1245L1680,1334L1870,1264Z" fill="#0e4c91" stroke="#0e4c91" stroke-width="1.51"/><path d="M1786,35L1783,237L1885,69Z" fill="#7a95c7" stroke="#7a95c7" stroke-width="1.51"/><path d="M1796,-145L1791,-84L1888,-156Z" fill="#899ecc" stroke="#899ecc" stroke-width="1.51"/><path d="M1781,796L1650,969L1848,1000Z" fill="#1e69ae" stroke="#1e69ae" stroke-width="1.51"/><path d="M1796,1175L1736,1245L1870,1264Z" fill="#0c4e96" stroke="#0c4e96" stroke-width="1.51"/><path d="M1719,564L1719,748L1865,627Z" fill="#3b7cb9" stroke="#3b7cb9" stroke-width="1.51"/><path d="M1646,168L1783,237L1786,35Z" fill="#7999ca" stroke="#7999ca" stroke-width="1.51"/><path d="M1650,969L1796,1175L1848,1000Z" fill="#155ea6" stroke="#155ea6" stroke-width="1.51"/><path d="M1783,237L1616,426L1849,403Z" fill="#6290c3" stroke="#6290c3" stroke-width="1.51"/><path d="M1616,426L1719,564L1849,403Z" fill="#548ac0" stroke="#548ac0" stroke-width="1.51"/><path d="M1604,841L1650,969L1781,796Z" fill="#2671b3" stroke="#2671b3" stroke-width="1.51"/><path d="M1555,298L1616,426L1783,237Z" fill="#6997c8" stroke="#6997c8" stroke-width="1.51"/><path d="M1658,-9L1646,168L1786,35Z" fill="#809ece" stroke="#809ece" stroke-width="1.51"/><path d="M1658,-9L1786,35L1791,-84Z" fill="#849ecd" stroke="#849ecd" stroke-width="1.51"/><path d="M1658,-9L1791,-84L1796,-145Z" fill="#87a1ce" stroke="#87a1ce" stroke-width="1.51"/><path d="M1538,-102L1658,-9L1796,-145Z" fill="#8aa6d2" stroke="#8aa6d2" stroke-width="1.51"/><path d="M1582,-278L1538,-102L1796,-145Z" fill="#91aad5" stroke="#91aad5" stroke-width="1.51"/><path d="M1608,1194L1736,1245L1796,1175Z" fill="#11549c" stroke="#11549c" stroke-width="1.51"/><path d="M1650,969L1608,1194L1796,1175Z" fill="#155ea6" stroke="#155ea6" stroke-width="1.51"/><path d="M1719,748L1604,841L1781,796Z" fill="#2c76b5" stroke="#2c76b5" stroke-width="1.51"/><path d="M1646,168L1555,298L1783,237Z" fill="#729acb" stroke="#729acb" stroke-width="1.51"/><path d="M1616,426L1608,510L1719,564Z" fill="#508cc3" stroke="#508cc3" stroke-width="1.51"/><path d="M1606,715L1719,748L1719,564Z" fill="#3a7fbb" stroke="#3a7fbb" stroke-width="1.51"/><path d="M1212,-258L1439,-222L1582,-278Z" fill="#9dbade" stroke="#9dbade" stroke-width="1.51"/><path d="M1608,1194L1680,1334L1736,1245Z" fill="#125397" stroke="#125397" stroke-width="1.51"/><path d="M1560,42L1646,168L1658,-9Z" fill="#82a3d1" stroke="#82a3d1" stroke-width="1.51"/><path d="M1606,715L1604,841L1719,748Z" fill="#307bb9" stroke="#307bb9" stroke-width="1.51"/><path d="M1608,510L1606,715L1719,564Z" fill="#4486c0" stroke="#4486c0" stroke-width="1.51"/><path d="M1495,955L1608,1194L1650,969Z" fill="#1d68ae" stroke="#1d68ae" stroke-width="1.51"/><path d="M1608,1194L1432,1259L1680,1334Z" fill="#16589b" stroke="#16589b" stroke-width="1.51"/><path d="M1495,955L1417,1154L1608,1194Z" fill="#1e68ad" stroke="#1e68ad" stroke-width="1.51"/><path d="M1524,720L1606,715L1608,510Z" fill="#3f87c0" stroke="#3f87c0" stroke-width="1.51"/><path d="M1604,841L1495,955L1650,969Z" fill="#2472b5" stroke="#2472b5" stroke-width="1.51"/><path d="M1534,21L1560,42L1658,-9Z" fill="#86a6d3" stroke="#86a6d3" stroke-width="1.51"/><path d="M1538,-102L1534,21L1658,-9Z" fill="#89a9d5" stroke="#89a9d5" stroke-width="1.51"/><path d="M1560,42L1555,298L1646,168Z" fill="#7aa1d0" stroke="#7aa1d0" stroke-width="1.51"/><path d="M1439,-222L1538,-102L1582,-278Z" fill="#96b2da" stroke="#96b2da" stroke-width="1.51"/><path d="M1524,720L1604,841L1606,715Z" fill="#327fbc" stroke="#327fbc" stroke-width="1.51"/><path d="M1424,509L1524,720L1608,510Z" fill="#498fc5" stroke="#498fc5" stroke-width="1.51"/><path d="M1472,421L1608,510L1616,426Z" fill="#5994c8" stroke="#5994c8" stroke-width="1.51"/><path d="M1555,298L1472,421L1616,426Z" fill="#6499ca" stroke="#6499ca" stroke-width="1.51"/><path d="M1285,251L1367,328L1555,298Z" fill="#74a7d1" stroke="#74a7d1" stroke-width="1.51"/><path d="M1285,251L1555,298L1560,42Z" fill="#7ca7d2" stroke="#7ca7d2" stroke-width="1.51"/><path d="M1534,21L1285,251L1560,42Z" fill="#85abd6" stroke="#85abd6" stroke-width="1.51"/><path d="M1524,720L1434,777L1604,841Z" fill="#3381bd" stroke="#3381bd" stroke-width="1.51"/><path d="M1417,1154L1432,1259L1608,1194Z" fill="#1d61a5" stroke="#1d61a5" stroke-width="1.51"/><path d="M1472,421L1424,509L1608,510Z" fill="#5796c9" stroke="#5796c9" stroke-width="1.51"/><path d="M1434,777L1495,955L1604,841Z" fill="#2d7bbb" stroke="#2d7bbb" stroke-width="1.51"/><path d="M1266,98L1285,251L1534,21Z" fill="#87b0d8" stroke="#87b0d8" stroke-width="1.51"/><path d="M628,1272L102,1306L806,1318Z" fill="#6782b0" stroke="#6782b0" stroke-width="1.51"/><path d="M1424,509L1346,682L1524,720Z" fill="#4790c5" stroke="#4790c5" stroke-width="1.51"/><path d="M1352,-23L1266,98L1534,21Z" fill="#8cb2d9" stroke="#8cb2d9" stroke-width="1.51"/><path d="M1352,-23L1534,21L1538,-102Z" fill="#8dafd8" stroke="#8dafd8" stroke-width="1.51"/><path d="M1367,328L1472,421L1555,298Z" fill="#6aa0cd" stroke="#6aa0cd" stroke-width="1.51"/><path d="M708,-272L881,-214L1212,-258Z" fill="#b5d3eb" stroke="#b5d3eb" stroke-width="1.51"/><path d="M1434,777L1372,933L1495,955Z" fill="#2f7dbb" stroke="#2f7dbb" stroke-width="1.51"/><path d="M1439,-222L1352,-23L1538,-102Z" fill="#93b4da" stroke="#93b4da" stroke-width="1.51"/><path d="M1330,1215L1133,1272L1432,1259Z" fill="#2867a5" stroke="#2867a5" stroke-width="1.51"/><path d="M1316,-163L1352,-23L1439,-222Z" fill="#97b9dd" stroke="#97b9dd" stroke-width="1.51"/><path d="M1372,933L1417,1154L1495,955Z" fill="#2873b4" stroke="#2873b4" stroke-width="1.51"/><path d="M1346,682L1434,777L1524,720Z" fill="#3d8ac2" stroke="#3d8ac2" stroke-width="1.51"/><path d="M1372,933L1327,1154L1417,1154Z" fill="#2871b2" stroke="#2871b2" stroke-width="1.51"/><path d="M1404,496L1424,509L1472,421Z" fill="#5b9acb" stroke="#5b9acb" stroke-width="1.51"/><path d="M1367,328L1404,496L1472,421Z" fill="#649fcd" stroke="#649fcd" stroke-width="1.51"/><path d="M1404,496L1346,682L1424,509Z" fill="#5097ca" stroke="#5097ca" stroke-width="1.51"/><path d="M1417,1154L1330,1215L1432,1259Z" fill="#2365a7" stroke="#2365a7" stroke-width="1.51"/><path d="M1283,772L1372,933L1434,777Z" fill="#3885bf" stroke="#3885bf" stroke-width="1.51"/><path d="M1212,-258L1316,-163L1439,-222Z" fill="#9dbedf" stroke="#9dbedf" stroke-width="1.51"/><path d="M1230,627L1346,682L1404,496Z" fill="#4f98ca" stroke="#4f98ca" stroke-width="1.51"/><path d="M1346,682L1283,772L1434,777Z" fill="#3e8cc4" stroke="#3e8cc4" stroke-width="1.51"/><path d="M1327,1154L1330,1215L1417,1154Z" fill="#266aac" stroke="#266aac" stroke-width="1.51"/><path d="M1367,328L1207,340L1404,496Z" fill="#6ba6d0" stroke="#6ba6d0" stroke-width="1.51"/><path d="M1207,340L1176,498L1404,496Z" fill="#66a6d1" stroke="#66a6d1" stroke-width="1.51"/><path d="M1142,1027L1327,1154L1372,933Z" fill="#2f7ab8" stroke="#2f7ab8" stroke-width="1.51"/><path d="M1176,498L1230,627L1404,496Z" fill="#579fcd" stroke="#579fcd" stroke-width="1.51"/><path d="M1266,98L1227,156L1285,251Z" fill="#86b4d9" stroke="#86b4d9" stroke-width="1.51"/><path d="M1194,1210L1133,1272L1330,1215Z" fill="#2f6ca9" stroke="#2f6ca9" stroke-width="1.51"/><path d="M1283,772L1166,882L1372,933Z" fill="#3987c1" stroke="#3987c1" stroke-width="1.51"/><path d="M1166,882L1142,1027L1372,933Z" fill="#3783bf" stroke="#3783bf" stroke-width="1.51"/><path d="M1285,251L1207,340L1367,328Z" fill="#76add4" stroke="#76add4" stroke-width="1.51"/><path d="M1316,-163L1110,-57L1352,-23Z" fill="#97bddf" stroke="#97bddf" stroke-width="1.51"/><path d="M1110,-57L1266,98L1352,-23Z" fill="#93bbde" stroke="#93bbde" stroke-width="1.51"/><path d="M1230,627L1283,772L1346,682Z" fill="#4794c8" stroke="#4794c8" stroke-width="1.51"/><path d="M1142,1027L1194,1210L1327,1154Z" fill="#3175b3" stroke="#3175b3" stroke-width="1.51"/><path d="M1327,1154L1194,1210L1330,1215Z" fill="#2a6cac" stroke="#2a6cac" stroke-width="1.51"/><path d="M428,1248L102,1306L628,1272Z" fill="#7187b6" stroke="#7187b6" stroke-width="1.51"/><path d="M1212,-258L1110,-57L1316,-163Z" fill="#9fc2e2" stroke="#9fc2e2" stroke-width="1.51"/><path d="M1110,-57L1102,84L1266,98Z" fill="#95bedf" stroke="#95bedf" stroke-width="1.51"/><path d="M1230,627L1076,774L1283,772Z" fill="#4a96c9" stroke="#4a96c9" stroke-width="1.51"/><path d="M1227,156L1167,199L1285,251Z" fill="#85b4d9" stroke="#85b4d9" stroke-width="1.51"/><path d="M1167,199L1207,340L1285,251Z" fill="#7eb3d7" stroke="#7eb3d7" stroke-width="1.51"/><path d="M1076,774L1166,882L1283,772Z" fill="#4591c6" stroke="#4591c6" stroke-width="1.51"/><path d="M1105,631L1076,774L1230,627Z" fill="#539ccc" stroke="#539ccc" stroke-width="1.51"/><path d="M1102,84L1227,156L1266,98Z" fill="#8fb9dd" stroke="#8fb9dd" stroke-width="1.51"/><path d="M1029,431L1176,498L1207,340Z" fill="#70add5" stroke="#70add5" stroke-width="1.51"/><path d="M1039,-142L1110,-57L1212,-258Z" fill="#a3c7e4" stroke="#a3c7e4" stroke-width="1.51"/><path d="M1102,84L1167,199L1227,156Z" fill="#8db9dd" stroke="#8db9dd" stroke-width="1.51"/><path d="M1176,498L1105,631L1230,627Z" fill="#59a1cf" stroke="#59a1cf" stroke-width="1.51"/><path d="M881,-214L1039,-142L1212,-258Z" fill="#abcde7" stroke="#abcde7" stroke-width="1.51"/><path d="M1080,953L1142,1027L1166,882Z" fill="#3f87c1" stroke="#3f87c1" stroke-width="1.51"/><path d="M1142,1027L1008,1087L1194,1210Z" fill="#3a7bb8" stroke="#3a7bb8" stroke-width="1.51"/><path d="M1167,199L999,236L1207,340Z" fill="#84b7da" stroke="#84b7da" stroke-width="1.51"/><path d="M999,236L1029,431L1207,340Z" fill="#7fb6d9" stroke="#7fb6d9" stroke-width="1.51"/><path d="M1008,1087L1133,1272L1194,1210Z" fill="#3975b1" stroke="#3975b1" stroke-width="1.51"/><path d="M1029,431L1105,631L1176,498Z" fill="#65a8d3" stroke="#65a8d3" stroke-width="1.51"/><path d="M999,236L958,366L1029,431Z" fill="#83bada" stroke="#83bada" stroke-width="1.51"/><path d="M1029,431L977,469L1105,631Z" fill="#6aacd5" stroke="#6aacd5" stroke-width="1.51"/><path d="M1076,774L1080,953L1166,882Z" fill="#468fc5" stroke="#468fc5" stroke-width="1.51"/><path d="M1102,84L999,236L1167,199Z" fill="#8fbcde" stroke="#8fbcde" stroke-width="1.51"/><path d="M1011,-21L1102,84L1110,-57Z" fill="#9cc3e2" stroke="#9cc3e2" stroke-width="1.51"/><path d="M1008,1087L933,1188L1133,1272Z" fill="#3f79b4" stroke="#3f79b4" stroke-width="1.51"/><path d="M1080,953L1008,1087L1142,1027Z" fill="#4084be" stroke="#4084be" stroke-width="1.51"/><path d="M933,1188L960,1347L1133,1272Z" fill="#3e72a9" stroke="#3e72a9" stroke-width="1.51"/><path d="M259,-232L421,-212L708,-272Z" fill="#d5e6f3" stroke="#d5e6f3" stroke-width="1.51"/><path d="M860,830L900,962L1076,774Z" fill="#5397ca" stroke="#5397ca" stroke-width="1.51"/><path d="M1076,774L900,962L1080,953Z" fill="#4b91c7" stroke="#4b91c7" stroke-width="1.51"/><path d="M876,715L1076,774L1105,631Z" fill="#589fce" stroke="#589fce" stroke-width="1.51"/><path d="M1039,-142L1011,-21L1110,-57Z" fill="#a2c7e4" stroke="#a2c7e4" stroke-width="1.51"/><path d="M908,49L999,236L1102,84Z" fill="#99c2e2" stroke="#99c2e2" stroke-width="1.51"/><path d="M977,469L876,715L1105,631Z" fill="#64a8d3" stroke="#64a8d3" stroke-width="1.51"/><path d="M1011,-21L908,49L1102,84Z" fill="#9ec6e3" stroke="#9ec6e3" stroke-width="1.51"/><path d="M271,1256L102,1306L428,1248Z" fill="#768bb8" stroke="#768bb8" stroke-width="1.51"/><path d="M900,962L1008,1087L1080,953Z" fill="#4889c1" stroke="#4889c1" stroke-width="1.51"/><path d="M946,465L876,715L977,469Z" fill="#6daed6" stroke="#6daed6" stroke-width="1.51"/><path d="M876,715L860,830L1076,774Z" fill="#589fce" stroke="#589fce" stroke-width="1.51"/><path d="M908,49L905,232L999,236Z" fill="#98c3e2" stroke="#98c3e2" stroke-width="1.51"/><path d="M927,-27L1011,-21L1039,-142Z" fill="#a5cae5" stroke="#a5cae5" stroke-width="1.51"/><path d="M881,-214L927,-27L1039,-142Z" fill="#abcfe8" stroke="#abcfe8" stroke-width="1.51"/><path d="M958,366L977,469L1029,431Z" fill="#79b4d9" stroke="#79b4d9" stroke-width="1.51"/><path d="M933,1188L890,1334L960,1347Z" fill="#4574a9" stroke="#4574a9" stroke-width="1.51"/><path d="M958,366L946,465L977,469Z" fill="#79b5d9" stroke="#79b5d9" stroke-width="1.51"/><path d="M905,232L958,366L999,236Z" fill="#8cbfde" stroke="#8cbfde" stroke-width="1.51"/><path d="M927,-27L908,49L1011,-21Z" fill="#a4cae5" stroke="#a4cae5" stroke-width="1.51"/><path d="M900,962L933,1188L1008,1087Z" fill="#4985be" stroke="#4985be" stroke-width="1.51"/><path d="M900,962L740,1088L933,1188Z" fill="#5289c0" stroke="#5289c0" stroke-width="1.51"/><path d="M710,554L876,715L946,465Z" fill="#72b1d7" stroke="#72b1d7" stroke-width="1.51"/><path d="M748,338L946,465L958,366Z" fill="#85bbdc" stroke="#85bbdc" stroke-width="1.51"/><path d="M905,232L748,338L958,366Z" fill="#8fc1de" stroke="#8fc1de" stroke-width="1.51"/><path d="M715,148L905,232L908,49Z" fill="#a3c9e4" stroke="#a3c9e4" stroke-width="1.51"/><path d="M881,-214L793,9L927,-27Z" fill="#afd1e8" stroke="#afd1e8" stroke-width="1.51"/><path d="M806,1318L890,1334L933,1188Z" fill="#4a77ab" stroke="#4a77ab" stroke-width="1.51"/><path d="M748,338L710,554L946,465Z" fill="#85bbdc" stroke="#85bbdc" stroke-width="1.51"/><path d="M740,1088L806,1318L933,1188Z" fill="#5180b6" stroke="#5180b6" stroke-width="1.51"/><path d="M793,9L715,148L908,49Z" fill="#abcee6" stroke="#abcee6" stroke-width="1.51"/><path d="M793,9L908,49L927,-27Z" fill="#a9cde6" stroke="#a9cde6" stroke-width="1.51"/><path d="M-43,-245L143,-223L259,-232Z" fill="#e5eff9" stroke="#e5eff9" stroke-width="1.51"/><path d="M710,554L688,667L876,715Z" fill="#74b0d6" stroke="#74b0d6" stroke-width="1.51"/><path d="M860,830L744,895L900,962Z" fill="#5c99cb" stroke="#5c99cb" stroke-width="1.51"/><path d="M714,270L748,338L905,232Z" fill="#99c6e1" stroke="#99c6e1" stroke-width="1.51"/><path d="M688,1005L740,1088L900,962Z" fill="#5c92c5" stroke="#5c92c5" stroke-width="1.51"/><path d="M715,148L714,270L905,232Z" fill="#a0c9e3" stroke="#a0c9e3" stroke-width="1.51"/><path d="M708,-272L793,9L881,-214Z" fill="#b9d7eb" stroke="#b9d7eb" stroke-width="1.51"/><path d="M744,895L688,1005L900,962Z" fill="#5e97c9" stroke="#5e97c9" stroke-width="1.51"/><path d="M688,667L860,830L876,715Z" fill="#68a7d2" stroke="#68a7d2" stroke-width="1.51"/><path d="M740,1088L628,1272L806,1318Z" fill="#5a82b5" stroke="#5a82b5" stroke-width="1.51"/><path d="M688,667L744,895L860,830Z" fill="#68a5d0" stroke="#68a5d0" stroke-width="1.51"/><path d="M421,-212L549,-201L708,-272Z" fill="#cee3f1" stroke="#cee3f1" stroke-width="1.51"/><path d="M549,-201L545,-52L708,-272Z" fill="#c8dfef" stroke="#c8dfef" stroke-width="1.51"/><path d="M688,667L632,896L744,895Z" fill="#6ea6d0" stroke="#6ea6d0" stroke-width="1.51"/><path d="M708,-272L545,-52L793,9Z" fill="#bfdaec" stroke="#bfdaec" stroke-width="1.51"/><path d="M536,20L715,148L793,9Z" fill="#b5d4e9" stroke="#b5d4e9" stroke-width="1.51"/><path d="M545,-52L536,20L793,9Z" fill="#bdd8eb" stroke="#bdd8eb" stroke-width="1.51"/><path d="M550,347L509,533L710,554Z" fill="#92c2df" stroke="#92c2df" stroke-width="1.51"/><path d="M647,594L688,667L710,554Z" fill="#7fb6d9" stroke="#7fb6d9" stroke-width="1.51"/><path d="M531,1124L628,1272L740,1088Z" fill="#648cbe" stroke="#648cbe" stroke-width="1.51"/><path d="M632,896L688,1005L744,895Z" fill="#689ccc" stroke="#689ccc" stroke-width="1.51"/><path d="M550,347L710,554L748,338Z" fill="#94c4df" stroke="#94c4df" stroke-width="1.51"/><path d="M638,296L550,347L748,338Z" fill="#a0cbe1" stroke="#a0cbe1" stroke-width="1.51"/><path d="M714,270L638,296L748,338Z" fill="#9ec9e2" stroke="#9ec9e2" stroke-width="1.51"/><path d="M688,1005L588,1021L740,1088Z" fill="#6595c6" stroke="#6595c6" stroke-width="1.51"/><path d="M588,1021L531,1124L740,1088Z" fill="#6892c5" stroke="#6892c5" stroke-width="1.51"/><path d="M552,632L632,896L688,667Z" fill="#78b0d5" stroke="#78b0d5" stroke-width="1.51"/><path d="M509,533L647,594L710,554Z" fill="#86bbdc" stroke="#86bbdc" stroke-width="1.51"/><path d="M638,296L714,270L715,148Z" fill="#a5cce3" stroke="#a5cce3" stroke-width="1.51"/><path d="M499,74L638,296L715,148Z" fill="#b1d1e7" stroke="#b1d1e7" stroke-width="1.51"/><path d="M536,20L499,74L715,148Z" fill="#bad6eb" stroke="#bad6eb" stroke-width="1.51"/><path d="M491,397L509,533L550,347Z" fill="#9dc7e2" stroke="#9dc7e2" stroke-width="1.51"/><path d="M552,632L454,881L632,896Z" fill="#7aacd4" stroke="#7aacd4" stroke-width="1.51"/><path d="M632,896L588,1021L688,1005Z" fill="#6a9bca" stroke="#6a9bca" stroke-width="1.51"/><path d="M647,594L552,632L688,667Z" fill="#80b7d9" stroke="#80b7d9" stroke-width="1.51"/><path d="M426,686L454,881L552,632Z" fill="#83b3d9" stroke="#83b3d9" stroke-width="1.51"/><path d="M531,1124L489,1164L628,1272Z" fill="#698bbd" stroke="#698bbd" stroke-width="1.51"/><path d="M499,74L550,347L638,296Z" fill="#aed1e7" stroke="#aed1e7" stroke-width="1.51"/><path d="M509,533L552,632L647,594Z" fill="#88bbdc" stroke="#88bbdc" stroke-width="1.51"/><path d="M499,74L405,313L550,347Z" fill="#b3d2e8" stroke="#b3d2e8" stroke-width="1.51"/><path d="M454,881L588,1021L632,896Z" fill="#72a1cf" stroke="#72a1cf" stroke-width="1.51"/><path d="M489,1164L428,1248L628,1272Z" fill="#6a88b9" stroke="#6a88b9" stroke-width="1.51"/><path d="M432,939L531,1124L588,1021Z" fill="#7199ca" stroke="#7199ca" stroke-width="1.51"/><path d="M454,881L432,939L588,1021Z" fill="#76a1cf" stroke="#76a1cf" stroke-width="1.51"/><path d="M338,277L405,313L499,74Z" fill="#bad5ea" stroke="#bad5ea" stroke-width="1.51"/><path d="M334,87L338,277L499,74Z" fill="#c2d9ee" stroke="#c2d9ee" stroke-width="1.51"/><path d="M421,-76L545,-52L549,-201Z" fill="#cbe0f0" stroke="#cbe0f0" stroke-width="1.51"/><path d="M421,-212L421,-76L549,-201Z" fill="#d0e3f2" stroke="#d0e3f2" stroke-width="1.51"/><path d="M405,313L491,397L550,347Z" fill="#a8cde4" stroke="#a8cde4" stroke-width="1.51"/><path d="M509,533L426,686L552,632Z" fill="#8bbbdd" stroke="#8bbbdd" stroke-width="1.51"/><path d="M421,-76L536,20L545,-52Z" fill="#c7ddee" stroke="#c7ddee" stroke-width="1.51"/><path d="M432,939L489,1164L531,1124Z" fill="#7297c7" stroke="#7297c7" stroke-width="1.51"/><path d="M432,939L312,1013L489,1164Z" fill="#789bcb" stroke="#789bcb" stroke-width="1.51"/><path d="M421,-76L499,74L536,20Z" fill="#c5dcee" stroke="#c5dcee" stroke-width="1.51"/><path d="M312,1013L296,1126L489,1164Z" fill="#7998c9" stroke="#7998c9" stroke-width="1.51"/><path d="M421,-76L334,87L499,74Z" fill="#c8ddef" stroke="#c8ddef" stroke-width="1.51"/><path d="M226,584L426,686L509,533Z" fill="#94bfe0" stroke="#94bfe0" stroke-width="1.51"/><path d="M329,410L226,584L509,533Z" fill="#9ec6e4" stroke="#9ec6e4" stroke-width="1.51"/><path d="M491,397L329,410L509,533Z" fill="#a0c8e3" stroke="#a0c8e3" stroke-width="1.51"/><path d="M426,686L357,898L454,881Z" fill="#83aed7" stroke="#83aed7" stroke-width="1.51"/><path d="M405,313L329,410L491,397Z" fill="#abcee6" stroke="#abcee6" stroke-width="1.51"/><path d="M296,1126L428,1248L489,1164Z" fill="#7490c2" stroke="#7490c2" stroke-width="1.51"/><path d="M226,584L224,625L426,686Z" fill="#96c0e0" stroke="#96c0e0" stroke-width="1.51"/><path d="M357,898L432,939L454,881Z" fill="#7ea6d3" stroke="#7ea6d3" stroke-width="1.51"/><path d="M252,-93L334,87L421,-76Z" fill="#d0e1f3" stroke="#d0e1f3" stroke-width="1.51"/><path d="M252,-93L421,-76L421,-212Z" fill="#d5e5f4" stroke="#d5e5f4" stroke-width="1.51"/><path d="M259,-232L252,-93L421,-212Z" fill="#dae8f6" stroke="#dae8f6" stroke-width="1.51"/><path d="M192,868L357,898L426,686Z" fill="#88b0d8" stroke="#88b0d8" stroke-width="1.51"/><path d="M224,625L192,868L426,686Z" fill="#8fb9dd" stroke="#8fb9dd" stroke-width="1.51"/><path d="M296,1126L271,1256L428,1248Z" fill="#778fc0" stroke="#778fc0" stroke-width="1.51"/><path d="M357,898L312,1013L432,939Z" fill="#7fa4d2" stroke="#7fa4d2" stroke-width="1.51"/><path d="M338,277L329,410L405,313Z" fill="#b2d2e8" stroke="#b2d2e8" stroke-width="1.51"/><path d="M252,-93L199,-67L334,87Z" fill="#d3e3f4" stroke="#d3e3f4" stroke-width="1.51"/><path d="M334,87L117,223L338,277Z" fill="#c4daee" stroke="#c4daee" stroke-width="1.51"/><path d="M192,868L312,1013L357,898Z" fill="#84a8d4" stroke="#84a8d4" stroke-width="1.51"/><path d="M192,868L186,998L312,1013Z" fill="#85a7d3" stroke="#85a7d3" stroke-width="1.51"/><path d="M104,460L226,584L329,410Z" fill="#a7cbe6" stroke="#a7cbe6" stroke-width="1.51"/><path d="M117,223L104,460L329,410Z" fill="#b6d5e9" stroke="#b6d5e9" stroke-width="1.51"/><path d="M73,145L117,223L334,87Z" fill="#cbdff0" stroke="#cbdff0" stroke-width="1.51"/><path d="M117,223L329,410L338,277Z" fill="#b9d6ea" stroke="#b9d6ea" stroke-width="1.51"/><path d="M199,-67L73,145L334,87Z" fill="#d1e2f3" stroke="#d1e2f3" stroke-width="1.51"/><path d="M186,998L296,1126L312,1013Z" fill="#809ece" stroke="#809ece" stroke-width="1.51"/><path d="M45,763L192,868L224,625Z" fill="#93bbde" stroke="#93bbde" stroke-width="1.51"/><path d="M105,1164L271,1256L296,1126Z" fill="#7c94c4" stroke="#7c94c4" stroke-width="1.51"/><path d="M186,998L105,1164L296,1126Z" fill="#819ccb" stroke="#819ccb" stroke-width="1.51"/><path d="M89,622L45,763L224,625Z" fill="#9ac1e1" stroke="#9ac1e1" stroke-width="1.51"/><path d="M104,460L133,565L226,584Z" fill="#a4cae5" stroke="#a4cae5" stroke-width="1.51"/><path d="M143,-223L199,-67L252,-93Z" fill="#dce9f6" stroke="#dce9f6" stroke-width="1.51"/><path d="M143,-223L252,-93L259,-232Z" fill="#deebf7" stroke="#deebf7" stroke-width="1.51"/><path d="M105,1164L102,1306L271,1256Z" fill="#7c90bd" stroke="#7c90bd" stroke-width="1.51"/><path d="M6,289L104,460L117,223Z" fill="#bfdaec" stroke="#bfdaec" stroke-width="1.51"/><path d="M8,103L73,145L199,-67Z" fill="#d5e4f4" stroke="#d5e4f4" stroke-width="1.51"/><path d="M133,565L224,625L226,584Z" fill="#9ec5e3" stroke="#9ec5e3" stroke-width="1.51"/><path d="M133,565L89,622L224,625Z" fill="#9fc5e3" stroke="#9fc5e3" stroke-width="1.51"/><path d="M22,1116L105,1164L186,998Z" fill="#859fcd" stroke="#859fcd" stroke-width="1.51"/><path d="M-3,1043L22,1116L186,998Z" fill="#88a3d0" stroke="#88a3d0" stroke-width="1.51"/><path d="M47,894L186,998L192,868Z" fill="#8aacd7" stroke="#8aacd7" stroke-width="1.51"/><path d="M45,763L47,894L192,868Z" fill="#91b4da" stroke="#91b4da" stroke-width="1.51"/><path d="M143,-223L-84,-93L199,-67Z" fill="#e0ecf7" stroke="#e0ecf7" stroke-width="1.51"/><path d="M-84,-93L8,103L199,-67Z" fill="#dce9f7" stroke="#dce9f7" stroke-width="1.51"/><path d="M45,1252L102,1306L105,1164Z" fill="#8092be" stroke="#8092be" stroke-width="1.51"/><path d="M47,894L-3,1043L186,998Z" fill="#8ba9d5" stroke="#8ba9d5" stroke-width="1.51"/><path d="M6,289L-34,321L104,460Z" fill="#bedaec" stroke="#bedaec" stroke-width="1.51"/><path d="M104,460L40,558L133,565Z" fill="#a7cce7" stroke="#a7cce7" stroke-width="1.51"/><path d="M-43,-245L-84,-93L143,-223Z" fill="#e7f0f9" stroke="#e7f0f9" stroke-width="1.51"/><path d="M40,558L89,622L133,565Z" fill="#a3c8e5" stroke="#a3c8e5" stroke-width="1.51"/><path d="M45,1252L-173,1284L102,1306Z" fill="#8290bb" stroke="#8290bb" stroke-width="1.51"/><path d="M73,145L6,289L117,223Z" fill="#cadff0" stroke="#cadff0" stroke-width="1.51"/><path d="M22,1116L45,1252L105,1164Z" fill="#8398c7" stroke="#8398c7" stroke-width="1.51"/><path d="M-34,321L40,558L104,460Z" fill="#b3d3e9" stroke="#b3d3e9" stroke-width="1.51"/><path d="M40,558L45,763L89,622Z" fill="#9fc4e3" stroke="#9fc4e3" stroke-width="1.51"/><path d="M-106,252L6,289L8,103Z" fill="#cee2f1" stroke="#cee2f1" stroke-width="1.51"/><path d="M-189,720L-108,791L40,558Z" fill="#a2c6e3" stroke="#a2c6e3" stroke-width="1.51"/><path d="M40,558L-108,791L45,763Z" fill="#9ec3e1" stroke="#9ec3e1" stroke-width="1.51"/><path d="M8,103L6,289L73,145Z" fill="#cfe2f1" stroke="#cfe2f1" stroke-width="1.51"/><path d="M-84,-93L-106,91L8,103Z" fill="#dde9f7" stroke="#dde9f7" stroke-width="1.51"/><path d="M-221,521L-189,720L40,558Z" fill="#abcde7" stroke="#abcde7" stroke-width="1.51"/><path d="M-34,321L-221,521L40,558Z" fill="#b5d5ea" stroke="#b5d5ea" stroke-width="1.51"/><path d="M22,1116L-173,1284L45,1252Z" fill="#8697c3" stroke="#8697c3" stroke-width="1.51"/><path d="M45,763L-108,791L47,894Z" fill="#96b9dd" stroke="#96b9dd" stroke-width="1.51"/><path d="M-108,791L-3,1043L47,894Z" fill="#92b1d9" stroke="#92b1d9" stroke-width="1.51"/><path d="M-108,791L-216,1014L-3,1043Z" fill="#94b0d9" stroke="#94b0d9" stroke-width="1.51"/><path d="M-96,-89L-106,91L-84,-93Z" fill="#e2edf8" stroke="#e2edf8" stroke-width="1.51"/><path d="M-167,320L-221,521L-34,321Z" fill="#c2dced" stroke="#c2dced" stroke-width="1.51"/><path d="M-106,91L-106,252L8,103Z" fill="#d6e5f4" stroke="#d6e5f4" stroke-width="1.51"/><path d="M-3,1043L-190,1081L22,1116Z" fill="#8da3cf" stroke="#8da3cf" stroke-width="1.51"/><path d="M-190,1081L-173,1284L22,1116Z" fill="#8c9ecc" stroke="#8c9ecc" stroke-width="1.51"/><path d="M-106,252L-34,321L6,289Z" fill="#c7dfef" stroke="#c7dfef" stroke-width="1.51"/><path d="M-216,1014L-190,1081L-3,1043Z" fill="#91a8d3" stroke="#91a8d3" stroke-width="1.51"/><path d="M-198,-136L-96,-89L-84,-93Z" fill="#e8f1fa" stroke="#e8f1fa" stroke-width="1.51"/><path d="M-198,-136L-84,-93L-43,-245Z" fill="#eaf2fb" stroke="#eaf2fb" stroke-width="1.51"/><path d="M-106,252L-167,320L-34,321Z" fill="#c9e0ef" stroke="#c9e0ef" stroke-width="1.51"/><path d="M-198,-136L-106,91L-96,-89Z" fill="#e4eef9" stroke="#e4eef9" stroke-width="1.51"/><path d="M-189,720L-216,1014L-108,791Z" fill="#9cbbde" stroke="#9cbbde" stroke-width="1.51"/><path d="M-106,91L-167,320L-106,252Z" fill="#d1e4f2" stroke="#d1e4f2" stroke-width="1.51"/><path d="M-198,-136L-167,320L-106,91Z" fill="#ddeaf7" stroke="#ddeaf7" stroke-width="1.51"/><path d="M-198,-136L-221,521L-167,320Z" fill="#d2e5f3" stroke="#d2e5f3" stroke-width="1.51"/><path d="M-190,1081L-216,1014L-173,1284Z" fill="#91a3cf" stroke="#91a3cf" stroke-width="1.51"/><path d="M-221,521L-216,1014L-189,720Z" fill="#a3c4e2" stroke="#a3c4e2" stroke-width="1.51"/></svg>