<svg xmlns="http://www.w3.org/2000/svg" width="1920" height="1080"><path d="M-43,-245L259,-232L708,-272Z" fill="#dce8f1" stroke="#dce8f1" stroke-width="1.51"/><path d="M806,1318L102,1306L890,1334Z" fill="#836796" stroke="#836796" stroke-width="1.51"/><path d="M890,1334L102,1306L960,1347Z" fill="#7f6594" stroke="#7f6594" stroke-width="1.51"/><path d="M708,-272L1212,-258L1582,-278Z" fill="#c1b8d9" stroke="#c1b8d9" stroke-width="1.51"/><path d="M1985,1006L1985,1116L2124,1166Z" fill="#731572" stroke="#731572" stroke-width="1.51"/><path d="M1985,1006L2124,1166L2126,931Z" fill="#701c73" stroke="#701c73" stroke-width="1.51"/><path d="M1582,-278L1888,-156L2130,-157Z" fill="#ba89b9" stroke="#ba89b9" stroke-width="1.51"/><path d="M1888,-156L1915,-132L2130,-157Z" fill="#ad82ad" stroke="#ad82ad" stroke-width="1.51"/><path d="M1987,308L2022,386L2141,264Z" fill="#856899" stroke="#856899" stroke-width="1.51"/><path d="M2022,386L2072,490L2141,264Z" fill="#7f6295" stroke="#7f6295" stroke-width="1.51"/><path d="M2130,-157L2052,-69L2141,264Z" fill="#96759d" stroke="#96759d" stroke-width="1.51"/><path d="M2052,-69L2012,134L2141,264Z" fill="#92719e" stroke="#92719e" stroke-width="1.51"/><path d="M1870,1264L1680,1334L2148,1295Z" fill="#6b0768" stroke="#6b0768" stroke-width="1.51"/><path d="M2124,1166L1985,1116L2148,1295Z" fill="#680665" stroke="#680665" stroke-width="1.51"/><path d="M1985,1116L1870,1264L2148,1295Z" fill="#6c0768" stroke="#6c0768" stroke-width="1.51"/><path d="M2126,931L2124,1166L2148,1295Z" fill="#6a0c67" stroke="#6a0c67" stroke-width="1.51"/><path d="M1999,841L2126,931L2150,791Z" fill="#71317d" stroke="#71317d" stroke-width="1.51"/><path d="M2076,704L1999,841L2150,791Z" fill="#743a82" stroke="#743a82" stroke-width="1.51"/><path d="M2141,264L2072,490L2150,791Z" fill="#74548a" stroke="#74548a" stroke-width="1.51"/><path d="M2072,490L2076,704L2150,791Z" fill="#744686" stroke="#744686" stroke-width="1.51"/><path d="M2126,931L2148,1295L2150,791Z" fill="#6b1e70" stroke="#6b1e70" stroke-width="1.51"/><path d="M2072,490L1920,561L2076,704Z" fill="#7c5190" stroke="#7c5190" stroke-width="1.51"/><path d="M2012,134L1987,308L2141,264Z" fill="#8c6c9c" stroke="#8c6c9c" stroke-width="1.51"/><path d="M1915,-132L2052,-69L2130,-157Z" fill="#a67fa8" stroke="#a67fa8" stroke-width="1.51"/><path d="M1999,841L1985,1006L2126,931Z" fill="#762a7f" stroke="#762a7f" stroke-width="1.51"/><path d="M1432,1259L960,1347L1680,1334Z" fill="#73367f" stroke="#73367f" stroke-width="1.51"/><path d="M1885,69L2012,134L2052,-69Z" fill="#9f79a8" stroke="#9f79a8" stroke-width="1.51"/><path d="M1865,627L1999,841L2076,704Z" fill="#7e438d" stroke="#7e438d" stroke-width="1.51"/><path d="M1920,561L1865,627L2076,704Z" fill="#824f94" stroke="#824f94" stroke-width="1.51"/><path d="M1582,-278L1796,-145L1888,-156Z" fill="#bc8fbf" stroke="#bc8fbf" stroke-width="1.51"/><path d="M2022,386L1888,429L2072,490Z" fill="#84609a" stroke="#84609a" stroke-width="1.51"/><path d="M1888,429L1920,561L2072,490Z" fill="#845d9a" stroke="#845d9a" stroke-width="1.51"/><path d="M1915,-132L1885,69L2052,-69Z" fill="#a97fae" stroke="#a97fae" stroke-width="1.51"/><path d="M1865,627L1781,796L1999,841Z" fill="#864394" stroke="#864394" stroke-width="1.51"/><path d="M1848,1000L1985,1006L1999,841Z" fill="#7d2a85" stroke="#7d2a85" stroke-width="1.51"/><path d="M1783,237L1987,308L2012,134Z" fill="#9772a7" stroke="#9772a7" stroke-width="1.51"/><path d="M1885,69L1783,237L2012,134Z" fill="#a177ac" stroke="#a177ac" stroke-width="1.51"/><path d="M1987,308L1888,429L2022,386Z" fill="#8a679f" stroke="#8a679f" stroke-width="1.51"/><path d="M1848,1000L1985,1116L1985,1006Z" fill="#7c207f" stroke="#7c207f" stroke-width="1.51"/><path d="M1781,796L1848,1000L1999,841Z" fill="#85358e" stroke="#85358e" stroke-width="1.51"/><path d="M1796,1175L1870,1264L1985,1116Z" fill="#7b0d77" stroke="#7b0d77" stroke-width="1.51"/><path d="M1849,403L1888,429L1987,308Z" fill="#8f69a4" stroke="#8f69a4" stroke-width="1.51"/><path d="M1783,237L1849,403L1987,308Z" fill="#9670aa" stroke="#9670aa" stroke-width="1.51"/><path d="M1848,1000L1796,1175L1985,1116Z" fill="#811a7f" stroke="#811a7f" stroke-width="1.51"/><path d="M1133,1272L960,1347L1432,1259Z" fill="#784488" stroke="#784488" stroke-width="1.51"/><path d="M1791,-84L1786,35L1885,69Z" fill="#ae83b6" stroke="#ae83b6" stroke-width="1.51"/><path d="M1888,-156L1791,-84L1915,-132Z" fill="#b686b7" stroke="#b686b7" stroke-width="1.51"/><path d="M1791,-84L1885,69L1915,-132Z" fill="#b283b5" stroke="#b283b5" stroke-width="1.51"/><path d="M1888,429L1719,564L1920,561Z" fill="#8d60a2" stroke="#8d60a2" stroke-width="1.51"/><path d="M1719,564L1865,627L1920,561Z" fill="#8b59a0" stroke="#8b59a0" stroke-width="1.51"/><path d="M1849,403L1719,564L1888,429Z" fill="#9066a6" stroke="#9066a6" stroke-width="1.51"/><path d="M1719,748L1781,796L1865,627Z" fill="#894c9b" stroke="#894c9b" stroke-width="1.51"/><path d="M1736,1245L1680,1334L1870,1264Z" fill="#731572" stroke="#731572" stroke-width="1.51"/><path d="M1786,35L1783,237L1885,69Z" fill="#a67db3" stroke="#a67db3" stroke-width="1.51"/><path d="M1796,-145L1791,-84L1888,-156Z" fill="#b889ba" stroke="#b889ba" stroke-width="1.51"/><path d="M1781,796L1650,969L1848,1000Z" fill="#873793" stroke="#873793" stroke-width="1.51"/><path d="M1796,1175L1736,1245L1870,1264Z" fill="#791476" stroke="#791476" stroke-width="1.51"/><path d="M1719,564L1719,748L1865,627Z" fill="#8b56a0" stroke="#8b56a0" stroke-width="1.51"/><path d="M1646,168L1783,237L1786,35Z" fill="#a480b6" stroke="#a480b6" stroke-width="1.51"/><path d="M1650,969L1796,1175L1848,1000Z" fill="#85298a" stroke="#85298a" stroke-width="1.51"/><path d="M1783,237L1616,426L1849,403Z" fill="#9574af" stroke="#9574af" stroke-width="1.51"/><path d="M1616,426L1719,564L1849,403Z" fill="#906bab" stroke="#906bab" stroke-width="1.51"/><path d="M1604,841L1650,969L1781,796Z" fill="#88439a" stroke="#88439a" stroke-width="1.51"/><path d="M1555,298L1616,426L1783,237Z" fill="#977bb7" stroke="#977bb7" stroke-width="1.51"/><path d="M1658,-9L1646,168L1786,35Z" fill="#ab86bc" stroke="#ab86bc" stroke-width="1.51"/><path d="M1658,-9L1786,35L1791,-84Z" fill="#b188bb" stroke="#b188bb" stroke-width="1.51"/><path d="M1658,-9L1791,-84L1796,-145Z" fill="#b58bbd" stroke="#b58bbd" stroke-width="1.51"/><path d="M1538,-102L1658,-9L1796,-145Z" fill="#b691c2" stroke="#b691c2" stroke-width="1.51"/><path d="M1582,-278L1538,-102L1796,-145Z" fill="#bb95c6" stroke="#bb95c6" stroke-width="1.51"/><path d="M1608,1194L1736,1245L1796,1175Z" fill="#7d1e7e" stroke="#7d1e7e" stroke-width="1.51"/><path d="M1650,969L1608,1194L1796,1175Z" fill="#852889" stroke="#852889" stroke-width="1.51"/><path d="M1719,748L1604,841L1781,796Z" fill="#894a9c" stroke="#894a9c" stroke-width="1.51"/><path d="M1646,168L1555,298L1783,237Z" fill="#9e7fb9" stroke="#9e7fb9" stroke-width="1.51"/><path d="M1616,426L1608,510L1719,564Z" fill="#8e6cae" stroke="#8e6cae" stroke-width="1.51"/><path d="M1606,715L1719,748L1719,564Z" fill="#8b58a3" stroke="#8b58a3" stroke-width="1.51"/><path d="M1212,-258L1439,-222L1582,-278Z" fill="#c0a6d1" stroke="#c0a6d1" stroke-width="1.51"/><path d="M1608,1194L1680,1334L1736,1245Z" fill="#761f7a" stroke="#761f7a" stroke-width="1.51"/><path d="M1560,42L1646,168L1658,-9Z" fill="#ab8ac0" stroke="#ab8ac0" stroke-width="1.51"/><path d="M1606,715L1604,841L1719,748Z" fill="#8a50a1" stroke="#8a50a1" stroke-width="1.51"/><path d="M1608,510L1606,715L1719,564Z" fill="#8c62aa" stroke="#8c62aa" stroke-width="1.51"/><path d="M1495,955L1608,1194L1650,969Z" fill="#873794" stroke="#873794" stroke-width="1.51"/><path d="M1608,1194L1432,1259L1680,1334Z" fill="#77277f" stroke="#77277f" stroke-width="1.51"/><path d="M1495,955L1417,1154L1608,1194Z" fill="#863793" stroke="#863793" stroke-width="1.51"/><path d="M1524,720L1606,715L1608,510Z" fill="#8c61ab" stroke="#8c61ab" stroke-width="1.51"/><path d="M1604,841L1495,955L1650,969Z" fill="#89439d" stroke="#89439d" stroke-width="1.51"/><path d="M1534,21L1560,42L1658,-9Z" fill="#af8fc3" stroke="#af8fc3" stroke-width="1.51"/><path d="M1538,-102L1534,21L1658,-9Z" fill="#b392c6" stroke="#b392c6" stroke-width="1.51"/><path d="M1560,42L1555,298L1646,168Z" fill="#a387bf" stroke="#a387bf" stroke-width="1.51"/><path d="M1439,-222L1538,-102L1582,-278Z" fill="#bd9dcc" stroke="#bd9dcc" stroke-width="1.51"/><path d="M1524,720L1604,841L1606,715Z" fill="#8b55a5" stroke="#8b55a5" stroke-width="1.51"/><path d="M1424,509L1524,720L1608,510Z" fill="#8c6cb1" stroke="#8c6cb1" stroke-width="1.51"/><path d="M1472,421L1608,510L1616,426Z" fill="#9175b5" stroke="#9175b5" stroke-width="1.51"/><path d="M1555,298L1472,421L1616,426Z" fill="#947cb9" stroke="#947cb9" stroke-width="1.51"/><path d="M1285,251L1367,328L1555,298Z" fill="#9a8dc1" stroke="#9a8dc1" stroke-width="1.51"/><path d="M1285,251L1555,298L1560,42Z" fill="#a18dc2" stroke="#a18dc2" stroke-width="1.51"/><path d="M1534,21L1285,251L1560,42Z" fill="#a993c6" stroke="#a993c6" stroke-width="1.51"/><path d="M1524,720L1434,777L1604,841Z" fill="#8b56a7" stroke="#8b56a7" stroke-width="1.51"/><path d="M1417,1154L1432,1259L1608,1194Z" fill="#803189" stroke="#803189" stroke-width="1.51"/><path d="M1472,421L1424,509L1608,510Z" fill="#8f77b6" stroke="#8f77b6" stroke-width="1.51"/><path d="M1434,777L1495,955L1604,841Z" fill="#8a4fa3" stroke="#8a4fa3" stroke-width="1.51"/><path d="M1266,98L1285,251L1534,21Z" fill="#a797c8" stroke="#a797c8" stroke-width="1.51"/><path d="M628,1272L102,1306L806,1318Z" fill="#8a6b9b" stroke="#8a6b9b" stroke-width="1.51"/><path d="M1424,509L1346,682L1524,720Z" fill="#8c6bb1" stroke="#8c6bb1" stroke-width="1.51"/><path d="M1352,-23L1266,98L1534,21Z" fill="#ae9cca" stroke="#ae9cca" stroke-width="1.51"/><path d="M1352,-23L1534,21L1538,-102Z" fill="#b39aca" stroke="#b39aca" stroke-width="1.51"/><path d="M1367,328L1472,421L1555,298Z" fill="#9685be" stroke="#9685be" stroke-width="1.51"/><path d="M708,-272L881,-214L1212,-258Z" fill="#c1c8e1" stroke="#c1c8e1" stroke-width="1.51"/><path d="M1434,777L1372,933L1495,955Z" fill="#8a51a4" stroke="#8a51a4" stroke-width="1.51"/><path d="M1439,-222L1352,-23L1538,-102Z" fill="#b89fcd" stroke="#b89fcd" stroke-width="1.51"/><path d="M1330,1215L1133,1272L1432,1259Z" fill="#7c3d89" stroke="#7c3d89" stroke-width="1.51"/><path d="M1316,-163L1352,-23L1439,-222Z" fill="#baa4d0" stroke="#baa4d0" stroke-width="1.51"/><path d="M1372,933L1417,1154L1495,955Z" fill="#88459c" stroke="#88459c" stroke-width="1.51"/><path d="M1346,682L1434,777L1524,720Z" fill="#8b61ac" stroke="#8b61ac" stroke-width="1.51"/><path d="M1372,933L1327,1154L1417,1154Z" fill="#884499" stroke="#884499" stroke-width="1.51"/><path d="M1404,496L1424,509L1472,421Z" fill="#907cb8" stroke="#907cb8" stroke-width="1.51"/><path d="M1367,328L1404,496L1472,421Z" fill="#9382bc" stroke="#9382bc" stroke-width="1.51"/><path d="M1404,496L1346,682L1424,509Z" fill="#8d76b6" stroke="#8d76b6" stroke-width="1.51"/><path d="M1417,1154L1330,1215L1432,1259Z" fill="#81388c" stroke="#81388c" stroke-width="1.51"/><path d="M1283,772L1372,933L1434,777Z" fill="#8b5ca9" stroke="#8b5ca9" stroke-width="1.51"/><path d="M1212,-258L1316,-163L1439,-222Z" fill="#beabd3" stroke="#beabd3" stroke-width="1.51"/><path d="M1230,627L1346,682L1404,496Z" fill="#8d76b6" stroke="#8d76b6" stroke-width="1.51"/><path d="M1346,682L1283,772L1434,777Z" fill="#8c65ae" stroke="#8c65ae" stroke-width="1.51"/><path d="M1327,1154L1330,1215L1417,1154Z" fill="#853d91" stroke="#853d91" stroke-width="1.51"/><path d="M1367,328L1207,340L1404,496Z" fill="#948ac1" stroke="#948ac1" stroke-width="1.51"/><path d="M1207,340L1176,498L1404,496Z" fill="#9189c0" stroke="#9189c0" stroke-width="1.51"/><path d="M1142,1027L1327,1154L1372,933Z" fill="#8a4e9f" stroke="#8a4e9f" stroke-width="1.51"/><path d="M1176,498L1230,627L1404,496Z" fill="#8d80bb" stroke="#8d80bb" stroke-width="1.51"/><path d="M1266,98L1227,156L1285,251Z" fill="#a49cca" stroke="#a49cca" stroke-width="1.51"/><path d="M1194,1210L1133,1272L1330,1215Z" fill="#7f448e" stroke="#7f448e" stroke-width="1.51"/><path d="M1283,772L1166,882L1372,933Z" fill="#8b5fab" stroke="#8b5fab" stroke-width="1.51"/><path d="M1166,882L1142,1027L1372,933Z" fill="#8b5aa8" stroke="#8b5aa8" stroke-width="1.51"/><path d="M1285,251L1207,340L1367,328Z" fill="#9993c5" stroke="#9993c5" stroke-width="1.51"/><path d="M1316,-163L1110,-57L1352,-23Z" fill="#b7aad2" stroke="#b7aad2" stroke-width="1.51"/><path d="M1110,-57L1266,98L1352,-23Z" fill="#b0a7d0" stroke="#b0a7d0" stroke-width="1.51"/><path d="M1230,627L1283,772L1346,682Z" fill="#8d6fb2" stroke="#8d6fb2" stroke-width="1.51"/><path d="M1142,1027L1194,1210L1327,1154Z" fill="#894b9a" stroke="#894b9a" stroke-width="1.51"/><path d="M1327,1154L1194,1210L1330,1215Z" fill="#844191" stroke="#844191" stroke-width="1.51"/><path d="M428,1248L102,1306L628,1272Z" fill="#9471a0" stroke="#9471a0" stroke-width="1.51"/><path d="M1212,-258L1110,-57L1316,-163Z" fill="#bbb0d6" stroke="#bbb0d6" stroke-width="1.51"/><path d="M1110,-57L1102,84L1266,98Z" fill="#adabd2" stroke="#adabd2" stroke-width="1.51"/><path d="M1230,627L1076,774L1283,772Z" fill="#8c72b4" stroke="#8c72b4" stroke-width="1.51"/><path d="M1227,156L1167,199L1285,251Z" fill="#a09dca" stroke="#a09dca" stroke-width="1.51"/><path d="M1167,199L1207,340L1285,251Z" fill="#9c9ac9" stroke="#9c9ac9" stroke-width="1.51"/><path d="M1076,774L1166,882L1283,772Z" fill="#8c6bb1" stroke="#8c6bb1" stroke-width="1.51"/><path d="M1105,631L1076,774L1230,627Z" fill="#8d7cb9" stroke="#8d7cb9" stroke-width="1.51"/><path d="M1102,84L1227,156L1266,98Z" fill="#a7a4ce" stroke="#a7a4ce" stroke-width="1.51"/><path d="M1029,431L1176,498L1207,340Z" fill="#9294c5" stroke="#9294c5" stroke-width="1.51"/><path d="M1039,-142L1110,-57L1212,-258Z" fill="#bbb7d9" stroke="#bbb7d9" stroke-width="1.51"/><path d="M1102,84L1167,199L1227,156Z" fill="#a5a4ce" stroke="#a5a4ce" stroke-width="1.51"/><path d="M1176,498L1105,631L1230,627Z" fill="#8d83bc" stroke="#8d83bc" stroke-width="1.51"/><path d="M881,-214L1039,-142L1212,-258Z" fill="#bdbfdc" stroke="#bdbfdc" stroke-width="1.51"/><path d="M1080,953L1142,1027L1166,882Z" fill="#8c61ab" stroke="#8c61ab" stroke-width="1.51"/><path d="M1142,1027L1008,1087L1194,1210Z" fill="#8b559f" stroke="#8b559f" stroke-width="1.51"/><path d="M1167,199L999,236L1207,340Z" fill="#9ca1cc" stroke="#9ca1cc" stroke-width="1.51"/><path d="M999,236L1029,431L1207,340Z" fill="#96a0cc" stroke="#96a0cc" stroke-width="1.51"/><path d="M1008,1087L1133,1272L1194,1210Z" fill="#864f97" stroke="#864f97" stroke-width="1.51"/><path d="M1029,431L1105,631L1176,498Z" fill="#8e8ec2" stroke="#8e8ec2" stroke-width="1.51"/><path d="M999,236L958,366L1029,431Z" fill="#95a5ce" stroke="#95a5ce" stroke-width="1.51"/><path d="M1029,431L977,469L1105,631Z" fill="#8e93c5" stroke="#8e93c5" stroke-width="1.51"/><path d="M1076,774L1080,953L1166,882Z" fill="#8c6ab0" stroke="#8c6ab0" stroke-width="1.51"/><path d="M1102,84L999,236L1167,199Z" fill="#a3a8d0" stroke="#a3a8d0" stroke-width="1.51"/><path d="M1011,-21L1102,84L1110,-57Z" fill="#b0b3d6" stroke="#b0b3d6" stroke-width="1.51"/><path d="M1008,1087L933,1188L1133,1272Z" fill="#88569b" stroke="#88569b" stroke-width="1.51"/><path d="M1080,953L1008,1087L1142,1027Z" fill="#8c5fa8" stroke="#8c5fa8" stroke-width="1.51"/><path d="M933,1188L960,1347L1133,1272Z" fill="#7c5291" stroke="#7c5291" stroke-width="1.51"/><path d="M259,-232L421,-212L708,-272Z" fill="#d3e1ee" stroke="#d3e1ee" stroke-width="1.51"/><path d="M860,830L900,962L1076,774Z" fill="#8d78b6" stroke="#8d78b6" stroke-width="1.51"/><path d="M1076,774L900,962L1080,953Z" fill="#8c6eb2" stroke="#8c6eb2" stroke-width="1.51"/><path d="M876,715L1076,774L1105,631Z" fill="#8c81bb" stroke="#8c81bb" stroke-width="1.51"/><path d="M1039,-142L1011,-21L1110,-57Z" fill="#b6b9d9" stroke="#b6b9d9" stroke-width="1.51"/><path d="M908,49L999,236L1102,84Z" fill="#a6b1d4" stroke="#a6b1d4" stroke-width="1.51"/><path d="M977,469L876,715L1105,631Z" fill="#8d8ec1" stroke="#8d8ec1" stroke-width="1.51"/><path d="M1011,-21L908,49L1102,84Z" fill="#adb6d7" stroke="#adb6d7" stroke-width="1.51"/><path d="M271,1256L102,1306L428,1248Z" fill="#9a76a3" stroke="#9a76a3" stroke-width="1.51"/><path d="M900,962L1008,1087L1080,953Z" fill="#8c67ac" stroke="#8c67ac" stroke-width="1.51"/><path d="M946,465L876,715L977,469Z" fill="#8d96c6" stroke="#8d96c6" stroke-width="1.51"/><path d="M876,715L860,830L1076,774Z" fill="#8e80bb" stroke="#8e80bb" stroke-width="1.51"/><path d="M908,49L905,232L999,236Z" fill="#a3b3d6" stroke="#a3b3d6" stroke-width="1.51"/><path d="M927,-27L1011,-21L1039,-142Z" fill="#b5bddb" stroke="#b5bddb" stroke-width="1.51"/><path d="M881,-214L927,-27L1039,-142Z" fill="#b9c3de" stroke="#b9c3de" stroke-width="1.51"/><path d="M958,366L977,469L1029,431Z" fill="#919fca" stroke="#919fca" stroke-width="1.51"/><path d="M933,1188L890,1334L960,1347Z" fill="#7b5790" stroke="#7b5790" stroke-width="1.51"/><path d="M958,366L946,465L977,469Z" fill="#91a0cb" stroke="#91a0cb" stroke-width="1.51"/><path d="M905,232L958,366L999,236Z" fill="#9aacd1" stroke="#9aacd1" stroke-width="1.51"/><path d="M927,-27L908,49L1011,-21Z" fill="#b0bcdb" stroke="#b0bcdb" stroke-width="1.51"/><path d="M900,962L933,1188L1008,1087Z" fill="#8c64a8" stroke="#8c64a8" stroke-width="1.51"/><path d="M900,962L740,1088L933,1188Z" fill="#8f69ab" stroke="#8f69ab" stroke-width="1.51"/><path d="M710,554L876,715L946,465Z" fill="#9099c8" stroke="#9099c8" stroke-width="1.51"/><path d="M748,338L946,465L958,366Z" fill="#95a9d0" stroke="#95a9d0" stroke-width="1.51"/><path d="M905,232L748,338L958,366Z" fill="#9aafd3" stroke="#9aafd3" stroke-width="1.51"/><path d="M715,148L905,232L908,49Z" fill="#a8bbda" stroke="#a8bbda" stroke-width="1.51"/><path d="M881,-214L793,9L927,-27Z" fill="#b9c6e0" stroke="#b9c6e0" stroke-width="1.51"/><path d="M806,1318L890,1334L933,1188Z" fill="#7e5a94" stroke="#7e5a94" stroke-width="1.51"/><path d="M748,338L710,554L946,465Z" fill="#95a8cf" stroke="#95a8cf" stroke-width="1.51"/><path d="M740,1088L806,1318L933,1188Z" fill="#8b639f" stroke="#8b639f" stroke-width="1.51"/><path d="M793,9L715,148L908,49Z" fill="#afc1dd" stroke="#afc1dd" stroke-width="1.51"/><path d="M793,9L908,49L927,-27Z" fill="#b2c0dd" stroke="#b2c0dd" stroke-width="1.51"/><path d="M-43,-245L143,-223L259,-232Z" fill="#e5eff6" stroke="#e5eff6" stroke-width="1.51"/><path d="M710,554L688,667L876,715Z" fill="#9397c7" stroke="#9397c7" stroke-width="1.51"/><path d="M860,830L744,895L900,962Z" fill="#917ab8" stroke="#917ab8" stroke-width="1.51"/><path d="M714,270L748,338L905,232Z" fill="#9fb7d7" stroke="#9fb7d7" stroke-width="1.51"/><path d="M688,1005L740,1088L900,962Z" fill="#9373b2" stroke="#9373b2" stroke-width="1.51"/><path d="M715,148L714,270L905,232Z" fill="#a4bbd9" stroke="#a4bbd9" stroke-width="1.51"/><path d="M708,-272L793,9L881,-214Z" fill="#c0cee4" stroke="#c0cee4" stroke-width="1.51"/><path d="M744,895L688,1005L900,962Z" fill="#9379b7" stroke="#9379b7" stroke-width="1.51"/><path d="M688,667L860,830L876,715Z" fill="#928bc1" stroke="#928bc1" stroke-width="1.51"/><path d="M740,1088L628,1272L806,1318Z" fill="#8b67a0" stroke="#8b67a0" stroke-width="1.51"/><path d="M688,667L744,895L860,830Z" fill="#9388bf" stroke="#9388bf" stroke-width="1.51"/><path d="M421,-212L549,-201L708,-272Z" fill="#cddeec" stroke="#cddeec" stroke-width="1.51"/><path d="M549,-201L545,-52L708,-272Z" fill="#c8daea" stroke="#c8daea" stroke-width="1.51"/><path d="M688,667L632,896L744,895Z" fill="#968bc1" stroke="#968bc1" stroke-width="1.51"/><path d="M708,-272L545,-52L793,9Z" fill="#c0d3e7" stroke="#c0d3e7" stroke-width="1.51"/><path d="M536,20L715,148L793,9Z" fill="#b4cae2" stroke="#b4cae2" stroke-width="1.51"/><path d="M545,-52L536,20L793,9Z" fill="#bcd1e5" stroke="#bcd1e5" stroke-width="1.51"/><path d="M550,347L509,533L710,554Z" fill="#9cb1d4" stroke="#9cb1d4" stroke-width="1.51"/><path d="M647,594L688,667L710,554Z" fill="#95a1cc" stroke="#95a1cc" stroke-width="1.51"/><path d="M531,1124L628,1272L740,1088Z" fill="#9770aa" stroke="#9770aa" stroke-width="1.51"/><path d="M632,896L688,1005L744,895Z" fill="#9680bb" stroke="#9680bb" stroke-width="1.51"/><path d="M550,347L710,554L748,338Z" fill="#9ab4d5" stroke="#9ab4d5" stroke-width="1.51"/><path d="M638,296L550,347L748,338Z" fill="#a0bdda" stroke="#a0bdda" stroke-width="1.51"/><path d="M714,270L638,296L748,338Z" fill="#a0bbd9" stroke="#a0bbd9" stroke-width="1.51"/><path d="M688,1005L588,1021L740,1088Z" fill="#9678b4" stroke="#9678b4" stroke-width="1.51"/><path d="M588,1021L531,1124L740,1088Z" fill="#9877b2" stroke="#9877b2" stroke-width="1.51"/><path d="M552,632L632,896L688,667Z" fill="#9896c6" stroke="#9896c6" stroke-width="1.51"/><path d="M509,533L647,594L710,554Z" fill="#97a8d0" stroke="#97a8d0" stroke-width="1.51"/><path d="M638,296L714,270L715,148Z" fill="#a5bfdc" stroke="#a5bfdc" stroke-width="1.51"/><path d="M499,74L638,296L715,148Z" fill="#aec6e0" stroke="#aec6e0" stroke-width="1.51"/><path d="M536,20L499,74L715,148Z" fill="#b7cde3" stroke="#b7cde3" stroke-width="1.51"/><path d="M491,397L509,533L550,347Z" fill="#a2b9d8" stroke="#a2b9d8" stroke-width="1.51"/><path d="M552,632L454,881L632,896Z" fill="#9d92c5" stroke="#9d92c5" stroke-width="1.51"/><path d="M632,896L588,1021L688,1005Z" fill="#987fba" stroke="#987fba" stroke-width="1.51"/><path d="M647,594L552,632L688,667Z" fill="#98a0cc" stroke="#98a0cc" stroke-width="1.51"/><path d="M426,686L454,881L552,632Z" fill="#a09cc9" stroke="#a09cc9" stroke-width="1.51"/><path d="M531,1124L489,1164L628,1272Z" fill="#9871a8" stroke="#9871a8" stroke-width="1.51"/><path d="M499,74L550,347L638,296Z" fill="#abc4df" stroke="#abc4df" stroke-width="1.51"/><path d="M509,533L552,632L647,594Z" fill="#9ba7cf" stroke="#9ba7cf" stroke-width="1.51"/><path d="M499,74L405,313L550,347Z" fill="#afc7e0" stroke="#afc7e0" stroke-width="1.51"/><path d="M454,881L588,1021L632,896Z" fill="#9c86be" stroke="#9c86be" stroke-width="1.51"/><path d="M489,1164L428,1248L628,1272Z" fill="#9470a4" stroke="#9470a4" stroke-width="1.51"/><path d="M432,939L531,1124L588,1021Z" fill="#9e7fb8" stroke="#9e7fb8" stroke-width="1.51"/><path d="M454,881L432,939L588,1021Z" fill="#a086bf" stroke="#a086bf" stroke-width="1.51"/><path d="M338,277L405,313L499,74Z" fill="#b5cbe3" stroke="#b5cbe3" stroke-width="1.51"/><path d="M334,87L338,277L499,74Z" fill="#bcd1e5" stroke="#bcd1e5" stroke-width="1.51"/><path d="M421,-76L545,-52L549,-201Z" fill="#c9dbea" stroke="#c9dbea" stroke-width="1.51"/><path d="M421,-212L421,-76L549,-201Z" fill="#cfdfed" stroke="#cfdfed" stroke-width="1.51"/><path d="M405,313L491,397L550,347Z" fill="#a7c1dd" stroke="#a7c1dd" stroke-width="1.51"/><path d="M509,533L426,686L552,632Z" fill="#9fa7cf" stroke="#9fa7cf" stroke-width="1.51"/><path d="M421,-76L536,20L545,-52Z" fill="#c5d7e8" stroke="#c5d7e8" stroke-width="1.51"/><path d="M432,939L489,1164L531,1124Z" fill="#9f7cb4" stroke="#9f7cb4" stroke-width="1.51"/><path d="M432,939L312,1013L489,1164Z" fill="#a482b9" stroke="#a482b9" stroke-width="1.51"/><path d="M421,-76L499,74L536,20Z" fill="#c2d5e8" stroke="#c2d5e8" stroke-width="1.51"/><path d="M312,1013L296,1126L489,1164Z" fill="#a57fb5" stroke="#a57fb5" stroke-width="1.51"/><path d="M421,-76L334,87L499,74Z" fill="#c4d7e8" stroke="#c4d7e8" stroke-width="1.51"/><path d="M226,584L426,686L509,533Z" fill="#a5acd2" stroke="#a5acd2" stroke-width="1.51"/><path d="M329,410L226,584L509,533Z" fill="#a8b7d7" stroke="#a8b7d7" stroke-width="1.51"/><path d="M491,397L329,410L509,533Z" fill="#a5bad9" stroke="#a5bad9" stroke-width="1.51"/><path d="M426,686L357,898L454,881Z" fill="#a495c7" stroke="#a495c7" stroke-width="1.51"/><path d="M405,313L329,410L491,397Z" fill="#abc2dd" stroke="#abc2dd" stroke-width="1.51"/><path d="M296,1126L428,1248L489,1164Z" fill="#a077ac" stroke="#a077ac" stroke-width="1.51"/><path d="M226,584L224,625L426,686Z" fill="#aaadd3" stroke="#aaadd3" stroke-width="1.51"/><path d="M357,898L432,939L454,881Z" fill="#a48dc2" stroke="#a48dc2" stroke-width="1.51"/><path d="M252,-93L334,87L421,-76Z" fill="#cdddec" stroke="#cdddec" stroke-width="1.51"/><path d="M252,-93L421,-76L421,-212Z" fill="#d2e1ee" stroke="#d2e1ee" stroke-width="1.51"/><path d="M259,-232L252,-93L421,-212Z" fill="#d8e5f0" stroke="#d8e5f0" stroke-width="1.51"/><path d="M192,868L357,898L426,686Z" fill="#a999c9" stroke="#a999c9" stroke-width="1.51"/><path d="M224,625L192,868L426,686Z" fill="#aba4ce" stroke="#aba4ce" stroke-width="1.51"/><path d="M296,1126L271,1256L428,1248Z" fill="#a077aa" stroke="#a077aa" stroke-width="1.51"/><path d="M357,898L312,1013L432,939Z" fill="#a68bc1" stroke="#a68bc1" stroke-width="1.51"/><path d="M338,277L329,410L405,313Z" fill="#afc7e0" stroke="#afc7e0" stroke-width="1.51"/><path d="M252,-93L199,-67L334,87Z" fill="#d1e0ee" stroke="#d1e0ee" stroke-width="1.51"/><path d="M334,87L117,223L338,277Z" fill="#bfd3e6" stroke="#bfd3e6" stroke-width="1.51"/><path d="M192,868L312,1013L357,898Z" fill="#ab90c4" stroke="#ab90c4" stroke-width="1.51"/><path d="M192,868L186,998L312,1013Z" fill="#ad8fc4" stroke="#ad8fc4" stroke-width="1.51"/><path d="M104,460L226,584L329,410Z" fill="#b0bfdc" stroke="#b0bfdc" stroke-width="1.51"/><path d="M117,223L104,460L329,410Z" fill="#b7cce3" stroke="#b7cce3" stroke-width="1.51"/><path d="M73,145L117,223L334,87Z" fill="#c7d9ea" stroke="#c7d9ea" stroke-width="1.51"/><path d="M117,223L329,410L338,277Z" fill="#b7cde4" stroke="#b7cde4" stroke-width="1.51"/><path d="M199,-67L73,145L334,87Z" fill="#cedeec" stroke="#cedeec" stroke-width="1.51"/><path d="M186,998L296,1126L312,1013Z" fill="#ab87bc" stroke="#ab87bc" stroke-width="1.51"/><path d="M45,763L192,868L224,625Z" fill="#b2a6d0" stroke="#b2a6d0" stroke-width="1.51"/><path d="M105,1164L271,1256L296,1126Z" fill="#a97db0" stroke="#a97db0" stroke-width="1.51"/><path d="M186,998L105,1164L296,1126Z" fill="#ae85b9" stroke="#ae85b9" stroke-width="1.51"/><path d="M89,622L45,763L224,625Z" fill="#b3b0d5" stroke="#b3b0d5" stroke-width="1.51"/><path d="M104,460L133,565L226,584Z" fill="#b1bddb" stroke="#b1bddb" stroke-width="1.51"/><path d="M143,-223L199,-67L252,-93Z" fill="#dbe8f2" stroke="#dbe8f2" stroke-width="1.51"/><path d="M143,-223L252,-93L259,-232Z" fill="#dee9f3" stroke="#dee9f3" stroke-width="1.51"/><path d="M105,1164L102,1306L271,1256Z" fill="#a47caa" stroke="#a47caa" stroke-width="1.51"/><path d="M6,289L104,460L117,223Z" fill="#bfd4e7" stroke="#bfd4e7" stroke-width="1.51"/><path d="M8,103L73,145L199,-67Z" fill="#d3e2ef" stroke="#d3e2ef" stroke-width="1.51"/><path d="M133,565L224,625L226,584Z" fill="#afb5d7" stroke="#afb5d7" stroke-width="1.51"/><path d="M133,565L89,622L224,625Z" fill="#b2b6d7" stroke="#b2b6d7" stroke-width="1.51"/><path d="M22,1116L105,1164L186,998Z" fill="#b389bb" stroke="#b389bb" stroke-width="1.51"/><path d="M-3,1043L22,1116L186,998Z" fill="#b58dc0" stroke="#b58dc0" stroke-width="1.51"/><path d="M47,894L186,998L192,868Z" fill="#b296c8" stroke="#b296c8" stroke-width="1.51"/><path d="M45,763L47,894L192,868Z" fill="#b59fcd" stroke="#b59fcd" stroke-width="1.51"/><path d="M143,-223L-84,-93L199,-67Z" fill="#e1edf5" stroke="#e1edf5" stroke-width="1.51"/><path d="M-84,-93L8,103L199,-67Z" fill="#dbe9f2" stroke="#dbe9f2" stroke-width="1.51"/><path d="M45,1252L102,1306L105,1164Z" fill="#a87fab" stroke="#a87fab" stroke-width="1.51"/><path d="M47,894L-3,1043L186,998Z" fill="#b593c6" stroke="#b593c6" stroke-width="1.51"/><path d="M6,289L-34,321L104,460Z" fill="#c0d3e7" stroke="#c0d3e7" stroke-width="1.51"/><path d="M104,460L40,558L133,565Z" fill="#b5c0dc" stroke="#b5c0dc" stroke-width="1.51"/><path d="M-43,-245L-84,-93L143,-223Z" fill="#e8f1f7" stroke="#e8f1f7" stroke-width="1.51"/><path d="M40,558L89,622L133,565Z" fill="#b5bada" stroke="#b5bada" stroke-width="1.51"/><path d="M45,1252L-173,1284L102,1306Z" fill="#a67fa8" stroke="#a67fa8" stroke-width="1.51"/><path d="M73,145L6,289L117,223Z" fill="#c8daea" stroke="#c8daea" stroke-width="1.51"/><path d="M22,1116L45,1252L105,1164Z" fill="#b284b4" stroke="#b284b4" stroke-width="1.51"/><path d="M-34,321L40,558L104,460Z" fill="#bbc9e2" stroke="#bbc9e2" stroke-width="1.51"/><path d="M40,558L45,763L89,622Z" fill="#b7b5d7" stroke="#b7b5d7" stroke-width="1.51"/><path d="M-106,252L6,289L8,103Z" fill="#ccddec" stroke="#ccddec" stroke-width="1.51"/><path d="M-189,720L-108,791L40,558Z" fill="#bcb4d7" stroke="#bcb4d7" stroke-width="1.51"/><path d="M40,558L-108,791L45,763Z" fill="#b9b0d5" stroke="#b9b0d5" stroke-width="1.51"/><path d="M8,103L6,289L73,145Z" fill="#cdddec" stroke="#cdddec" stroke-width="1.51"/><path d="M-84,-93L-106,91L8,103Z" fill="#dce8f2" stroke="#dce8f2" stroke-width="1.51"/><path d="M-221,521L-189,720L40,558Z" fill="#bdbfdc" stroke="#bdbfdc" stroke-width="1.51"/><path d="M-34,321L-221,521L40,558Z" fill="#bfcae2" stroke="#bfcae2" stroke-width="1.51"/><path d="M22,1116L-173,1284L45,1252Z" fill="#b083b1" stroke="#b083b1" stroke-width="1.51"/><path d="M45,763L-108,791L47,894Z" fill="#b9a4d0" stroke="#b9a4d0" stroke-width="1.51"/><path d="M-108,791L-3,1043L47,894Z" fill="#b99ccb" stroke="#b99ccb" stroke-width="1.51"/><path d="M-108,791L-216,1014L-3,1043Z" fill="#bc9bcb" stroke="#bc9bcb" stroke-width="1.51"/><path d="M-96,-89L-106,91L-84,-93Z" fill="#e2edf5" stroke="#e2edf5" stroke-width="1.51"/><path d="M-167,320L-221,521L-34,321Z" fill="#c4d4e7" stroke="#c4d4e7" stroke-width="1.51"/><path d="M-106,91L-106,252L8,103Z" fill="#d3e2ee" stroke="#d3e2ee" stroke-width="1.51"/><path d="M-3,1043L-190,1081L22,1116Z" fill="#ba8ebf" stroke="#ba8ebf" stroke-width="1.51"/><path d="M-190,1081L-173,1284L22,1116Z" fill="#bb89b9" stroke="#bb89b9" stroke-width="1.51"/><path d="M-106,252L-34,321L6,289Z" fill="#c7d9ea" stroke="#c7d9ea" stroke-width="1.51"/><path d="M-216,1014L-190,1081L-3,1043Z" fill="#bd93c3" stroke="#bd93c3" stroke-width="1.51"/><path d="M-198,-136L-96,-89L-84,-93Z" fill="#e8f2f7" stroke="#e8f2f7" stroke-width="1.51"/><path d="M-198,-136L-84,-93L-43,-245Z" fill="#ebf3f8" stroke="#ebf3f8" stroke-width="1.51"/><path d="M-106,252L-167,320L-34,321Z" fill="#c8daea" stroke="#c8daea" stroke-width="1.51"/><path d="M-198,-136L-106,91L-96,-89Z" fill="#e5eff6" stroke="#e5eff6" stroke-width="1.51"/><path d="M-189,720L-216,1014L-108,791Z" fill="#bfa6d1" stroke="#bfa6d1" stroke-width="1.51"/><path d="M-106,91L-167,320L-106,252Z" fill="#cfdfed" stroke="#cfdfed" stroke-width="1.51"/><path d="M-198,-136L-167,320L-106,91Z" fill="#dbe7f1" stroke="#dbe7f1" stroke-width="1.51"/><path d="M-198,-136L-221,521L-167,320Z" fill="#d1e0ee" stroke="#d1e0ee" stroke-width="1.51"/><path d="M-190,1081L-216,1014L-173,1284Z" fill="#be8ebd" stroke="#be8ebd" stroke-width="1.51"/><path d="M-221,521L-216,1014L-189,720Z" fill="#c1b0d6" stroke="#c1b0d6" stroke-width="1.51"/></svg>