<svg xmlns="http://www.w3.org/2000/svg" width="1920" height="1080"><path d="M-43,-245L259,-232L708,-272Z" fill="#aa413e" stroke="#aa413e" stroke-width="1.51"/><path d="M806,1318L102,1306L890,1334Z" fill="#917b8e" stroke="#917b8e" stroke-width="1.51"/><path d="M890,1334L102,1306L960,1347Z" fill="#8f7f93" stroke="#8f7f93" stroke-width="1.51"/><path d="M708,-272L1212,-258L1582,-278Z" fill="#ab7a80" stroke="#ab7a80" stroke-width="1.51"/><path d="M1985,1006L1985,1116L2124,1166Z" fill="#2766a1" stroke="#2766a1" stroke-width="1.51"/><path d="M1985,1006L2124,1166L2126,931Z" fill="#2b699e" stroke="#2b699e" stroke-width="1.51"/><path d="M1582,-278L1888,-156L2130,-157Z" fill="#7b4968" stroke="#7b4968" stroke-width="1.51"/><path d="M1888,-156L1915,-132L2130,-157Z" fill="#7e4160" stroke="#7e4160" stroke-width="1.51"/><path d="M1987,308L2022,386L2141,264Z" fill="#95859a" stroke="#95859a" stroke-width="1.51"/><path d="M2022,386L2072,490L2141,264Z" fill="#918aa1" stroke="#918aa1" stroke-width="1.51"/><path d="M2130,-157L2052,-69L2141,264Z" fill="#83495d" stroke="#83495d" stroke-width="1.51"/><path d="M2052,-69L2012,134L2141,264Z" fill="#8e5f71" stroke="#8e5f71" stroke-width="1.51"/><path d="M1870,1264L1680,1334L2148,1295Z" fill="#1b5796" stroke="#1b5796" stroke-width="1.51"/><path d="M2124,1166L1985,1116L2148,1295Z" fill="#195492" stroke="#195492" stroke-width="1.51"/><path d="M1985,1116L1870,1264L2148,1295Z" fill="#1b5899" stroke="#1b5899" stroke-width="1.51"/><path d="M2126,931L2124,1166L2148,1295Z" fill="#1e568f" stroke="#1e568f" stroke-width="1.51"/><path d="M1999,841L2126,931L2150,791Z" fill="#5980aa" stroke="#5980aa" stroke-width="1.51"/><path d="M2076,704L1999,841L2150,791Z" fill="#6a88b0" stroke="#6a88b0" stroke-width="1.51"/><path d="M2141,264L2072,490L2150,791Z" fill="#898fad" stroke="#898fad" stroke-width="1.51"/><path d="M2072,490L2076,704L2150,791Z" fill="#7b8eb1" stroke="#7b8eb1" stroke-width="1.51"/><path d="M2126,931L2148,1295L2150,791Z" fill="#316696" stroke="#316696" stroke-width="1.51"/><path d="M2072,490L1920,561L2076,704Z" fill="#8b9bbf" stroke="#8b9bbf" stroke-width="1.51"/><path d="M2012,134L1987,308L2141,264Z" fill="#957989" stroke="#957989" stroke-width="1.51"/><path d="M1915,-132L2052,-69L2130,-157Z" fill="#7f3d59" stroke="#7f3d59" stroke-width="1.51"/><path d="M1999,841L1985,1006L2126,931Z" fill="#4c7dad" stroke="#4c7dad" stroke-width="1.51"/><path d="M1432,1259L960,1347L1680,1334Z" fill="#6284ad" stroke="#6284ad" stroke-width="1.51"/><path d="M1885,69L2012,134L2052,-69Z" fill="#925d74" stroke="#925d74" stroke-width="1.51"/><path d="M1865,627L1999,841L2076,704Z" fill="#7c99c3" stroke="#7c99c3" stroke-width="1.51"/><path d="M1920,561L1865,627L2076,704Z" fill="#8ba2ca" stroke="#8ba2ca" stroke-width="1.51"/><path d="M1582,-278L1796,-145L1888,-156Z" fill="#83556d" stroke="#83556d" stroke-width="1.51"/><path d="M2022,386L1888,429L2072,490Z" fill="#9799b7" stroke="#9799b7" stroke-width="1.51"/><path d="M1888,429L1920,561L2072,490Z" fill="#97a2c4" stroke="#97a2c4" stroke-width="1.51"/><path d="M1915,-132L1885,69L2052,-69Z" fill="#8e536e" stroke="#8e536e" stroke-width="1.51"/><path d="M1865,627L1781,796L1999,841Z" fill="#7ca2ce" stroke="#7ca2ce" stroke-width="1.51"/><path d="M1848,1000L1985,1006L1999,841Z" fill="#4c85ba" stroke="#4c85ba" stroke-width="1.51"/><path d="M1783,237L1987,308L2012,134Z" fill="#a1869b" stroke="#a1869b" stroke-width="1.51"/><path d="M1885,69L1783,237L2012,134Z" fill="#a07b8f" stroke="#a07b8f" stroke-width="1.51"/><path d="M1987,308L1888,429L2022,386Z" fill="#9c98b3" stroke="#9c98b3" stroke-width="1.51"/><path d="M1848,1000L1985,1116L1985,1006Z" fill="#3379b4" stroke="#3379b4" stroke-width="1.51"/><path d="M1781,796L1848,1000L1999,841Z" fill="#6297c7" stroke="#6297c7" stroke-width="1.51"/><path d="M1796,1175L1870,1264L1985,1116Z" fill="#276baf" stroke="#276baf" stroke-width="1.51"/><path d="M1849,403L1888,429L1987,308Z" fill="#a09fbc" stroke="#a09fbc" stroke-width="1.51"/><path d="M1783,237L1849,403L1987,308Z" fill="#a49ab1" stroke="#a49ab1" stroke-width="1.51"/><path d="M1848,1000L1796,1175L1985,1116Z" fill="#3178b5" stroke="#3178b5" stroke-width="1.51"/><path d="M1133,1272L960,1347L1432,1259Z" fill="#7c93b8" stroke="#7c93b8" stroke-width="1.51"/><path d="M1791,-84L1786,35L1885,69Z" fill="#9c687d" stroke="#9c687d" stroke-width="1.51"/><path d="M1888,-156L1791,-84L1915,-132Z" fill="#8e506c" stroke="#8e506c" stroke-width="1.51"/><path d="M1791,-84L1885,69L1915,-132Z" fill="#955b74" stroke="#955b74" stroke-width="1.51"/><path d="M1888,429L1719,564L1920,561Z" fill="#9eb1d2" stroke="#9eb1d2" stroke-width="1.51"/><path d="M1719,564L1865,627L1920,561Z" fill="#98b2d5" stroke="#98b2d5" stroke-width="1.51"/><path d="M1849,403L1719,564L1888,429Z" fill="#a1afcc" stroke="#a1afcc" stroke-width="1.51"/><path d="M1719,748L1781,796L1865,627Z" fill="#87aed4" stroke="#87aed4" stroke-width="1.51"/><path d="M1736,1245L1680,1334L1870,1264Z" fill="#2766a0" stroke="#2766a0" stroke-width="1.51"/><path d="M1786,35L1783,237L1885,69Z" fill="#a37c8d" stroke="#a37c8d" stroke-width="1.51"/><path d="M1796,-145L1791,-84L1888,-156Z" fill="#8f536d" stroke="#8f536d" stroke-width="1.51"/><path d="M1781,796L1650,969L1848,1000Z" fill="#5d9cc9" stroke="#5d9cc9" stroke-width="1.51"/><path d="M1796,1175L1736,1245L1870,1264Z" fill="#296cab" stroke="#296cab" stroke-width="1.51"/><path d="M1719,564L1719,748L1865,627Z" fill="#93b5d7" stroke="#93b5d7" stroke-width="1.51"/><path d="M1646,168L1783,237L1786,35Z" fill="#a98b96" stroke="#a98b96" stroke-width="1.51"/><path d="M1650,969L1796,1175L1848,1000Z" fill="#3d89be" stroke="#3d89be" stroke-width="1.51"/><path d="M1783,237L1616,426L1849,403Z" fill="#a9adbe" stroke="#a9adbe" stroke-width="1.51"/><path d="M1616,426L1719,564L1849,403Z" fill="#a6b9d0" stroke="#a6b9d0" stroke-width="1.51"/><path d="M1604,841L1650,969L1781,796Z" fill="#6facd1" stroke="#6facd1" stroke-width="1.51"/><path d="M1555,298L1616,426L1783,237Z" fill="#b1b1bc" stroke="#b1b1bc" stroke-width="1.51"/><path d="M1658,-9L1646,168L1786,35Z" fill="#a77f8a" stroke="#a77f8a" stroke-width="1.51"/><path d="M1658,-9L1786,35L1791,-84Z" fill="#9e6c7d" stroke="#9e6c7d" stroke-width="1.51"/><path d="M1658,-9L1791,-84L1796,-145Z" fill="#996275" stroke="#996275" stroke-width="1.51"/><path d="M1538,-102L1658,-9L1796,-145Z" fill="#9f6a79" stroke="#9f6a79" stroke-width="1.51"/><path d="M1582,-278L1538,-102L1796,-145Z" fill="#906173" stroke="#906173" stroke-width="1.51"/><path d="M1608,1194L1736,1245L1796,1175Z" fill="#3178b5" stroke="#3178b5" stroke-width="1.51"/><path d="M1650,969L1608,1194L1796,1175Z" fill="#3c87be" stroke="#3c87be" stroke-width="1.51"/><path d="M1719,748L1604,841L1781,796Z" fill="#7db0d4" stroke="#7db0d4" stroke-width="1.51"/><path d="M1646,168L1555,298L1783,237Z" fill="#b1a3a9" stroke="#b1a3a9" stroke-width="1.51"/><path d="M1616,426L1608,510L1719,564Z" fill="#acc4d9" stroke="#acc4d9" stroke-width="1.51"/><path d="M1606,715L1719,748L1719,564Z" fill="#94bdda" stroke="#94bdda" stroke-width="1.51"/><path d="M1212,-258L1439,-222L1582,-278Z" fill="#976f79" stroke="#976f79" stroke-width="1.51"/><path d="M1608,1194L1680,1334L1736,1245Z" fill="#3072aa" stroke="#3072aa" stroke-width="1.51"/><path d="M1560,42L1646,168L1658,-9Z" fill="#af878e" stroke="#af878e" stroke-width="1.51"/><path d="M1606,715L1604,841L1719,748Z" fill="#89b9d8" stroke="#89b9d8" stroke-width="1.51"/><path d="M1608,510L1606,715L1719,564Z" fill="#a3c5de" stroke="#a3c5de" stroke-width="1.51"/><path d="M1495,955L1608,1194L1650,969Z" fill="#559cc8" stroke="#559cc8" stroke-width="1.51"/><path d="M1608,1194L1432,1259L1680,1334Z" fill="#447caf" stroke="#447caf" stroke-width="1.51"/><path d="M1495,955L1417,1154L1608,1194Z" fill="#5e9cc9" stroke="#5e9cc9" stroke-width="1.51"/><path d="M1524,720L1606,715L1608,510Z" fill="#a6c9e0" stroke="#a6c9e0" stroke-width="1.51"/><path d="M1604,841L1495,955L1650,969Z" fill="#71aed2" stroke="#71aed2" stroke-width="1.51"/><path d="M1534,21L1560,42L1658,-9Z" fill="#b08289" stroke="#b08289" stroke-width="1.51"/><path d="M1538,-102L1534,21L1658,-9Z" fill="#ad7b84" stroke="#ad7b84" stroke-width="1.51"/><path d="M1560,42L1555,298L1646,168Z" fill="#b99ea1" stroke="#b99ea1" stroke-width="1.51"/><path d="M1439,-222L1538,-102L1582,-278Z" fill="#986a77" stroke="#986a77" stroke-width="1.51"/><path d="M1524,720L1604,841L1606,715Z" fill="#94c1dc" stroke="#94c1dc" stroke-width="1.51"/><path d="M1424,509L1524,720L1608,510Z" fill="#b7d3e5" stroke="#b7d3e5" stroke-width="1.51"/><path d="M1472,421L1608,510L1616,426Z" fill="#b9c9d7" stroke="#b9c9d7" stroke-width="1.51"/><path d="M1555,298L1472,421L1616,426Z" fill="#bec5ce" stroke="#bec5ce" stroke-width="1.51"/><path d="M1285,251L1367,328L1555,298Z" fill="#d1c5c3" stroke="#d1c5c3" stroke-width="1.51"/><path d="M1285,251L1555,298L1560,42Z" fill="#c9b0ac" stroke="#c9b0ac" stroke-width="1.51"/><path d="M1534,21L1285,251L1560,42Z" fill="#c59f9d" stroke="#c59f9d" stroke-width="1.51"/><path d="M1524,720L1434,777L1604,841Z" fill="#98c5df" stroke="#98c5df" stroke-width="1.51"/><path d="M1417,1154L1432,1259L1608,1194Z" fill="#5a8fc2" stroke="#5a8fc2" stroke-width="1.51"/><path d="M1472,421L1424,509L1608,510Z" fill="#c0d2de" stroke="#c0d2de" stroke-width="1.51"/><path d="M1434,777L1495,955L1604,841Z" fill="#8abedb" stroke="#8abedb" stroke-width="1.51"/><path d="M1266,98L1285,251L1534,21Z" fill="#d1a9a4" stroke="#d1a9a4" stroke-width="1.51"/><path d="M628,1272L102,1306L806,1318Z" fill="#947686" stroke="#947686" stroke-width="1.51"/><path d="M1424,509L1346,682L1524,720Z" fill="#bbd9e9" stroke="#bbd9e9" stroke-width="1.51"/><path d="M1352,-23L1266,98L1534,21Z" fill="#c99693" stroke="#c99693" stroke-width="1.51"/><path d="M1352,-23L1534,21L1538,-102Z" fill="#b98588" stroke="#b98588" stroke-width="1.51"/><path d="M1367,328L1472,421L1555,298Z" fill="#c9c9cc" stroke="#c9c9cc" stroke-width="1.51"/><path d="M708,-272L881,-214L1212,-258Z" fill="#be8282" stroke="#be8282" stroke-width="1.51"/><path d="M1434,777L1372,933L1495,955Z" fill="#8fc2dd" stroke="#8fc2dd" stroke-width="1.51"/><path d="M1439,-222L1352,-23L1538,-102Z" fill="#b67b80" stroke="#b67b80" stroke-width="1.51"/><path d="M1330,1215L1133,1272L1432,1259Z" fill="#7194bf" stroke="#7194bf" stroke-width="1.51"/><path d="M1316,-163L1352,-23L1439,-222Z" fill="#b97d81" stroke="#b97d81" stroke-width="1.51"/><path d="M1372,933L1417,1154L1495,955Z" fill="#74b0d3" stroke="#74b0d3" stroke-width="1.51"/><path d="M1346,682L1434,777L1524,720Z" fill="#afd3e6" stroke="#afd3e6" stroke-width="1.51"/><path d="M1372,933L1327,1154L1417,1154Z" fill="#74a9d0" stroke="#74a9d0" stroke-width="1.51"/><path d="M1404,496L1424,509L1472,421Z" fill="#c9d9e2" stroke="#c9d9e2" stroke-width="1.51"/><path d="M1367,328L1404,496L1472,421Z" fill="#ced5da" stroke="#ced5da" stroke-width="1.51"/><path d="M1404,496L1346,682L1424,509Z" fill="#c9e0ec" stroke="#c9e0ec" stroke-width="1.51"/><path d="M1417,1154L1330,1215L1432,1259Z" fill="#6895c5" stroke="#6895c5" stroke-width="1.51"/><path d="M1283,772L1372,933L1434,777Z" fill="#a5cee4" stroke="#a5cee4" stroke-width="1.51"/><path d="M1212,-258L1316,-163L1439,-222Z" fill="#aa787e" stroke="#aa787e" stroke-width="1.51"/><path d="M1230,627L1346,682L1404,496Z" fill="#cde2ee" stroke="#cde2ee" stroke-width="1.51"/><path d="M1346,682L1283,772L1434,777Z" fill="#b6d6e8" stroke="#b6d6e8" stroke-width="1.51"/><path d="M1327,1154L1330,1215L1417,1154Z" fill="#709dca" stroke="#709dca" stroke-width="1.51"/><path d="M1367,328L1207,340L1404,496Z" fill="#dad9d9" stroke="#dad9d9" stroke-width="1.51"/><path d="M1207,340L1176,498L1404,496Z" fill="#dfe2e3" stroke="#dfe2e3" stroke-width="1.51"/><path d="M1142,1027L1327,1154L1372,933Z" fill="#85b5d7" stroke="#85b5d7" stroke-width="1.51"/><path d="M1176,498L1230,627L1404,496Z" fill="#dbe9f1" stroke="#dbe9f1" stroke-width="1.51"/><path d="M1266,98L1227,156L1285,251Z" fill="#dfb9af" stroke="#dfb9af" stroke-width="1.51"/><path d="M1194,1210L1133,1272L1330,1215Z" fill="#7e9bc6" stroke="#7e9bc6" stroke-width="1.51"/><path d="M1283,772L1166,882L1372,933Z" fill="#aad0e5" stroke="#aad0e5" stroke-width="1.51"/><path d="M1166,882L1142,1027L1372,933Z" fill="#9fc7e0" stroke="#9fc7e0" stroke-width="1.51"/><path d="M1285,251L1207,340L1367,328Z" fill="#dfcfca" stroke="#dfcfca" stroke-width="1.51"/><path d="M1316,-163L1110,-57L1352,-23Z" fill="#cd8b8a" stroke="#cd8b8a" stroke-width="1.51"/><path d="M1110,-57L1266,98L1352,-23Z" fill="#d69b95" stroke="#d69b95" stroke-width="1.51"/><path d="M1230,627L1283,772L1346,682Z" fill="#c8dfed" stroke="#c8dfed" stroke-width="1.51"/><path d="M1142,1027L1194,1210L1327,1154Z" fill="#87acd2" stroke="#87acd2" stroke-width="1.51"/><path d="M1327,1154L1194,1210L1330,1215Z" fill="#799fcc" stroke="#799fcc" stroke-width="1.51"/><path d="M428,1248L102,1306L628,1272Z" fill="#946b7d" stroke="#946b7d" stroke-width="1.51"/><path d="M1212,-258L1110,-57L1316,-163Z" fill="#c58485" stroke="#c58485" stroke-width="1.51"/><path d="M1110,-57L1102,84L1266,98Z" fill="#e1a59b" stroke="#e1a59b" stroke-width="1.51"/><path d="M1230,627L1076,774L1283,772Z" fill="#cee3ef" stroke="#cee3ef" stroke-width="1.51"/><path d="M1227,156L1167,199L1285,251Z" fill="#e5c2b6" stroke="#e5c2b6" stroke-width="1.51"/><path d="M1167,199L1207,340L1285,251Z" fill="#e7ccc3" stroke="#e7ccc3" stroke-width="1.51"/><path d="M1076,774L1166,882L1283,772Z" fill="#c0dceb" stroke="#c0dceb" stroke-width="1.51"/><path d="M1105,631L1076,774L1230,627Z" fill="#d9e9f2" stroke="#d9e9f2" stroke-width="1.51"/><path d="M1102,84L1227,156L1266,98Z" fill="#e3b2a7" stroke="#e3b2a7" stroke-width="1.51"/><path d="M1029,431L1176,498L1207,340Z" fill="#ece7e3" stroke="#ece7e3" stroke-width="1.51"/><path d="M1039,-142L1110,-57L1212,-258Z" fill="#cd8887" stroke="#cd8887" stroke-width="1.51"/><path d="M1102,84L1167,199L1227,156Z" fill="#e7baad" stroke="#e7baad" stroke-width="1.51"/><path d="M1176,498L1105,631L1230,627Z" fill="#e2ecf3" stroke="#e2ecf3" stroke-width="1.51"/><path d="M881,-214L1039,-142L1212,-258Z" fill="#c48585" stroke="#c48585" stroke-width="1.51"/><path d="M1080,953L1142,1027L1166,882Z" fill="#a7cae1" stroke="#a7cae1" stroke-width="1.51"/><path d="M1142,1027L1008,1087L1194,1210Z" fill="#93b3d6" stroke="#93b3d6" stroke-width="1.51"/><path d="M1167,199L999,236L1207,340Z" fill="#eed0c3" stroke="#eed0c3" stroke-width="1.51"/><path d="M999,236L1029,431L1207,340Z" fill="#f2ded5" stroke="#f2ded5" stroke-width="1.51"/><path d="M1008,1087L1133,1272L1194,1210Z" fill="#8ca8d0" stroke="#8ca8d0" stroke-width="1.51"/><path d="M1029,431L1105,631L1176,498Z" fill="#ecf0f2" stroke="#ecf0f2" stroke-width="1.51"/><path d="M999,236L958,366L1029,431Z" fill="#f8e2d8" stroke="#f8e2d8" stroke-width="1.51"/><path d="M1029,431L977,469L1105,631Z" fill="#f2f2f2" stroke="#f2f2f2" stroke-width="1.51"/><path d="M1076,774L1080,953L1166,882Z" fill="#bad8e9" stroke="#bad8e9" stroke-width="1.51"/><path d="M1102,84L999,236L1167,199Z" fill="#eec2b3" stroke="#eec2b3" stroke-width="1.51"/><path d="M1011,-21L1102,84L1110,-57Z" fill="#e3a198" stroke="#e3a198" stroke-width="1.51"/><path d="M1008,1087L933,1188L1133,1272Z" fill="#95acd2" stroke="#95acd2" stroke-width="1.51"/><path d="M1080,953L1008,1087L1142,1027Z" fill="#9ec2dd" stroke="#9ec2dd" stroke-width="1.51"/><path d="M933,1188L960,1347L1133,1272Z" fill="#8c9cc0" stroke="#8c9cc0" stroke-width="1.51"/><path d="M259,-232L421,-212L708,-272Z" fill="#b7594d" stroke="#b7594d" stroke-width="1.51"/><path d="M860,830L900,962L1076,774Z" fill="#c9deea" stroke="#c9deea" stroke-width="1.51"/><path d="M1076,774L900,962L1080,953Z" fill="#bcd8e8" stroke="#bcd8e8" stroke-width="1.51"/><path d="M876,715L1076,774L1105,631Z" fill="#dfecf3" stroke="#dfecf3" stroke-width="1.51"/><path d="M1039,-142L1011,-21L1110,-57Z" fill="#dd958e" stroke="#dd958e" stroke-width="1.51"/><path d="M908,49L999,236L1102,84Z" fill="#f1bbab" stroke="#f1bbab" stroke-width="1.51"/><path d="M977,469L876,715L1105,631Z" fill="#eef2f5" stroke="#eef2f5" stroke-width="1.51"/><path d="M1011,-21L908,49L1102,84Z" fill="#eba99d" stroke="#eba99d" stroke-width="1.51"/><path d="M271,1256L102,1306L428,1248Z" fill="#905c71" stroke="#905c71" stroke-width="1.51"/><path d="M900,962L1008,1087L1080,953Z" fill="#a9c8e0" stroke="#a9c8e0" stroke-width="1.51"/><path d="M946,465L876,715L977,469Z" fill="#f7f5f4" stroke="#f7f5f4" stroke-width="1.51"/><path d="M876,715L860,830L1076,774Z" fill="#d9e6ee" stroke="#d9e6ee" stroke-width="1.51"/><path d="M908,49L905,232L999,236Z" fill="#f7c5b2" stroke="#f7c5b2" stroke-width="1.51"/><path d="M927,-27L1011,-21L1039,-142Z" fill="#e39991" stroke="#e39991" stroke-width="1.51"/><path d="M881,-214L927,-27L1039,-142Z" fill="#dd8f89" stroke="#dd8f89" stroke-width="1.51"/><path d="M958,366L977,469L1029,431Z" fill="#f8ece5" stroke="#f8ece5" stroke-width="1.51"/><path d="M933,1188L890,1334L960,1347Z" fill="#8e98b8" stroke="#8e98b8" stroke-width="1.51"/><path d="M958,366L946,465L977,469Z" fill="#faeee7" stroke="#faeee7" stroke-width="1.51"/><path d="M905,232L958,366L999,236Z" fill="#fad8c9" stroke="#fad8c9" stroke-width="1.51"/><path d="M927,-27L908,49L1011,-21Z" fill="#eaa498" stroke="#eaa498" stroke-width="1.51"/><path d="M900,962L933,1188L1008,1087Z" fill="#a2bcd9" stroke="#a2bcd9" stroke-width="1.51"/><path d="M900,962L740,1088L933,1188Z" fill="#a5b8d0" stroke="#a5b8d0" stroke-width="1.51"/><path d="M710,554L876,715L946,465Z" fill="#f5eeea" stroke="#f5eeea" stroke-width="1.51"/><path d="M748,338L946,465L958,366Z" fill="#fce5d9" stroke="#fce5d9" stroke-width="1.51"/><path d="M905,232L748,338L958,366Z" fill="#fbd9c8" stroke="#fbd9c8" stroke-width="1.51"/><path d="M715,148L905,232L908,49Z" fill="#f6b9a4" stroke="#f6b9a4" stroke-width="1.51"/><path d="M881,-214L793,9L927,-27Z" fill="#e39286" stroke="#e39286" stroke-width="1.51"/><path d="M806,1318L890,1334L933,1188Z" fill="#9197b6" stroke="#9197b6" stroke-width="1.51"/><path d="M748,338L710,554L946,465Z" fill="#fce6da" stroke="#fce6da" stroke-width="1.51"/><path d="M740,1088L806,1318L933,1188Z" fill="#9da4c5" stroke="#9da4c5" stroke-width="1.51"/><path d="M793,9L715,148L908,49Z" fill="#f0a894" stroke="#f0a894" stroke-width="1.51"/><path d="M793,9L908,49L927,-27Z" fill="#eba192" stroke="#eba192" stroke-width="1.51"/><path d="M-43,-245L143,-223L259,-232Z" fill="#a0272f" stroke="#a0272f" stroke-width="1.51"/><path d="M710,554L688,667L876,715Z" fill="#efe5e1" stroke="#efe5e1" stroke-width="1.51"/><path d="M860,830L744,895L900,962Z" fill="#c4d2dc" stroke="#c4d2dc" stroke-width="1.51"/><path d="M714,270L748,338L905,232Z" fill="#fbcfba" stroke="#fbcfba" stroke-width="1.51"/><path d="M688,1005L740,1088L900,962Z" fill="#aebccd" stroke="#aebccd" stroke-width="1.51"/><path d="M715,148L714,270L905,232Z" fill="#fac4ab" stroke="#fac4ab" stroke-width="1.51"/><path d="M708,-272L793,9L881,-214Z" fill="#d58379" stroke="#d58379" stroke-width="1.51"/><path d="M744,895L688,1005L900,962Z" fill="#bac6d1" stroke="#bac6d1" stroke-width="1.51"/><path d="M688,667L860,830L876,715Z" fill="#e2e2e2" stroke="#e2e2e2" stroke-width="1.51"/><path d="M740,1088L628,1272L806,1318Z" fill="#9c99b5" stroke="#9c99b5" stroke-width="1.51"/><path d="M688,667L744,895L860,830Z" fill="#d7dadb" stroke="#d7dadb" stroke-width="1.51"/><path d="M421,-212L549,-201L708,-272Z" fill="#bd665a" stroke="#bd665a" stroke-width="1.51"/><path d="M549,-201L545,-52L708,-272Z" fill="#cc6f62" stroke="#cc6f62" stroke-width="1.51"/><path d="M688,667L632,896L744,895Z" fill="#d5d2d1" stroke="#d5d2d1" stroke-width="1.51"/><path d="M708,-272L545,-52L793,9Z" fill="#de8071" stroke="#de8071" stroke-width="1.51"/><path d="M536,20L715,148L793,9Z" fill="#ee9d85" stroke="#ee9d85" stroke-width="1.51"/><path d="M545,-52L536,20L793,9Z" fill="#e68b75" stroke="#e68b75" stroke-width="1.51"/><path d="M550,347L509,533L710,554Z" fill="#fbd5c3" stroke="#fbd5c3" stroke-width="1.51"/><path d="M647,594L688,667L710,554Z" fill="#f4e1d8" stroke="#f4e1d8" stroke-width="1.51"/><path d="M531,1124L628,1272L740,1088Z" fill="#a49ab1" stroke="#a49ab1" stroke-width="1.51"/><path d="M632,896L688,1005L744,895Z" fill="#c0c3c9" stroke="#c0c3c9" stroke-width="1.51"/><path d="M550,347L710,554L748,338Z" fill="#fcd8c5" stroke="#fcd8c5" stroke-width="1.51"/><path d="M638,296L550,347L748,338Z" fill="#fbcab2" stroke="#fbcab2" stroke-width="1.51"/><path d="M714,270L638,296L748,338Z" fill="#fcccb4" stroke="#fcccb4" stroke-width="1.51"/><path d="M688,1005L588,1021L740,1088Z" fill="#adb1bf" stroke="#adb1bf" stroke-width="1.51"/><path d="M588,1021L531,1124L740,1088Z" fill="#aba5b5" stroke="#aba5b5" stroke-width="1.51"/><path d="M552,632L632,896L688,667Z" fill="#e5d3cc" stroke="#e5d3cc" stroke-width="1.51"/><path d="M509,533L647,594L710,554Z" fill="#f9ddd0" stroke="#f9ddd0" stroke-width="1.51"/><path d="M638,296L714,270L715,148Z" fill="#fac1a5" stroke="#fac1a5" stroke-width="1.51"/><path d="M499,74L638,296L715,148Z" fill="#f5ad8f" stroke="#f5ad8f" stroke-width="1.51"/><path d="M536,20L499,74L715,148Z" fill="#ec967b" stroke="#ec967b" stroke-width="1.51"/><path d="M491,397L509,533L550,347Z" fill="#fbc8b0" stroke="#fbc8b0" stroke-width="1.51"/><path d="M552,632L454,881L632,896Z" fill="#d8c3bd" stroke="#d8c3bd" stroke-width="1.51"/><path d="M632,896L588,1021L688,1005Z" fill="#b9b7be" stroke="#b9b7be" stroke-width="1.51"/><path d="M647,594L552,632L688,667Z" fill="#f1dacf" stroke="#f1dacf" stroke-width="1.51"/><path d="M426,686L454,881L552,632Z" fill="#e4c2b6" stroke="#e4c2b6" stroke-width="1.51"/><path d="M531,1124L489,1164L628,1272Z" fill="#a38ea4" stroke="#a38ea4" stroke-width="1.51"/><path d="M499,74L550,347L638,296Z" fill="#f7b393" stroke="#f7b393" stroke-width="1.51"/><path d="M509,533L552,632L647,594Z" fill="#f5d5c7" stroke="#f5d5c7" stroke-width="1.51"/><path d="M499,74L405,313L550,347Z" fill="#f6ab89" stroke="#f6ab89" stroke-width="1.51"/><path d="M454,881L588,1021L632,896Z" fill="#c2b5b6" stroke="#c2b5b6" stroke-width="1.51"/><path d="M489,1164L428,1248L628,1272Z" fill="#9e8397" stroke="#9e8397" stroke-width="1.51"/><path d="M432,939L531,1124L588,1021Z" fill="#b0a1a9" stroke="#b0a1a9" stroke-width="1.51"/><path d="M454,881L432,939L588,1021Z" fill="#bfabab" stroke="#bfabab" stroke-width="1.51"/><path d="M338,277L405,313L499,74Z" fill="#f19e7d" stroke="#f19e7d" stroke-width="1.51"/><path d="M334,87L338,277L499,74Z" fill="#e98b6d" stroke="#e98b6d" stroke-width="1.51"/><path d="M421,-76L545,-52L549,-201Z" fill="#d76c59" stroke="#d76c59" stroke-width="1.51"/><path d="M421,-212L421,-76L549,-201Z" fill="#c96051" stroke="#c96051" stroke-width="1.51"/><path d="M405,313L491,397L550,347Z" fill="#f9bca0" stroke="#f9bca0" stroke-width="1.51"/><path d="M509,533L426,686L552,632Z" fill="#f2ccbc" stroke="#f2ccbc" stroke-width="1.51"/><path d="M421,-76L536,20L545,-52Z" fill="#df7861" stroke="#df7861" stroke-width="1.51"/><path d="M432,939L489,1164L531,1124Z" fill="#ac97a1" stroke="#ac97a1" stroke-width="1.51"/><path d="M432,939L312,1013L489,1164Z" fill="#ac939b" stroke="#ac939b" stroke-width="1.51"/><path d="M421,-76L499,74L536,20Z" fill="#e27d63" stroke="#e27d63" stroke-width="1.51"/><path d="M312,1013L296,1126L489,1164Z" fill="#a68492" stroke="#a68492" stroke-width="1.51"/><path d="M421,-76L334,87L499,74Z" fill="#e0785e" stroke="#e0785e" stroke-width="1.51"/><path d="M226,584L426,686L509,533Z" fill="#efbeaf" stroke="#efbeaf" stroke-width="1.51"/><path d="M329,410L226,584L509,533Z" fill="#f4baa8" stroke="#f4baa8" stroke-width="1.51"/><path d="M491,397L329,410L509,533Z" fill="#f8c1aa" stroke="#f8c1aa" stroke-width="1.51"/><path d="M426,686L357,898L454,881Z" fill="#d2b1aa" stroke="#d2b1aa" stroke-width="1.51"/><path d="M405,313L329,410L491,397Z" fill="#f6b69b" stroke="#f6b69b" stroke-width="1.51"/><path d="M296,1126L428,1248L489,1164Z" fill="#a17d92" stroke="#a17d92" stroke-width="1.51"/><path d="M226,584L224,625L426,686Z" fill="#e8afa3" stroke="#e8afa3" stroke-width="1.51"/><path d="M357,898L432,939L454,881Z" fill="#c4a7a5" stroke="#c4a7a5" stroke-width="1.51"/><path d="M252,-93L334,87L421,-76Z" fill="#d56150" stroke="#d56150" stroke-width="1.51"/><path d="M252,-93L421,-76L421,-212Z" fill="#cb5548" stroke="#cb5548" stroke-width="1.51"/><path d="M259,-232L252,-93L421,-212Z" fill="#bb4840" stroke="#bb4840" stroke-width="1.51"/><path d="M192,868L357,898L426,686Z" fill="#d0a5a0" stroke="#d0a5a0" stroke-width="1.51"/><path d="M224,625L192,868L426,686Z" fill="#dda89f" stroke="#dda89f" stroke-width="1.51"/><path d="M296,1126L271,1256L428,1248Z" fill="#9b6f85" stroke="#9b6f85" stroke-width="1.51"/><path d="M357,898L312,1013L432,939Z" fill="#bb9a9c" stroke="#bb9a9c" stroke-width="1.51"/><path d="M338,277L329,410L405,313Z" fill="#f2a88d" stroke="#f2a88d" stroke-width="1.51"/><path d="M252,-93L199,-67L334,87Z" fill="#d05648" stroke="#d05648" stroke-width="1.51"/><path d="M334,87L117,223L338,277Z" fill="#e68367" stroke="#e68367" stroke-width="1.51"/><path d="M192,868L312,1013L357,898Z" fill="#bc9395" stroke="#bc9395" stroke-width="1.51"/><path d="M192,868L186,998L312,1013Z" fill="#b3878c" stroke="#b3878c" stroke-width="1.51"/><path d="M104,460L226,584L329,410Z" fill="#eda595" stroke="#eda595" stroke-width="1.51"/><path d="M117,223L104,460L329,410Z" fill="#ea9681" stroke="#ea9681" stroke-width="1.51"/><path d="M73,145L117,223L334,87Z" fill="#dc6f59" stroke="#dc6f59" stroke-width="1.51"/><path d="M117,223L329,410L338,277Z" fill="#ec967c" stroke="#ec967c" stroke-width="1.51"/><path d="M199,-67L73,145L334,87Z" fill="#d45e4b" stroke="#d45e4b" stroke-width="1.51"/><path d="M186,998L296,1126L312,1013Z" fill="#a77e8a" stroke="#a77e8a" stroke-width="1.51"/><path d="M45,763L192,868L224,625Z" fill="#d29692" stroke="#d29692" stroke-width="1.51"/><path d="M105,1164L271,1256L296,1126Z" fill="#9a667d" stroke="#9a667d" stroke-width="1.51"/><path d="M186,998L105,1164L296,1126Z" fill="#a06f80" stroke="#a06f80" stroke-width="1.51"/><path d="M89,622L45,763L224,625Z" fill="#da9891" stroke="#da9891" stroke-width="1.51"/><path d="M104,460L133,565L226,584Z" fill="#e9a296" stroke="#e9a296" stroke-width="1.51"/><path d="M143,-223L199,-67L252,-93Z" fill="#bf3b38" stroke="#bf3b38" stroke-width="1.51"/><path d="M143,-223L252,-93L259,-232Z" fill="#b43938" stroke="#b43938" stroke-width="1.51"/><path d="M105,1164L102,1306L271,1256Z" fill="#8e556d" stroke="#8e556d" stroke-width="1.51"/><path d="M6,289L104,460L117,223Z" fill="#e18370" stroke="#e18370" stroke-width="1.51"/><path d="M8,103L73,145L199,-67Z" fill="#cd5145" stroke="#cd5145" stroke-width="1.51"/><path d="M133,565L224,625L226,584Z" fill="#e6a49a" stroke="#e6a49a" stroke-width="1.51"/><path d="M133,565L89,622L224,625Z" fill="#e39f96" stroke="#e39f96" stroke-width="1.51"/><path d="M22,1116L105,1164L186,998Z" fill="#9b6678" stroke="#9b6678" stroke-width="1.51"/><path d="M-3,1043L22,1116L186,998Z" fill="#9c6878" stroke="#9c6878" stroke-width="1.51"/><path d="M47,894L186,998L192,868Z" fill="#b68388" stroke="#b68388" stroke-width="1.51"/><path d="M45,763L47,894L192,868Z" fill="#c08789" stroke="#c08789" stroke-width="1.51"/><path d="M143,-223L-84,-93L199,-67Z" fill="#b72930" stroke="#b72930" stroke-width="1.51"/><path d="M-84,-93L8,103L199,-67Z" fill="#c03a38" stroke="#c03a38" stroke-width="1.51"/><path d="M45,1252L102,1306L105,1164Z" fill="#8a4d67" stroke="#8a4d67" stroke-width="1.51"/><path d="M47,894L-3,1043L186,998Z" fill="#a8737e" stroke="#a8737e" stroke-width="1.51"/><path d="M6,289L-34,321L104,460Z" fill="#df8272" stroke="#df8272" stroke-width="1.51"/><path d="M104,460L40,558L133,565Z" fill="#e59a90" stroke="#e59a90" stroke-width="1.51"/><path d="M-43,-245L-84,-93L143,-223Z" fill="#a31429" stroke="#a31429" stroke-width="1.51"/><path d="M40,558L89,622L133,565Z" fill="#e19891" stroke="#e19891" stroke-width="1.51"/><path d="M45,1252L-173,1284L102,1306Z" fill="#7d3c58" stroke="#7d3c58" stroke-width="1.51"/><path d="M73,145L6,289L117,223Z" fill="#da705b" stroke="#da705b" stroke-width="1.51"/><path d="M22,1116L45,1252L105,1164Z" fill="#915470" stroke="#915470" stroke-width="1.51"/><path d="M-34,321L40,558L104,460Z" fill="#e18d81" stroke="#e18d81" stroke-width="1.51"/><path d="M40,558L45,763L89,622Z" fill="#d9928d" stroke="#d9928d" stroke-width="1.51"/><path d="M-106,252L6,289L8,103Z" fill="#d06655" stroke="#d06655" stroke-width="1.51"/><path d="M-189,720L-108,791L40,558Z" fill="#c28385" stroke="#c28385" stroke-width="1.51"/><path d="M40,558L-108,791L45,763Z" fill="#cf8887" stroke="#cf8887" stroke-width="1.51"/><path d="M8,103L6,289L73,145Z" fill="#d46352" stroke="#d46352" stroke-width="1.51"/><path d="M-84,-93L-106,91L8,103Z" fill="#b93b39" stroke="#b93b39" stroke-width="1.51"/><path d="M-221,521L-189,720L40,558Z" fill="#c48585" stroke="#c48585" stroke-width="1.51"/><path d="M-34,321L-221,521L40,558Z" fill="#d2857f" stroke="#d2857f" stroke-width="1.51"/><path d="M22,1116L-173,1284L45,1252Z" fill="#834565" stroke="#834565" stroke-width="1.51"/><path d="M45,763L-108,791L47,894Z" fill="#bd7e82" stroke="#bd7e82" stroke-width="1.51"/><path d="M-108,791L-3,1043L47,894Z" fill="#ac737c" stroke="#ac737c" stroke-width="1.51"/><path d="M-108,791L-216,1014L-3,1043Z" fill="#956876" stroke="#956876" stroke-width="1.51"/><path d="M-96,-89L-106,91L-84,-93Z" fill="#ac2c31" stroke="#ac2c31" stroke-width="1.51"/><path d="M-167,320L-221,521L-34,321Z" fill="#c57a72" stroke="#c57a72" stroke-width="1.51"/><path d="M-106,91L-106,252L8,103Z" fill="#c45549" stroke="#c45549" stroke-width="1.51"/><path d="M-3,1043L-190,1081L22,1116Z" fill="#8c586f" stroke="#8c586f" stroke-width="1.51"/><path d="M-190,1081L-173,1284L22,1116Z" fill="#7c4a68" stroke="#7c4a68" stroke-width="1.51"/><path d="M-106,252L-34,321L6,289Z" fill="#d27162" stroke="#d27162" stroke-width="1.51"/><path d="M-216,1014L-190,1081L-3,1043Z" fill="#81586e" stroke="#81586e" stroke-width="1.51"/><path d="M-198,-136L-96,-89L-84,-93Z" fill="#9f162a" stroke="#9f162a" stroke-width="1.51"/><path d="M-198,-136L-84,-93L-43,-245Z" fill="#970f27" stroke="#970f27" stroke-width="1.51"/><path d="M-106,252L-167,320L-34,321Z" fill="#c86f62" stroke="#c86f62" stroke-width="1.51"/><path d="M-198,-136L-106,91L-96,-89Z" fill="#a5272f" stroke="#a5272f" stroke-width="1.51"/><path d="M-189,720L-216,1014L-108,791Z" fill="#9c717b" stroke="#9c717b" stroke-width="1.51"/><path d="M-106,91L-167,320L-106,252Z" fill="#c06153" stroke="#c06153" stroke-width="1.51"/><path d="M-198,-136L-167,320L-106,91Z" fill="#af433e" stroke="#af433e" stroke-width="1.51"/><path d="M-198,-136L-221,521L-167,320Z" fill="#b55e53" stroke="#b55e53" stroke-width="1.51"/><path d="M-190,1081L-216,1014L-173,1284Z" fill="#704967" stroke="#704967" stroke-width="1.51"/><path d="M-221,521L-216,1014L-189,720Z" fill="#a3767e" stroke="#a3767e" stroke-width="1.51"/></svg>