<svg xmlns="http://www.w3.org/2000/svg" width="1920" height="1080"><path d="M-90,1609L-529,1606L332,1647Z" fill="#a78b71" stroke="#a78b71" stroke-width="1.51"/><path d="M727,1615L332,1647L1630,1700Z" fill="#85453b" stroke="#85453b" stroke-width="1.51"/><path d="M589,-581L1281,-526L2209,-616Z" fill="#694839" stroke="#694839" stroke-width="1.51"/><path d="M424,-603L589,-581L2209,-616Z" fill="#723d31" stroke="#723d31" stroke-width="1.51"/><path d="M1281,-526L1833,-523L2209,-616Z" fill="#6f5844" stroke="#6f5844" stroke-width="1.51"/><path d="M2029,1523L1630,1700L2410,1701Z" fill="#776250" stroke="#776250" stroke-width="1.51"/><path d="M1950,1122L2029,1523L2413,1058Z" fill="#6c5746" stroke="#6c5746" stroke-width="1.51"/><path d="M2029,1523L2410,1701L2413,1058Z" fill="#77624f" stroke="#77624f" stroke-width="1.51"/><path d="M2028,567L2323,792L2462,331Z" fill="#7b4037" stroke="#7b4037" stroke-width="1.51"/><path d="M2402,-85L1878,24L2462,331Z" fill="#ac6049" stroke="#ac6049" stroke-width="1.51"/><path d="M2462,331L2323,792L2494,701Z" fill="#7c463c" stroke="#7c463c" stroke-width="1.51"/><path d="M2323,792L2413,1058L2494,701Z" fill="#6d4d41" stroke="#6d4d41" stroke-width="1.51"/><path d="M2413,1058L2410,1701L2494,701Z" fill="#715b4a" stroke="#715b4a" stroke-width="1.51"/><path d="M2209,-616L1850,-234L2402,-85Z" fill="#9d8268" stroke="#9d8268" stroke-width="1.51"/><path d="M1878,24L2028,567L2462,331Z" fill="#944b3b" stroke="#944b3b" stroke-width="1.51"/><path d="M2323,792L1950,1122L2413,1058Z" fill="#654f40" stroke="#654f40" stroke-width="1.51"/><path d="M1850,-234L1878,24L2402,-85Z" fill="#a57258" stroke="#a57258" stroke-width="1.51"/><path d="M1833,-523L1850,-234L2209,-616Z" fill="#836b53" stroke="#836b53" stroke-width="1.51"/><path d="M2028,567L1869,1052L2323,792Z" fill="#684538" stroke="#684538" stroke-width="1.51"/><path d="M1869,1052L1950,1122L2323,792Z" fill="#614a3c" stroke="#614a3c" stroke-width="1.51"/><path d="M-560,-438L-73,-475L424,-603Z" fill="#b19173" stroke="#b19173" stroke-width="1.51"/><path d="M1878,24L1729,378L2028,567Z" fill="#8a4334" stroke="#8a4334" stroke-width="1.51"/><path d="M1281,-526L1602,-442L1833,-523Z" fill="#715745" stroke="#715745" stroke-width="1.51"/><path d="M1685,818L1869,1052L2028,567Z" fill="#623f33" stroke="#623f33" stroke-width="1.51"/><path d="M1729,378L1685,818L2028,567Z" fill="#6d342d" stroke="#6d342d" stroke-width="1.51"/><path d="M1950,1122L1617,1216L2029,1523Z" fill="#675240" stroke="#675240" stroke-width="1.51"/><path d="M1617,1216L1630,1700L2029,1523Z" fill="#6a5544" stroke="#6a5544" stroke-width="1.51"/><path d="M1833,-523L1738,-312L1850,-234Z" fill="#8d725a" stroke="#8d725a" stroke-width="1.51"/><path d="M1604,44L1729,378L1878,24Z" fill="#9a4836" stroke="#9a4836" stroke-width="1.51"/><path d="M1869,1052L1617,1216L1950,1122Z" fill="#60493a" stroke="#60493a" stroke-width="1.51"/><path d="M1738,-312L1604,44L1850,-234Z" fill="#9a6f57" stroke="#9a6f57" stroke-width="1.51"/><path d="M1850,-234L1604,44L1878,24Z" fill="#9c634c" stroke="#9c634c" stroke-width="1.51"/><path d="M1465,1034L1617,1216L1685,818Z" fill="#553d31" stroke="#553d31" stroke-width="1.51"/><path d="M1685,818L1617,1216L1869,1052Z" fill="#594134" stroke="#594134" stroke-width="1.51"/><path d="M1602,-442L1738,-312L1833,-523Z" fill="#806650" stroke="#806650" stroke-width="1.51"/><path d="M1617,1216L1271,1453L1630,1700Z" fill="#624c3d" stroke="#624c3d" stroke-width="1.51"/><path d="M1604,44L1132,215L1729,378Z" fill="#893c2e" stroke="#893c2e" stroke-width="1.51"/><path d="M1132,215L1146,428L1729,378Z" fill="#802d28" stroke="#802d28" stroke-width="1.51"/><path d="M1146,428L1685,818L1729,378Z" fill="#652925" stroke="#652925" stroke-width="1.51"/><path d="M1429,-233L1604,44L1738,-312Z" fill="#956a54" stroke="#956a54" stroke-width="1.51"/><path d="M1602,-442L1429,-233L1738,-312Z" fill="#8a6d57" stroke="#8a6d57" stroke-width="1.51"/><path d="M1271,1453L727,1615L1630,1700Z" fill="#72473c" stroke="#72473c" stroke-width="1.51"/><path d="M1031,689L1465,1034L1685,818Z" fill="#583128" stroke="#583128" stroke-width="1.51"/><path d="M1146,428L1031,689L1685,818Z" fill="#662523" stroke="#662523" stroke-width="1.51"/><path d="M1408,1164L1271,1453L1617,1216Z" fill="#5e4336" stroke="#5e4336" stroke-width="1.51"/><path d="M1465,1034L1408,1164L1617,1216Z" fill="#563f32" stroke="#563f32" stroke-width="1.51"/><path d="M1281,-526L1429,-233L1602,-442Z" fill="#7e5f4c" stroke="#7e5f4c" stroke-width="1.51"/><path d="M1429,-233L1079,-7L1604,44Z" fill="#975744" stroke="#975744" stroke-width="1.51"/><path d="M1079,-7L1132,215L1604,44Z" fill="#9b4032" stroke="#9b4032" stroke-width="1.51"/><path d="M905,1440L727,1615L1271,1453Z" fill="#7a3e35" stroke="#7a3e35" stroke-width="1.51"/><path d="M589,-581L814,-443L1281,-526Z" fill="#8a4739" stroke="#8a4739" stroke-width="1.51"/><path d="M1098,1224L1408,1164L1465,1034Z" fill="#5d3b30" stroke="#5d3b30" stroke-width="1.51"/><path d="M983,840L1098,1224L1465,1034Z" fill="#5f322a" stroke="#5f322a" stroke-width="1.51"/><path d="M1031,689L983,840L1465,1034Z" fill="#602a25" stroke="#602a25" stroke-width="1.51"/><path d="M1098,1224L1271,1453L1408,1164Z" fill="#663f33" stroke="#663f33" stroke-width="1.51"/><path d="M1281,-526L1079,-7L1429,-233Z" fill="#9b6b56" stroke="#9b6b56" stroke-width="1.51"/><path d="M814,-443L781,-212L1079,-7Z" fill="#b0614e" stroke="#b0614e" stroke-width="1.51"/><path d="M814,-443L1079,-7L1281,-526Z" fill="#9c5f4d" stroke="#9c5f4d" stroke-width="1.51"/><path d="M1098,1224L905,1440L1271,1453Z" fill="#713e33" stroke="#713e33" stroke-width="1.51"/><path d="M1079,-7L820,72L1132,215Z" fill="#a5322d" stroke="#a5322d" stroke-width="1.51"/><path d="M626,500L1031,689L1146,428Z" fill="#79071d" stroke="#79071d" stroke-width="1.51"/><path d="M1132,215L820,72L1146,428Z" fill="#982426" stroke="#982426" stroke-width="1.51"/><path d="M820,72L626,500L1146,428Z" fill="#981d24" stroke="#981d24" stroke-width="1.51"/><path d="M983,840L646,1179L1098,1224Z" fill="#6e3029" stroke="#6e3029" stroke-width="1.51"/><path d="M761,830L646,1179L983,840Z" fill="#732f27" stroke="#732f27" stroke-width="1.51"/><path d="M646,1179L905,1440L1098,1224Z" fill="#7a3a30" stroke="#7a3a30" stroke-width="1.51"/><path d="M781,-212L820,72L1079,-7Z" fill="#af493d" stroke="#af493d" stroke-width="1.51"/><path d="M761,830L983,840L1031,689Z" fill="#6e2022" stroke="#6e2022" stroke-width="1.51"/><path d="M626,500L761,830L1031,689Z" fill="#7f1e22" stroke="#7f1e22" stroke-width="1.51"/><path d="M646,1179L727,1615L905,1440Z" fill="#894537" stroke="#894537" stroke-width="1.51"/><path d="M646,1179L433,1298L727,1615Z" fill="#964c3a" stroke="#964c3a" stroke-width="1.51"/><path d="M589,-581L781,-212L814,-443Z" fill="#a95d49" stroke="#a95d49" stroke-width="1.51"/><path d="M781,-212L563,29L820,72Z" fill="#bf5040" stroke="#bf5040" stroke-width="1.51"/><path d="M563,29L626,500L820,72Z" fill="#ba312c" stroke="#ba312c" stroke-width="1.51"/><path d="M232,980L646,1179L761,830Z" fill="#8b3e2f" stroke="#8b3e2f" stroke-width="1.51"/><path d="M626,500L429,600L761,830Z" fill="#922626" stroke="#922626" stroke-width="1.51"/><path d="M589,-581L427,-120L781,-212Z" fill="#c77258" stroke="#c77258" stroke-width="1.51"/><path d="M427,-120L563,29L781,-212Z" fill="#cd614a" stroke="#cd614a" stroke-width="1.51"/><path d="M429,600L232,980L761,830Z" fill="#96372d" stroke="#96372d" stroke-width="1.51"/><path d="M433,1298L332,1647L727,1615Z" fill="#a55541" stroke="#a55541" stroke-width="1.51"/><path d="M424,-603L427,-120L589,-581Z" fill="#bd674c" stroke="#bd674c" stroke-width="1.51"/><path d="M563,29L161,348L626,500Z" fill="#c4372f" stroke="#c4372f" stroke-width="1.51"/><path d="M161,348L429,600L626,500Z" fill="#ae2f2c" stroke="#ae2f2c" stroke-width="1.51"/><path d="M232,980L433,1298L646,1179Z" fill="#9c4b37" stroke="#9c4b37" stroke-width="1.51"/><path d="M424,-603L92,-255L427,-120Z" fill="#d28464" stroke="#d28464" stroke-width="1.51"/><path d="M427,-120L161,348L563,29Z" fill="#da533e" stroke="#da533e" stroke-width="1.51"/><path d="M-73,-475L92,-255L424,-603Z" fill="#be8566" stroke="#be8566" stroke-width="1.51"/><path d="M40,282L161,348L427,-120Z" fill="#d75e47" stroke="#d75e47" stroke-width="1.51"/><path d="M92,-255L40,282L427,-120Z" fill="#dc7b5c" stroke="#dc7b5c" stroke-width="1.51"/><path d="M-81,670L232,980L429,600Z" fill="#9d5140" stroke="#9d5140" stroke-width="1.51"/><path d="M36,1259L332,1647L433,1298Z" fill="#a6664e" stroke="#a6664e" stroke-width="1.51"/><path d="M232,980L36,1259L433,1298Z" fill="#9d6049" stroke="#9d6049" stroke-width="1.51"/><path d="M161,348L-81,670L429,600Z" fill="#a94a3d" stroke="#a94a3d" stroke-width="1.51"/><path d="M-81,670L-58,919L232,980Z" fill="#976550" stroke="#976550" stroke-width="1.51"/><path d="M36,1259L-90,1609L332,1647Z" fill="#a87a60" stroke="#a87a60" stroke-width="1.51"/><path d="M-58,919L36,1259L232,980Z" fill="#966952" stroke="#966952" stroke-width="1.51"/><path d="M-334,179L40,282L92,-255Z" fill="#dc8868" stroke="#dc8868" stroke-width="1.51"/><path d="M40,282L-81,670L161,348Z" fill="#b75f4c" stroke="#b75f4c" stroke-width="1.51"/><path d="M-328,605L-81,670L40,282Z" fill="#a7604e" stroke="#a7604e" stroke-width="1.51"/><path d="M-73,-475L-475,-148L92,-255Z" fill="#c9a685" stroke="#c9a685" stroke-width="1.51"/><path d="M-475,-148L-334,179L92,-255Z" fill="#c68a6a" stroke="#c68a6a" stroke-width="1.51"/><path d="M-58,919L-425,1196L36,1259Z" fill="#8f735c" stroke="#8f735c" stroke-width="1.51"/><path d="M-425,1196L-90,1609L36,1259Z" fill="#977d63" stroke="#977d63" stroke-width="1.51"/><path d="M-334,179L-328,605L40,282Z" fill="#b0634d" stroke="#b0634d" stroke-width="1.51"/><path d="M-425,1196L-529,1606L-90,1609Z" fill="#856d56" stroke="#856d56" stroke-width="1.51"/><path d="M-328,605L-415,916L-81,670Z" fill="#875745" stroke="#875745" stroke-width="1.51"/><path d="M-560,-438L-475,-148L-73,-475Z" fill="#a6886a" stroke="#a6886a" stroke-width="1.51"/><path d="M-81,670L-415,916L-58,919Z" fill="#8a6350" stroke="#8a6350" stroke-width="1.51"/><path d="M-415,916L-425,1196L-58,919Z" fill="#795f4b" stroke="#795f4b" stroke-width="1.51"/><path d="M-334,179L-475,-148L-328,605Z" fill="#ac5b44" stroke="#ac5b44" stroke-width="1.51"/><path d="M-475,-148L-415,916L-328,605Z" fill="#8c483a" stroke="#8c483a" stroke-width="1.51"/><path d="M-475,-148L-560,-438L-415,916Z" fill="#a95a41" stroke="#a95a41" stroke-width="1.51"/><path d="M-560,-438L-529,1606L-415,916Z" fill="#6f4033" stroke="#6f4033" stroke-width="1.51"/><path d="M-529,1606L-425,1196L-415,916Z" fill="#715a46" stroke="#715a46" stroke-width="1.51"/></svg>