<svg xmlns="http://www.w3.org/2000/svg" width="1920" height="1080"><path d="M-43,-245L259,-232L708,-272Z" fill="#c05289" stroke="#c05289" stroke-width="1.51"/><path d="M806,1318L102,1306L890,1334Z" fill="#979e7e" stroke="#979e7e" stroke-width="1.51"/><path d="M890,1334L102,1306L960,1347Z" fill="#97a180" stroke="#97a180" stroke-width="1.51"/><path d="M708,-272L1212,-258L1582,-278Z" fill="#c48a93" stroke="#c48a93" stroke-width="1.51"/><path d="M1985,1006L1985,1116L2124,1166Z" fill="#549429" stroke="#549429" stroke-width="1.51"/><path d="M1985,1006L2124,1166L2126,931Z" fill="#59972e" stroke="#59972e" stroke-width="1.51"/><path d="M1582,-278L1888,-156L2130,-157Z" fill="#8e6a4f" stroke="#8e6a4f" stroke-width="1.51"/><path d="M1888,-156L1915,-132L2130,-157Z" fill="#8c644f" stroke="#8c644f" stroke-width="1.51"/><path d="M1987,308L2022,386L2141,264Z" fill="#9ca681" stroke="#9ca681" stroke-width="1.51"/><path d="M2022,386L2072,490L2141,264Z" fill="#9aaa83" stroke="#9aaa83" stroke-width="1.51"/><path d="M2130,-157L2052,-69L2141,264Z" fill="#8c7361" stroke="#8c7361" stroke-width="1.51"/><path d="M2052,-69L2012,134L2141,264Z" fill="#94876e" stroke="#94876e" stroke-width="1.51"/><path d="M1870,1264L1680,1334L2148,1295Z" fill="#438620" stroke="#438620" stroke-width="1.51"/><path d="M2124,1166L1985,1116L2148,1295Z" fill="#418320" stroke="#418320" stroke-width="1.51"/><path d="M1985,1116L1870,1264L2148,1295Z" fill="#43861f" stroke="#43861f" stroke-width="1.51"/><path d="M2126,931L2124,1166L2148,1295Z" fill="#468524" stroke="#468524" stroke-width="1.51"/><path d="M1999,841L2126,931L2150,791Z" fill="#77a953" stroke="#77a953" stroke-width="1.51"/><path d="M2076,704L1999,841L2150,791Z" fill="#83af64" stroke="#83af64" stroke-width="1.51"/><path d="M2141,264L2072,490L2150,791Z" fill="#93ae84" stroke="#93ae84" stroke-width="1.51"/><path d="M2072,490L2076,704L2150,791Z" fill="#8eb178" stroke="#8eb178" stroke-width="1.51"/><path d="M2126,931L2148,1295L2150,791Z" fill="#599433" stroke="#599433" stroke-width="1.51"/><path d="M2072,490L1920,561L2076,704Z" fill="#99b983" stroke="#99b983" stroke-width="1.51"/><path d="M2012,134L1987,308L2141,264Z" fill="#9a9c7d" stroke="#9a9c7d" stroke-width="1.51"/><path d="M1915,-132L2052,-69L2130,-157Z" fill="#8c6151" stroke="#8c6151" stroke-width="1.51"/><path d="M1999,841L1985,1006L2126,931Z" fill="#6fa746" stroke="#6fa746" stroke-width="1.51"/><path d="M1432,1259L960,1347L1680,1334Z" fill="#7dac5d" stroke="#7dac5d" stroke-width="1.51"/><path d="M1885,69L2012,134L2052,-69Z" fill="#99856a" stroke="#99856a" stroke-width="1.51"/><path d="M1865,627L1999,841L2076,704Z" fill="#93bc73" stroke="#93bc73" stroke-width="1.51"/><path d="M1920,561L1865,627L2076,704Z" fill="#9dc081" stroke="#9dc081" stroke-width="1.51"/><path d="M1582,-278L1796,-145L1888,-156Z" fill="#9a7356" stroke="#9a7356" stroke-width="1.51"/><path d="M2022,386L1888,429L2072,490Z" fill="#a1b688" stroke="#a1b688" stroke-width="1.51"/><path d="M1888,429L1920,561L2072,490Z" fill="#a3bd8a" stroke="#a3bd8a" stroke-width="1.51"/><path d="M1915,-132L1885,69L2052,-69Z" fill="#97775e" stroke="#97775e" stroke-width="1.51"/><path d="M1865,627L1781,796L1999,841Z" fill="#98c471" stroke="#98c471" stroke-width="1.51"/><path d="M1848,1000L1985,1006L1999,841Z" fill="#73ae44" stroke="#73ae44" stroke-width="1.51"/><path d="M1783,237L1987,308L2012,134Z" fill="#a5a881" stroke="#a5a881" stroke-width="1.51"/><path d="M1885,69L1783,237L2012,134Z" fill="#a59e7a" stroke="#a59e7a" stroke-width="1.51"/><path d="M1987,308L1888,429L2022,386Z" fill="#a5b587" stroke="#a5b587" stroke-width="1.51"/><path d="M1848,1000L1985,1116L1985,1006Z" fill="#64a430" stroke="#64a430" stroke-width="1.51"/><path d="M1781,796L1848,1000L1999,841Z" fill="#86bc55" stroke="#86bc55" stroke-width="1.51"/><path d="M1796,1175L1870,1264L1985,1116Z" fill="#549725" stroke="#549725" stroke-width="1.51"/><path d="M1849,403L1888,429L1987,308Z" fill="#aabb8a" stroke="#aabb8a" stroke-width="1.51"/><path d="M1783,237L1849,403L1987,308Z" fill="#acb789" stroke="#acb789" stroke-width="1.51"/><path d="M1848,1000L1796,1175L1985,1116Z" fill="#61a32e" stroke="#61a32e" stroke-width="1.51"/><path d="M1133,1272L960,1347L1432,1259Z" fill="#91b577" stroke="#91b577" stroke-width="1.51"/><path d="M1791,-84L1786,35L1885,69Z" fill="#a78c6d" stroke="#a78c6d" stroke-width="1.51"/><path d="M1888,-156L1791,-84L1915,-132Z" fill="#9b7058" stroke="#9b7058" stroke-width="1.51"/><path d="M1791,-84L1885,69L1915,-132Z" fill="#a07e63" stroke="#a07e63" stroke-width="1.51"/><path d="M1888,429L1719,564L1920,561Z" fill="#adca91" stroke="#adca91" stroke-width="1.51"/><path d="M1719,564L1865,627L1920,561Z" fill="#abcb8d" stroke="#abcb8d" stroke-width="1.51"/><path d="M1849,403L1719,564L1888,429Z" fill="#b1c992" stroke="#b1c992" stroke-width="1.51"/><path d="M1719,748L1781,796L1865,627Z" fill="#a6ce7e" stroke="#a6ce7e" stroke-width="1.51"/><path d="M1736,1245L1680,1334L1870,1264Z" fill="#549429" stroke="#549429" stroke-width="1.51"/><path d="M1786,35L1783,237L1885,69Z" fill="#ac9f7b" stroke="#ac9f7b" stroke-width="1.51"/><path d="M1796,-145L1791,-84L1888,-156Z" fill="#9e735a" stroke="#9e735a" stroke-width="1.51"/><path d="M1781,796L1650,969L1848,1000Z" fill="#8ac154" stroke="#8ac154" stroke-width="1.51"/><path d="M1796,1175L1736,1245L1870,1264Z" fill="#579828" stroke="#579828" stroke-width="1.51"/><path d="M1719,564L1719,748L1865,627Z" fill="#aed18a" stroke="#aed18a" stroke-width="1.51"/><path d="M1646,168L1783,237L1786,35Z" fill="#b5ab84" stroke="#b5ab84" stroke-width="1.51"/><path d="M1650,969L1796,1175L1848,1000Z" fill="#74b33b" stroke="#74b33b" stroke-width="1.51"/><path d="M1783,237L1616,426L1849,403Z" fill="#bac793" stroke="#bac793" stroke-width="1.51"/><path d="M1616,426L1719,564L1849,403Z" fill="#bbd198" stroke="#bbd198" stroke-width="1.51"/><path d="M1604,841L1650,969L1781,796Z" fill="#9cce65" stroke="#9cce65" stroke-width="1.51"/><path d="M1555,298L1616,426L1783,237Z" fill="#c3ca9a" stroke="#c3ca9a" stroke-width="1.51"/><path d="M1658,-9L1646,168L1786,35Z" fill="#b6a17d" stroke="#b6a17d" stroke-width="1.51"/><path d="M1658,-9L1786,35L1791,-84Z" fill="#ad8d6e" stroke="#ad8d6e" stroke-width="1.51"/><path d="M1658,-9L1791,-84L1796,-145Z" fill="#aa8266" stroke="#aa8266" stroke-width="1.51"/><path d="M1538,-102L1658,-9L1796,-145Z" fill="#b2876b" stroke="#b2876b" stroke-width="1.51"/><path d="M1582,-278L1538,-102L1796,-145Z" fill="#a97d62" stroke="#a97d62" stroke-width="1.51"/><path d="M1608,1194L1736,1245L1796,1175Z" fill="#62a32f" stroke="#62a32f" stroke-width="1.51"/><path d="M1650,969L1608,1194L1796,1175Z" fill="#73b139" stroke="#73b139" stroke-width="1.51"/><path d="M1719,748L1604,841L1781,796Z" fill="#a5d174" stroke="#a5d174" stroke-width="1.51"/><path d="M1646,168L1555,298L1783,237Z" fill="#c0c094" stroke="#c0c094" stroke-width="1.51"/><path d="M1616,426L1608,510L1719,564Z" fill="#c3d9a1" stroke="#c3d9a1" stroke-width="1.51"/><path d="M1606,715L1719,748L1719,564Z" fill="#b6d98d" stroke="#b6d98d" stroke-width="1.51"/><path d="M1212,-258L1439,-222L1582,-278Z" fill="#b48575" stroke="#b48575" stroke-width="1.51"/><path d="M1608,1194L1680,1334L1736,1245Z" fill="#609f30" stroke="#609f30" stroke-width="1.51"/><path d="M1560,42L1646,168L1658,-9Z" fill="#bea787" stroke="#bea787" stroke-width="1.51"/><path d="M1606,715L1604,841L1719,748Z" fill="#afd881" stroke="#afd881" stroke-width="1.51"/><path d="M1608,510L1606,715L1719,564Z" fill="#bfdc9b" stroke="#bfdc9b" stroke-width="1.51"/><path d="M1495,955L1608,1194L1650,969Z" fill="#8ac34f" stroke="#8ac34f" stroke-width="1.51"/><path d="M1608,1194L1432,1259L1680,1334Z" fill="#6ca53f" stroke="#6ca53f" stroke-width="1.51"/><path d="M1495,955L1417,1154L1608,1194Z" fill="#8ac154" stroke="#8ac154" stroke-width="1.51"/><path d="M1524,720L1606,715L1608,510Z" fill="#c3e19e" stroke="#c3e19e" stroke-width="1.51"/><path d="M1604,841L1495,955L1650,969Z" fill="#9ed068" stroke="#9ed068" stroke-width="1.51"/><path d="M1534,21L1560,42L1658,-9Z" fill="#bfa085" stroke="#bfa085" stroke-width="1.51"/><path d="M1538,-102L1534,21L1658,-9Z" fill="#be987e" stroke="#be987e" stroke-width="1.51"/><path d="M1560,42L1555,298L1646,168Z" fill="#c6bb97" stroke="#c6bb97" stroke-width="1.51"/><path d="M1439,-222L1538,-102L1582,-278Z" fill="#b2836f" stroke="#b2836f" stroke-width="1.51"/><path d="M1524,720L1604,841L1606,715Z" fill="#b8de8c" stroke="#b8de8c" stroke-width="1.51"/><path d="M1424,509L1524,720L1608,510Z" fill="#cee6af" stroke="#cee6af" stroke-width="1.51"/><path d="M1472,421L1608,510L1616,426Z" fill="#cdddab" stroke="#cdddab" stroke-width="1.51"/><path d="M1555,298L1472,421L1616,426Z" fill="#d0d9ac" stroke="#d0d9ac" stroke-width="1.51"/><path d="M1285,251L1367,328L1555,298Z" fill="#ded8bc" stroke="#ded8bc" stroke-width="1.51"/><path d="M1285,251L1555,298L1560,42Z" fill="#d5c9ac" stroke="#d5c9ac" stroke-width="1.51"/><path d="M1534,21L1285,251L1560,42Z" fill="#d1b9a1" stroke="#d1b9a1" stroke-width="1.51"/><path d="M1524,720L1434,777L1604,841Z" fill="#bce18f" stroke="#bce18f" stroke-width="1.51"/><path d="M1417,1154L1432,1259L1608,1194Z" fill="#7db54e" stroke="#7db54e" stroke-width="1.51"/><path d="M1472,421L1424,509L1608,510Z" fill="#d3e3b5" stroke="#d3e3b5" stroke-width="1.51"/><path d="M1434,777L1495,955L1604,841Z" fill="#b2dc7f" stroke="#b2dc7f" stroke-width="1.51"/><path d="M1266,98L1285,251L1534,21Z" fill="#dbc0b2" stroke="#dbc0b2" stroke-width="1.51"/><path d="M628,1272L102,1306L806,1318Z" fill="#989b7c" stroke="#989b7c" stroke-width="1.51"/><path d="M1424,509L1346,682L1524,720Z" fill="#d4ecb5" stroke="#d4ecb5" stroke-width="1.51"/><path d="M1352,-23L1266,98L1534,21Z" fill="#d5afa2" stroke="#d5afa2" stroke-width="1.51"/><path d="M1352,-23L1534,21L1538,-102Z" fill="#c99e8b" stroke="#c99e8b" stroke-width="1.51"/><path d="M1367,328L1472,421L1555,298Z" fill="#d9dcb6" stroke="#d9dcb6" stroke-width="1.51"/><path d="M708,-272L881,-214L1212,-258Z" fill="#cf8aa5" stroke="#cf8aa5" stroke-width="1.51"/><path d="M1434,777L1372,933L1495,955Z" fill="#b6df83" stroke="#b6df83" stroke-width="1.51"/><path d="M1439,-222L1352,-23L1538,-102Z" fill="#c89084" stroke="#c89084" stroke-width="1.51"/><path d="M1330,1215L1133,1272L1432,1259Z" fill="#8cb868" stroke="#8cb868" stroke-width="1.51"/><path d="M1316,-163L1352,-23L1439,-222Z" fill="#cc908c" stroke="#cc908c" stroke-width="1.51"/><path d="M1372,933L1417,1154L1495,955Z" fill="#a0d16a" stroke="#a0d16a" stroke-width="1.51"/><path d="M1346,682L1434,777L1524,720Z" fill="#cdeaa7" stroke="#cdeaa7" stroke-width="1.51"/><path d="M1372,933L1327,1154L1417,1154Z" fill="#9ccb6a" stroke="#9ccb6a" stroke-width="1.51"/><path d="M1404,496L1424,509L1472,421Z" fill="#dbe8be" stroke="#dbe8be" stroke-width="1.51"/><path d="M1367,328L1404,496L1472,421Z" fill="#dee5c0" stroke="#dee5c0" stroke-width="1.51"/><path d="M1404,496L1346,682L1424,509Z" fill="#dceec3" stroke="#dceec3" stroke-width="1.51"/><path d="M1417,1154L1330,1215L1432,1259Z" fill="#87b95c" stroke="#87b95c" stroke-width="1.51"/><path d="M1283,772L1372,933L1434,777Z" fill="#c6e79c" stroke="#c6e79c" stroke-width="1.51"/><path d="M1212,-258L1316,-163L1439,-222Z" fill="#c28b87" stroke="#c28b87" stroke-width="1.51"/><path d="M1230,627L1346,682L1404,496Z" fill="#e0f1c8" stroke="#e0f1c8" stroke-width="1.51"/><path d="M1346,682L1283,772L1434,777Z" fill="#d3ecaf" stroke="#d3ecaf" stroke-width="1.51"/><path d="M1327,1154L1330,1215L1417,1154Z" fill="#8fc063" stroke="#8fc063" stroke-width="1.51"/><path d="M1367,328L1207,340L1404,496Z" fill="#e7e7cd" stroke="#e7e7cd" stroke-width="1.51"/><path d="M1207,340L1176,498L1404,496Z" fill="#ebedd8" stroke="#ebedd8" stroke-width="1.51"/><path d="M1142,1027L1327,1154L1372,933Z" fill="#acd47d" stroke="#acd47d" stroke-width="1.51"/><path d="M1176,498L1230,627L1404,496Z" fill="#e8f3d8" stroke="#e8f3d8" stroke-width="1.51"/><path d="M1266,98L1227,156L1285,251Z" fill="#e6ccc7" stroke="#e6ccc7" stroke-width="1.51"/><path d="M1194,1210L1133,1272L1330,1215Z" fill="#96bd75" stroke="#96bd75" stroke-width="1.51"/><path d="M1283,772L1166,882L1372,933Z" fill="#c9e9a1" stroke="#c9e9a1" stroke-width="1.51"/><path d="M1166,882L1142,1027L1372,933Z" fill="#c0e297" stroke="#c0e297" stroke-width="1.51"/><path d="M1285,251L1207,340L1367,328Z" fill="#e8dfce" stroke="#e8dfce" stroke-width="1.51"/><path d="M1316,-163L1110,-57L1352,-23Z" fill="#da9ca3" stroke="#da9ca3" stroke-width="1.51"/><path d="M1110,-57L1266,98L1352,-23Z" fill="#e0aeb3" stroke="#e0aeb3" stroke-width="1.51"/><path d="M1230,627L1283,772L1346,682Z" fill="#dff2c4" stroke="#dff2c4" stroke-width="1.51"/><path d="M1142,1027L1194,1210L1327,1154Z" fill="#a4cb7d" stroke="#a4cb7d" stroke-width="1.51"/><path d="M1327,1154L1194,1210L1330,1215Z" fill="#94c16d" stroke="#94c16d" stroke-width="1.51"/><path d="M428,1248L102,1306L628,1272Z" fill="#999174" stroke="#999174" stroke-width="1.51"/><path d="M1212,-258L1110,-57L1316,-163Z" fill="#d5939e" stroke="#d5939e" stroke-width="1.51"/><path d="M1110,-57L1102,84L1266,98Z" fill="#e7b7c2" stroke="#e7b7c2" stroke-width="1.51"/><path d="M1230,627L1076,774L1283,772Z" fill="#e4f4cc" stroke="#e4f4cc" stroke-width="1.51"/><path d="M1227,156L1167,199L1285,251Z" fill="#ead4d0" stroke="#ead4d0" stroke-width="1.51"/><path d="M1167,199L1207,340L1285,251Z" fill="#eddcd6" stroke="#eddcd6" stroke-width="1.51"/><path d="M1076,774L1166,882L1283,772Z" fill="#d9efba" stroke="#d9efba" stroke-width="1.51"/><path d="M1105,631L1076,774L1230,627Z" fill="#eaf6d8" stroke="#eaf6d8" stroke-width="1.51"/><path d="M1102,84L1227,156L1266,98Z" fill="#e9c4c8" stroke="#e9c4c8" stroke-width="1.51"/><path d="M1029,431L1176,498L1207,340Z" fill="#f3efe6" stroke="#f3efe6" stroke-width="1.51"/><path d="M1039,-142L1110,-57L1212,-258Z" fill="#da94a7" stroke="#da94a7" stroke-width="1.51"/><path d="M1102,84L1167,199L1227,156Z" fill="#eccad0" stroke="#eccad0" stroke-width="1.51"/><path d="M1176,498L1105,631L1230,627Z" fill="#edf6e0" stroke="#edf6e0" stroke-width="1.51"/><path d="M881,-214L1039,-142L1212,-258Z" fill="#d38fa6" stroke="#d38fa6" stroke-width="1.51"/><path d="M1080,953L1142,1027L1166,882Z" fill="#c4e2a0" stroke="#c4e2a0" stroke-width="1.51"/><path d="M1142,1027L1008,1087L1194,1210Z" fill="#accf89" stroke="#accf89" stroke-width="1.51"/><path d="M1167,199L999,236L1207,340Z" fill="#f1dcde" stroke="#f1dcde" stroke-width="1.51"/><path d="M999,236L1029,431L1207,340Z" fill="#f5e6e7" stroke="#f5e6e7" stroke-width="1.51"/><path d="M1008,1087L1133,1272L1194,1210Z" fill="#a0c581" stroke="#a0c581" stroke-width="1.51"/><path d="M1029,431L1105,631L1176,498Z" fill="#f3f5eb" stroke="#f3f5eb" stroke-width="1.51"/><path d="M999,236L958,366L1029,431Z" fill="#f8e8ee" stroke="#f8e8ee" stroke-width="1.51"/><path d="M1029,431L977,469L1105,631Z" fill="#f5f5f0" stroke="#f5f5f0" stroke-width="1.51"/><path d="M1076,774L1080,953L1166,882Z" fill="#d3ecb3" stroke="#d3ecb3" stroke-width="1.51"/><path d="M1102,84L999,236L1167,199Z" fill="#efcfd9" stroke="#efcfd9" stroke-width="1.51"/><path d="M1011,-21L1102,84L1110,-57Z" fill="#e8afc2" stroke="#e8afc2" stroke-width="1.51"/><path d="M1008,1087L933,1188L1133,1272Z" fill="#a5c689" stroke="#a5c689" stroke-width="1.51"/><path d="M1080,953L1008,1087L1142,1027Z" fill="#bbdb96" stroke="#bbdb96" stroke-width="1.51"/><path d="M933,1188L960,1347L1133,1272Z" fill="#9aba85" stroke="#9aba85" stroke-width="1.51"/><path d="M259,-232L421,-212L708,-272Z" fill="#c96998" stroke="#c96998" stroke-width="1.51"/><path d="M860,830L900,962L1076,774Z" fill="#dbedc2" stroke="#dbedc2" stroke-width="1.51"/><path d="M1076,774L900,962L1080,953Z" fill="#d2e9b4" stroke="#d2e9b4" stroke-width="1.51"/><path d="M876,715L1076,774L1105,631Z" fill="#edf6de" stroke="#edf6de" stroke-width="1.51"/><path d="M1039,-142L1011,-21L1110,-57Z" fill="#e5a0b9" stroke="#e5a0b9" stroke-width="1.51"/><path d="M908,49L999,236L1102,84Z" fill="#f0c7d9" stroke="#f0c7d9" stroke-width="1.51"/><path d="M977,469L876,715L1105,631Z" fill="#f3f7ed" stroke="#f3f7ed" stroke-width="1.51"/><path d="M1011,-21L908,49L1102,84Z" fill="#ecb7cd" stroke="#ecb7cd" stroke-width="1.51"/><path d="M271,1256L102,1306L428,1248Z" fill="#96846b" stroke="#96846b" stroke-width="1.51"/><path d="M900,962L1008,1087L1080,953Z" fill="#c2dea1" stroke="#c2dea1" stroke-width="1.51"/><path d="M946,465L876,715L977,469Z" fill="#f7f6f6" stroke="#f7f6f6" stroke-width="1.51"/><path d="M876,715L860,830L1076,774Z" fill="#e7f1d4" stroke="#e7f1d4" stroke-width="1.51"/><path d="M908,49L905,232L999,236Z" fill="#f4cfe3" stroke="#f4cfe3" stroke-width="1.51"/><path d="M927,-27L1011,-21L1039,-142Z" fill="#e7a2be" stroke="#e7a2be" stroke-width="1.51"/><path d="M881,-214L927,-27L1039,-142Z" fill="#e395b7" stroke="#e395b7" stroke-width="1.51"/><path d="M958,366L977,469L1029,431Z" fill="#f8eff2" stroke="#f8eff2" stroke-width="1.51"/><path d="M933,1188L890,1334L960,1347Z" fill="#9ab687" stroke="#9ab687" stroke-width="1.51"/><path d="M958,366L946,465L977,469Z" fill="#f9f0f5" stroke="#f9f0f5" stroke-width="1.51"/><path d="M905,232L958,366L999,236Z" fill="#f7dfed" stroke="#f7dfed" stroke-width="1.51"/><path d="M927,-27L908,49L1011,-21Z" fill="#ebaecb" stroke="#ebaecb" stroke-width="1.51"/><path d="M900,962L933,1188L1008,1087Z" fill="#b7d499" stroke="#b7d499" stroke-width="1.51"/><path d="M900,962L740,1088L933,1188Z" fill="#b9d097" stroke="#b9d097" stroke-width="1.51"/><path d="M710,554L876,715L946,465Z" fill="#f7f2f1" stroke="#f7f2f1" stroke-width="1.51"/><path d="M748,338L946,465L958,366Z" fill="#fbe9f2" stroke="#fbe9f2" stroke-width="1.51"/><path d="M905,232L748,338L958,366Z" fill="#f9dfed" stroke="#f9dfed" stroke-width="1.51"/><path d="M715,148L905,232L908,49Z" fill="#f3c5dd" stroke="#f3c5dd" stroke-width="1.51"/><path d="M881,-214L793,9L927,-27Z" fill="#e89abd" stroke="#e89abd" stroke-width="1.51"/><path d="M806,1318L890,1334L933,1188Z" fill="#9cb487" stroke="#9cb487" stroke-width="1.51"/><path d="M748,338L710,554L946,465Z" fill="#fbeaf3" stroke="#fbeaf3" stroke-width="1.51"/><path d="M740,1088L806,1318L933,1188Z" fill="#a8be8b" stroke="#a8be8b" stroke-width="1.51"/><path d="M793,9L715,148L908,49Z" fill="#f0b5d3" stroke="#f0b5d3" stroke-width="1.51"/><path d="M793,9L908,49L927,-27Z" fill="#ecadcb" stroke="#ecadcb" stroke-width="1.51"/><path d="M-43,-245L143,-223L259,-232Z" fill="#b83379" stroke="#b83379" stroke-width="1.51"/><path d="M710,554L688,667L876,715Z" fill="#f4ede7" stroke="#f4ede7" stroke-width="1.51"/><path d="M860,830L744,895L900,962Z" fill="#d6e4b8" stroke="#d6e4b8" stroke-width="1.51"/><path d="M714,270L748,338L905,232Z" fill="#f9d8ea" stroke="#f9d8ea" stroke-width="1.51"/><path d="M688,1005L740,1088L900,962Z" fill="#c4d39e" stroke="#c4d39e" stroke-width="1.51"/><path d="M715,148L714,270L905,232Z" fill="#f7cfe6" stroke="#f7cfe6" stroke-width="1.51"/><path d="M708,-272L793,9L881,-214Z" fill="#df8ab0" stroke="#df8ab0" stroke-width="1.51"/><path d="M744,895L688,1005L900,962Z" fill="#cedbab" stroke="#cedbab" stroke-width="1.51"/><path d="M688,667L860,830L876,715Z" fill="#ededda" stroke="#ededda" stroke-width="1.51"/><path d="M740,1088L628,1272L806,1318Z" fill="#a5b688" stroke="#a5b688" stroke-width="1.51"/><path d="M688,667L744,895L860,830Z" fill="#e6e7cc" stroke="#e6e7cc" stroke-width="1.51"/><path d="M421,-212L549,-201L708,-272Z" fill="#ce739e" stroke="#ce739e" stroke-width="1.51"/><path d="M549,-201L545,-52L708,-272Z" fill="#d87aa7" stroke="#d87aa7" stroke-width="1.51"/><path d="M688,667L632,896L744,895Z" fill="#e3e1c5" stroke="#e3e1c5" stroke-width="1.51"/><path d="M708,-272L545,-52L793,9Z" fill="#e689b5" stroke="#e689b5" stroke-width="1.51"/><path d="M536,20L715,148L793,9Z" fill="#efabcf" stroke="#efabcf" stroke-width="1.51"/><path d="M545,-52L536,20L793,9Z" fill="#e999c2" stroke="#e999c2" stroke-width="1.51"/><path d="M550,347L509,533L710,554Z" fill="#f8dcec" stroke="#f8dcec" stroke-width="1.51"/><path d="M647,594L688,667L710,554Z" fill="#f6e8ea" stroke="#f6e8ea" stroke-width="1.51"/><path d="M531,1124L628,1272L740,1088Z" fill="#adb889" stroke="#adb889" stroke-width="1.51"/><path d="M632,896L688,1005L744,895Z" fill="#d2d8ad" stroke="#d2d8ad" stroke-width="1.51"/><path d="M550,347L710,554L748,338Z" fill="#fcdeee" stroke="#fcdeee" stroke-width="1.51"/><path d="M638,296L550,347L748,338Z" fill="#f9d3e8" stroke="#f9d3e8" stroke-width="1.51"/><path d="M714,270L638,296L748,338Z" fill="#fad5e9" stroke="#fad5e9" stroke-width="1.51"/><path d="M688,1005L588,1021L740,1088Z" fill="#c0cb97" stroke="#c0cb97" stroke-width="1.51"/><path d="M588,1021L531,1124L740,1088Z" fill="#b9c191" stroke="#b9c191" stroke-width="1.51"/><path d="M552,632L632,896L688,667Z" fill="#ede1d6" stroke="#ede1d6" stroke-width="1.51"/><path d="M509,533L647,594L710,554Z" fill="#f7e3ec" stroke="#f7e3ec" stroke-width="1.51"/><path d="M638,296L714,270L715,148Z" fill="#f8cce5" stroke="#f8cce5" stroke-width="1.51"/><path d="M499,74L638,296L715,148Z" fill="#f3bbdb" stroke="#f3bbdb" stroke-width="1.51"/><path d="M536,20L499,74L715,148Z" fill="#eda7cd" stroke="#eda7cd" stroke-width="1.51"/><path d="M491,397L509,533L550,347Z" fill="#f7d2e7" stroke="#f7d2e7" stroke-width="1.51"/><path d="M552,632L454,881L632,896Z" fill="#e1d6c3" stroke="#e1d6c3" stroke-width="1.51"/><path d="M632,896L588,1021L688,1005Z" fill="#cacfa3" stroke="#cacfa3" stroke-width="1.51"/><path d="M647,594L552,632L688,667Z" fill="#f4e3e4" stroke="#f4e3e4" stroke-width="1.51"/><path d="M426,686L454,881L552,632Z" fill="#e9d4cf" stroke="#e9d4cf" stroke-width="1.51"/><path d="M531,1124L489,1164L628,1272Z" fill="#a8ae84" stroke="#a8ae84" stroke-width="1.51"/><path d="M499,74L550,347L638,296Z" fill="#f4c1df" stroke="#f4c1df" stroke-width="1.51"/><path d="M509,533L552,632L647,594Z" fill="#f5dee7" stroke="#f5dee7" stroke-width="1.51"/><path d="M499,74L405,313L550,347Z" fill="#f3bbdc" stroke="#f3bbdc" stroke-width="1.51"/><path d="M454,881L588,1021L632,896Z" fill="#cfcda8" stroke="#cfcda8" stroke-width="1.51"/><path d="M489,1164L428,1248L628,1272Z" fill="#a2a580" stroke="#a2a580" stroke-width="1.51"/><path d="M432,939L531,1124L588,1021Z" fill="#bfbf93" stroke="#bfbf93" stroke-width="1.51"/><path d="M454,881L432,939L588,1021Z" fill="#ccc6a2" stroke="#ccc6a2" stroke-width="1.51"/><path d="M338,277L405,313L499,74Z" fill="#efafd4" stroke="#efafd4" stroke-width="1.51"/><path d="M334,87L338,277L499,74Z" fill="#eb9ec9" stroke="#eb9ec9" stroke-width="1.51"/><path d="M421,-76L545,-52L549,-201Z" fill="#df78ad" stroke="#df78ad" stroke-width="1.51"/><path d="M421,-212L421,-76L549,-201Z" fill="#d66ea2" stroke="#d66ea2" stroke-width="1.51"/><path d="M405,313L491,397L550,347Z" fill="#f6c8e3" stroke="#f6c8e3" stroke-width="1.51"/><path d="M509,533L426,686L552,632Z" fill="#f2d8e0" stroke="#f2d8e0" stroke-width="1.51"/><path d="M421,-76L536,20L545,-52Z" fill="#e488b8" stroke="#e488b8" stroke-width="1.51"/><path d="M432,939L489,1164L531,1124Z" fill="#b7b78c" stroke="#b7b78c" stroke-width="1.51"/><path d="M432,939L312,1013L489,1164Z" fill="#bbb28a" stroke="#bbb28a" stroke-width="1.51"/><path d="M421,-76L499,74L536,20Z" fill="#e68fbe" stroke="#e68fbe" stroke-width="1.51"/><path d="M312,1013L296,1126L489,1164Z" fill="#b1a580" stroke="#b1a580" stroke-width="1.51"/><path d="M421,-76L334,87L499,74Z" fill="#e58bbb" stroke="#e58bbb" stroke-width="1.51"/><path d="M226,584L426,686L509,533Z" fill="#efcad9" stroke="#efcad9" stroke-width="1.51"/><path d="M329,410L226,584L509,533Z" fill="#f2c5dc" stroke="#f2c5dc" stroke-width="1.51"/><path d="M491,397L329,410L509,533Z" fill="#f5cbe2" stroke="#f5cbe2" stroke-width="1.51"/><path d="M426,686L357,898L454,881Z" fill="#dcc7b5" stroke="#dcc7b5" stroke-width="1.51"/><path d="M405,313L329,410L491,397Z" fill="#f5c2de" stroke="#f5c2de" stroke-width="1.51"/><path d="M296,1126L428,1248L489,1164Z" fill="#a6a07c" stroke="#a6a07c" stroke-width="1.51"/><path d="M226,584L224,625L426,686Z" fill="#ebbfcc" stroke="#ebbfcc" stroke-width="1.51"/><path d="M357,898L432,939L454,881Z" fill="#d0c1a4" stroke="#d0c1a4" stroke-width="1.51"/><path d="M252,-93L334,87L421,-76Z" fill="#de75ab" stroke="#de75ab" stroke-width="1.51"/><path d="M252,-93L421,-76L421,-212Z" fill="#d8639f" stroke="#d8639f" stroke-width="1.51"/><path d="M259,-232L252,-93L421,-212Z" fill="#cc5793" stroke="#cc5793" stroke-width="1.51"/><path d="M192,868L357,898L426,686Z" fill="#dabdaf" stroke="#dabdaf" stroke-width="1.51"/><path d="M224,625L192,868L426,686Z" fill="#e4bcbe" stroke="#e4bcbe" stroke-width="1.51"/><path d="M296,1126L271,1256L428,1248Z" fill="#a09473" stroke="#a09473" stroke-width="1.51"/><path d="M357,898L312,1013L432,939Z" fill="#c8b797" stroke="#c8b797" stroke-width="1.51"/><path d="M338,277L329,410L405,313Z" fill="#f2b6d6" stroke="#f2b6d6" stroke-width="1.51"/><path d="M252,-93L199,-67L334,87Z" fill="#da6ba5" stroke="#da6ba5" stroke-width="1.51"/><path d="M334,87L117,223L338,277Z" fill="#e897c4" stroke="#e897c4" stroke-width="1.51"/><path d="M192,868L312,1013L357,898Z" fill="#c9af95" stroke="#c9af95" stroke-width="1.51"/><path d="M192,868L186,998L312,1013Z" fill="#c2a589" stroke="#c2a589" stroke-width="1.51"/><path d="M104,460L226,584L329,410Z" fill="#edb1ce" stroke="#edb1ce" stroke-width="1.51"/><path d="M117,223L104,460L329,410Z" fill="#eda3c7" stroke="#eda3c7" stroke-width="1.51"/><path d="M73,145L117,223L334,87Z" fill="#e282b5" stroke="#e282b5" stroke-width="1.51"/><path d="M117,223L329,410L338,277Z" fill="#eda6cc" stroke="#eda6cc" stroke-width="1.51"/><path d="M199,-67L73,145L334,87Z" fill="#dd73ab" stroke="#dd73ab" stroke-width="1.51"/><path d="M186,998L296,1126L312,1013Z" fill="#b6a07d" stroke="#b6a07d" stroke-width="1.51"/><path d="M45,763L192,868L224,625Z" fill="#dda9ac" stroke="#dda9ac" stroke-width="1.51"/><path d="M105,1164L271,1256L296,1126Z" fill="#a18b6c" stroke="#a18b6c" stroke-width="1.51"/><path d="M186,998L105,1164L296,1126Z" fill="#ac9172" stroke="#ac9172" stroke-width="1.51"/><path d="M89,622L45,763L224,625Z" fill="#e3a7b6" stroke="#e3a7b6" stroke-width="1.51"/><path d="M104,460L133,565L226,584Z" fill="#ebabc9" stroke="#ebabc9" stroke-width="1.51"/><path d="M143,-223L199,-67L252,-93Z" fill="#cf4990" stroke="#cf4990" stroke-width="1.51"/><path d="M143,-223L252,-93L259,-232Z" fill="#c7498a" stroke="#c7498a" stroke-width="1.51"/><path d="M105,1164L102,1306L271,1256Z" fill="#967a62" stroke="#967a62" stroke-width="1.51"/><path d="M6,289L104,460L117,223Z" fill="#e78eb9" stroke="#e78eb9" stroke-width="1.51"/><path d="M8,103L73,145L199,-67Z" fill="#d863a1" stroke="#d863a1" stroke-width="1.51"/><path d="M133,565L224,625L226,584Z" fill="#eab1c7" stroke="#eab1c7" stroke-width="1.51"/><path d="M133,565L89,622L224,625Z" fill="#e7abc1" stroke="#e7abc1" stroke-width="1.51"/><path d="M22,1116L105,1164L186,998Z" fill="#aa8669" stroke="#aa8669" stroke-width="1.51"/><path d="M-3,1043L22,1116L186,998Z" fill="#ae866a" stroke="#ae866a" stroke-width="1.51"/><path d="M47,894L186,998L192,868Z" fill="#c69d89" stroke="#c69d89" stroke-width="1.51"/><path d="M45,763L47,894L192,868Z" fill="#cf9d93" stroke="#cf9d93" stroke-width="1.51"/><path d="M143,-223L-84,-93L199,-67Z" fill="#c93384" stroke="#c93384" stroke-width="1.51"/><path d="M-84,-93L8,103L199,-67Z" fill="#d04890" stroke="#d04890" stroke-width="1.51"/><path d="M45,1252L102,1306L105,1164Z" fill="#94715b" stroke="#94715b" stroke-width="1.51"/><path d="M47,894L-3,1043L186,998Z" fill="#ba8f76" stroke="#ba8f76" stroke-width="1.51"/><path d="M6,289L-34,321L104,460Z" fill="#e68bb6" stroke="#e68bb6" stroke-width="1.51"/><path d="M104,460L40,558L133,565Z" fill="#e9a2c1" stroke="#e9a2c1" stroke-width="1.51"/><path d="M-43,-245L-84,-93L143,-223Z" fill="#ba1874" stroke="#ba1874" stroke-width="1.51"/><path d="M40,558L89,622L133,565Z" fill="#e7a3bd" stroke="#e7a3bd" stroke-width="1.51"/><path d="M45,1252L-173,1284L102,1306Z" fill="#8a6050" stroke="#8a6050" stroke-width="1.51"/><path d="M73,145L6,289L117,223Z" fill="#e17fb2" stroke="#e17fb2" stroke-width="1.51"/><path d="M22,1116L45,1252L105,1164Z" fill="#9c765d" stroke="#9c765d" stroke-width="1.51"/><path d="M-34,321L40,558L104,460Z" fill="#e794ba" stroke="#e794ba" stroke-width="1.51"/><path d="M40,558L45,763L89,622Z" fill="#e29eb3" stroke="#e29eb3" stroke-width="1.51"/><path d="M-106,252L6,289L8,103Z" fill="#da73a8" stroke="#da73a8" stroke-width="1.51"/><path d="M-189,720L-108,791L40,558Z" fill="#d4919f" stroke="#d4919f" stroke-width="1.51"/><path d="M40,558L-108,791L45,763Z" fill="#dc96a5" stroke="#dc96a5" stroke-width="1.51"/><path d="M8,103L6,289L73,145Z" fill="#dd71aa" stroke="#dd71aa" stroke-width="1.51"/><path d="M-84,-93L-106,91L8,103Z" fill="#ca4b8e" stroke="#ca4b8e" stroke-width="1.51"/><path d="M-221,521L-189,720L40,558Z" fill="#d38fa6" stroke="#d38fa6" stroke-width="1.51"/><path d="M-34,321L-221,521L40,558Z" fill="#dd8daf" stroke="#dd8daf" stroke-width="1.51"/><path d="M22,1116L-173,1284L45,1252Z" fill="#906851" stroke="#906851" stroke-width="1.51"/><path d="M45,763L-108,791L47,894Z" fill="#cf918e" stroke="#cf918e" stroke-width="1.51"/><path d="M-108,791L-3,1043L47,894Z" fill="#bf8a7a" stroke="#bf8a7a" stroke-width="1.51"/><path d="M-108,791L-216,1014L-3,1043Z" fill="#af816a" stroke="#af816a" stroke-width="1.51"/><path d="M-96,-89L-106,91L-84,-93Z" fill="#c13881" stroke="#c13881" stroke-width="1.51"/><path d="M-167,320L-221,521L-34,321Z" fill="#d583a7" stroke="#d583a7" stroke-width="1.51"/><path d="M-106,91L-106,252L8,103Z" fill="#d2649b" stroke="#d2649b" stroke-width="1.51"/><path d="M-3,1043L-190,1081L22,1116Z" fill="#a1775b" stroke="#a1775b" stroke-width="1.51"/><path d="M-190,1081L-173,1284L22,1116Z" fill="#8f6a4f" stroke="#8f6a4f" stroke-width="1.51"/><path d="M-106,252L-34,321L6,289Z" fill="#dd7cab" stroke="#dd7cab" stroke-width="1.51"/><path d="M-216,1014L-190,1081L-3,1043Z" fill="#9c7657" stroke="#9c7657" stroke-width="1.51"/><path d="M-198,-136L-96,-89L-84,-93Z" fill="#b71c73" stroke="#b71c73" stroke-width="1.51"/><path d="M-198,-136L-84,-93L-43,-245Z" fill="#b2136e" stroke="#b2136e" stroke-width="1.51"/><path d="M-106,252L-167,320L-34,321Z" fill="#d67aa5" stroke="#d67aa5" stroke-width="1.51"/><path d="M-198,-136L-106,91L-96,-89Z" fill="#bc327c" stroke="#bc327c" stroke-width="1.51"/><path d="M-189,720L-216,1014L-108,791Z" fill="#b78679" stroke="#b78679" stroke-width="1.51"/><path d="M-106,91L-167,320L-106,252Z" fill="#d06f9e" stroke="#d06f9e" stroke-width="1.51"/><path d="M-198,-136L-167,320L-106,91Z" fill="#c3548c" stroke="#c3548c" stroke-width="1.51"/><path d="M-198,-136L-221,521L-167,320Z" fill="#c86d99" stroke="#c86d99" stroke-width="1.51"/><path d="M-190,1081L-216,1014L-173,1284Z" fill="#8b6a4a" stroke="#8b6a4a" stroke-width="1.51"/><path d="M-221,521L-216,1014L-189,720Z" fill="#be8888" stroke="#be8888" stroke-width="1.51"/></svg>