<svg xmlns="http://www.w3.org/2000/svg" width="1920" height="1080"><path d="M-43,-245L259,-232L708,-272Z" fill="#ececec" stroke="#ececec" stroke-width="1.51"/><path d="M806,1318L102,1306L890,1334Z" fill="#616161" stroke="#616161" stroke-width="1.51"/><path d="M890,1334L102,1306L960,1347Z" fill="#5e5e5e" stroke="#5e5e5e" stroke-width="1.51"/><path d="M708,-272L1212,-258L1582,-278Z" fill="#bcbcbc" stroke="#bcbcbc" stroke-width="1.51"/><path d="M1985,1006L1985,1116L2124,1166Z" fill="#232323" stroke="#232323" stroke-width="1.51"/><path d="M1985,1006L2124,1166L2126,931Z" fill="#262626" stroke="#262626" stroke-width="1.51"/><path d="M1582,-278L1888,-156L2130,-157Z" fill="#868686" stroke="#868686" stroke-width="1.51"/><path d="M1888,-156L1915,-132L2130,-157Z" fill="#7e7e7e" stroke="#7e7e7e" stroke-width="1.51"/><path d="M1987,308L2022,386L2141,264Z" fill="#626262" stroke="#626262" stroke-width="1.51"/><path d="M2022,386L2072,490L2141,264Z" fill="#5b5b5b" stroke="#5b5b5b" stroke-width="1.51"/><path d="M2130,-157L2052,-69L2141,264Z" fill="#6f6f6f" stroke="#6f6f6f" stroke-width="1.51"/><path d="M2052,-69L2012,134L2141,264Z" fill="#6d6d6d" stroke="#6d6d6d" stroke-width="1.51"/><path d="M1870,1264L1680,1334L2148,1295Z" fill="#191919" stroke="#191919" stroke-width="1.51"/><path d="M2124,1166L1985,1116L2148,1295Z" fill="#171717" stroke="#171717" stroke-width="1.51"/><path d="M1985,1116L1870,1264L2148,1295Z" fill="#191919" stroke="#191919" stroke-width="1.51"/><path d="M2126,931L2124,1166L2148,1295Z" fill="#1a1a1a" stroke="#1a1a1a" stroke-width="1.51"/><path d="M1999,841L2126,931L2150,791Z" fill="#353535" stroke="#353535" stroke-width="1.51"/><path d="M2076,704L1999,841L2150,791Z" fill="#3c3c3c" stroke="#3c3c3c" stroke-width="1.51"/><path d="M2141,264L2072,490L2150,791Z" fill="#4d4d4d" stroke="#4d4d4d" stroke-width="1.51"/><path d="M2072,490L2076,704L2150,791Z" fill="#434343" stroke="#434343" stroke-width="1.51"/><path d="M2126,931L2148,1295L2150,791Z" fill="#262626" stroke="#262626" stroke-width="1.51"/><path d="M2072,490L1920,561L2076,704Z" fill="#4d4d4d" stroke="#4d4d4d" stroke-width="1.51"/><path d="M2012,134L1987,308L2141,264Z" fill="#666666" stroke="#666666" stroke-width="1.51"/><path d="M1915,-132L2052,-69L2130,-157Z" fill="#7a7a7a" stroke="#7a7a7a" stroke-width="1.51"/><path d="M1999,841L1985,1006L2126,931Z" fill="#333333" stroke="#333333" stroke-width="1.51"/><path d="M1432,1259L960,1347L1680,1334Z" fill="#393939" stroke="#393939" stroke-width="1.51"/><path d="M1885,69L2012,134L2052,-69Z" fill="#757575" stroke="#757575" stroke-width="1.51"/><path d="M1865,627L1999,841L2076,704Z" fill="#454545" stroke="#454545" stroke-width="1.51"/><path d="M1920,561L1865,627L2076,704Z" fill="#4e4e4e" stroke="#4e4e4e" stroke-width="1.51"/><path d="M1582,-278L1796,-145L1888,-156Z" fill="#909090" stroke="#909090" stroke-width="1.51"/><path d="M2022,386L1888,429L2072,490Z" fill="#5c5c5c" stroke="#5c5c5c" stroke-width="1.51"/><path d="M1888,429L1920,561L2072,490Z" fill="#595959" stroke="#595959" stroke-width="1.51"/><path d="M1915,-132L1885,69L2052,-69Z" fill="#7c7c7c" stroke="#7c7c7c" stroke-width="1.51"/><path d="M1865,627L1781,796L1999,841Z" fill="#494949" stroke="#494949" stroke-width="1.51"/><path d="M1848,1000L1985,1006L1999,841Z" fill="#373737" stroke="#373737" stroke-width="1.51"/><path d="M1783,237L1987,308L2012,134Z" fill="#6e6e6e" stroke="#6e6e6e" stroke-width="1.51"/><path d="M1885,69L1783,237L2012,134Z" fill="#757575" stroke="#757575" stroke-width="1.51"/><path d="M1987,308L1888,429L2022,386Z" fill="#626262" stroke="#626262" stroke-width="1.51"/><path d="M1848,1000L1985,1116L1985,1006Z" fill="#2d2d2d" stroke="#2d2d2d" stroke-width="1.51"/><path d="M1781,796L1848,1000L1999,841Z" fill="#3f3f3f" stroke="#3f3f3f" stroke-width="1.51"/><path d="M1796,1175L1870,1264L1985,1116Z" fill="#222222" stroke="#222222" stroke-width="1.51"/><path d="M1849,403L1888,429L1987,308Z" fill="#656565" stroke="#656565" stroke-width="1.51"/><path d="M1783,237L1849,403L1987,308Z" fill="#6c6c6c" stroke="#6c6c6c" stroke-width="1.51"/><path d="M1848,1000L1796,1175L1985,1116Z" fill="#2a2a2a" stroke="#2a2a2a" stroke-width="1.51"/><path d="M1133,1272L960,1347L1432,1259Z" fill="#444444" stroke="#444444" stroke-width="1.51"/><path d="M1791,-84L1786,35L1885,69Z" fill="#828282" stroke="#828282" stroke-width="1.51"/><path d="M1888,-156L1791,-84L1915,-132Z" fill="#848484" stroke="#848484" stroke-width="1.51"/><path d="M1791,-84L1885,69L1915,-132Z" fill="#828282" stroke="#828282" stroke-width="1.51"/><path d="M1888,429L1719,564L1920,561Z" fill="#5d5d5d" stroke="#5d5d5d" stroke-width="1.51"/><path d="M1719,564L1865,627L1920,561Z" fill="#595959" stroke="#595959" stroke-width="1.51"/><path d="M1849,403L1719,564L1888,429Z" fill="#646464" stroke="#646464" stroke-width="1.51"/><path d="M1719,748L1781,796L1865,627Z" fill="#525252" stroke="#525252" stroke-width="1.51"/><path d="M1736,1245L1680,1334L1870,1264Z" fill="#232323" stroke="#232323" stroke-width="1.51"/><path d="M1786,35L1783,237L1885,69Z" fill="#7d7d7d" stroke="#7d7d7d" stroke-width="1.51"/><path d="M1796,-145L1791,-84L1888,-156Z" fill="#888888" stroke="#888888" stroke-width="1.51"/><path d="M1781,796L1650,969L1848,1000Z" fill="#454545" stroke="#454545" stroke-width="1.51"/><path d="M1796,1175L1736,1245L1870,1264Z" fill="#242424" stroke="#242424" stroke-width="1.51"/><path d="M1719,564L1719,748L1865,627Z" fill="#595959" stroke="#595959" stroke-width="1.51"/><path d="M1646,168L1783,237L1786,35Z" fill="#828282" stroke="#828282" stroke-width="1.51"/><path d="M1650,969L1796,1175L1848,1000Z" fill="#373737" stroke="#373737" stroke-width="1.51"/><path d="M1783,237L1616,426L1849,403Z" fill="#747474" stroke="#747474" stroke-width="1.51"/><path d="M1616,426L1719,564L1849,403Z" fill="#6c6c6c" stroke="#6c6c6c" stroke-width="1.51"/><path d="M1604,841L1650,969L1781,796Z" fill="#4f4f4f" stroke="#4f4f4f" stroke-width="1.51"/><path d="M1555,298L1616,426L1783,237Z" fill="#7f7f7f" stroke="#7f7f7f" stroke-width="1.51"/><path d="M1658,-9L1646,168L1786,35Z" fill="#8a8a8a" stroke="#8a8a8a" stroke-width="1.51"/><path d="M1658,-9L1786,35L1791,-84Z" fill="#8a8a8a" stroke="#8a8a8a" stroke-width="1.51"/><path d="M1658,-9L1791,-84L1796,-145Z" fill="#8d8d8d" stroke="#8d8d8d" stroke-width="1.51"/><path d="M1538,-102L1658,-9L1796,-145Z" fill="#949494" stroke="#949494" stroke-width="1.51"/><path d="M1582,-278L1538,-102L1796,-145Z" fill="#9a9a9a" stroke="#9a9a9a" stroke-width="1.51"/><path d="M1608,1194L1736,1245L1796,1175Z" fill="#2c2c2c" stroke="#2c2c2c" stroke-width="1.51"/><path d="M1650,969L1608,1194L1796,1175Z" fill="#373737" stroke="#373737" stroke-width="1.51"/><path d="M1719,748L1604,841L1781,796Z" fill="#535353" stroke="#535353" stroke-width="1.51"/><path d="M1646,168L1555,298L1783,237Z" fill="#838383" stroke="#838383" stroke-width="1.51"/><path d="M1616,426L1608,510L1719,564Z" fill="#6f6f6f" stroke="#6f6f6f" stroke-width="1.51"/><path d="M1606,715L1719,748L1719,564Z" fill="#5e5e5e" stroke="#5e5e5e" stroke-width="1.51"/><path d="M1212,-258L1439,-222L1582,-278Z" fill="#acacac" stroke="#acacac" stroke-width="1.51"/><path d="M1608,1194L1680,1334L1736,1245Z" fill="#2b2b2b" stroke="#2b2b2b" stroke-width="1.51"/><path d="M1560,42L1646,168L1658,-9Z" fill="#909090" stroke="#909090" stroke-width="1.51"/><path d="M1606,715L1604,841L1719,748Z" fill="#5a5a5a" stroke="#5a5a5a" stroke-width="1.51"/><path d="M1608,510L1606,715L1719,564Z" fill="#676767" stroke="#676767" stroke-width="1.51"/><path d="M1495,955L1608,1194L1650,969Z" fill="#464646" stroke="#464646" stroke-width="1.51"/><path d="M1608,1194L1432,1259L1680,1334Z" fill="#323232" stroke="#323232" stroke-width="1.51"/><path d="M1495,955L1417,1154L1608,1194Z" fill="#444444" stroke="#444444" stroke-width="1.51"/><path d="M1524,720L1606,715L1608,510Z" fill="#686868" stroke="#686868" stroke-width="1.51"/><path d="M1604,841L1495,955L1650,969Z" fill="#525252" stroke="#525252" stroke-width="1.51"/><path d="M1534,21L1560,42L1658,-9Z" fill="#969696" stroke="#969696" stroke-width="1.51"/><path d="M1538,-102L1534,21L1658,-9Z" fill="#999999" stroke="#999999" stroke-width="1.51"/><path d="M1560,42L1555,298L1646,168Z" fill="#8e8e8e" stroke="#8e8e8e" stroke-width="1.51"/><path d="M1439,-222L1538,-102L1582,-278Z" fill="#a4a4a4" stroke="#a4a4a4" stroke-width="1.51"/><path d="M1524,720L1604,841L1606,715Z" fill="#606060" stroke="#606060" stroke-width="1.51"/><path d="M1424,509L1524,720L1608,510Z" fill="#727272" stroke="#727272" stroke-width="1.51"/><path d="M1472,421L1608,510L1616,426Z" fill="#7a7a7a" stroke="#7a7a7a" stroke-width="1.51"/><path d="M1555,298L1472,421L1616,426Z" fill="#828282" stroke="#828282" stroke-width="1.51"/><path d="M1285,251L1367,328L1555,298Z" fill="#929292" stroke="#929292" stroke-width="1.51"/><path d="M1285,251L1555,298L1560,42Z" fill="#939393" stroke="#939393" stroke-width="1.51"/><path d="M1534,21L1285,251L1560,42Z" fill="#9a9a9a" stroke="#9a9a9a" stroke-width="1.51"/><path d="M1524,720L1434,777L1604,841Z" fill="#626262" stroke="#626262" stroke-width="1.51"/><path d="M1417,1154L1432,1259L1608,1194Z" fill="#3b3b3b" stroke="#3b3b3b" stroke-width="1.51"/><path d="M1472,421L1424,509L1608,510Z" fill="#7c7c7c" stroke="#7c7c7c" stroke-width="1.51"/><path d="M1434,777L1495,955L1604,841Z" fill="#5c5c5c" stroke="#5c5c5c" stroke-width="1.51"/><path d="M1266,98L1285,251L1534,21Z" fill="#9f9f9f" stroke="#9f9f9f" stroke-width="1.51"/><path d="M628,1272L102,1306L806,1318Z" fill="#666666" stroke="#666666" stroke-width="1.51"/><path d="M1424,509L1346,682L1524,720Z" fill="#727272" stroke="#727272" stroke-width="1.51"/><path d="M1352,-23L1266,98L1534,21Z" fill="#a2a2a2" stroke="#a2a2a2" stroke-width="1.51"/><path d="M1352,-23L1534,21L1538,-102Z" fill="#a0a0a0" stroke="#a0a0a0" stroke-width="1.51"/><path d="M1367,328L1472,421L1555,298Z" fill="#8a8a8a" stroke="#8a8a8a" stroke-width="1.51"/><path d="M708,-272L881,-214L1212,-258Z" fill="#c9c9c9" stroke="#c9c9c9" stroke-width="1.51"/><path d="M1434,777L1372,933L1495,955Z" fill="#5e5e5e" stroke="#5e5e5e" stroke-width="1.51"/><path d="M1439,-222L1352,-23L1538,-102Z" fill="#a6a6a6" stroke="#a6a6a6" stroke-width="1.51"/><path d="M1330,1215L1133,1272L1432,1259Z" fill="#414141" stroke="#414141" stroke-width="1.51"/><path d="M1316,-163L1352,-23L1439,-222Z" fill="#ababab" stroke="#ababab" stroke-width="1.51"/><path d="M1372,933L1417,1154L1495,955Z" fill="#525252" stroke="#525252" stroke-width="1.51"/><path d="M1346,682L1434,777L1524,720Z" fill="#6b6b6b" stroke="#6b6b6b" stroke-width="1.51"/><path d="M1372,933L1327,1154L1417,1154Z" fill="#4d4d4d" stroke="#4d4d4d" stroke-width="1.51"/><path d="M1404,496L1424,509L1472,421Z" fill="#808080" stroke="#808080" stroke-width="1.51"/><path d="M1367,328L1404,496L1472,421Z" fill="#878787" stroke="#878787" stroke-width="1.51"/><path d="M1404,496L1346,682L1424,509Z" fill="#7b7b7b" stroke="#7b7b7b" stroke-width="1.51"/><path d="M1417,1154L1330,1215L1432,1259Z" fill="#3f3f3f" stroke="#3f3f3f" stroke-width="1.51"/><path d="M1283,772L1372,933L1434,777Z" fill="#666666" stroke="#666666" stroke-width="1.51"/><path d="M1212,-258L1316,-163L1439,-222Z" fill="#b0b0b0" stroke="#b0b0b0" stroke-width="1.51"/><path d="M1230,627L1346,682L1404,496Z" fill="#7b7b7b" stroke="#7b7b7b" stroke-width="1.51"/><path d="M1346,682L1283,772L1434,777Z" fill="#6d6d6d" stroke="#6d6d6d" stroke-width="1.51"/><path d="M1327,1154L1330,1215L1417,1154Z" fill="#444444" stroke="#444444" stroke-width="1.51"/><path d="M1367,328L1207,340L1404,496Z" fill="#8f8f8f" stroke="#8f8f8f" stroke-width="1.51"/><path d="M1207,340L1176,498L1404,496Z" fill="#8d8d8d" stroke="#8d8d8d" stroke-width="1.51"/><path d="M1142,1027L1327,1154L1372,933Z" fill="#575757" stroke="#575757" stroke-width="1.51"/><path d="M1176,498L1230,627L1404,496Z" fill="#848484" stroke="#848484" stroke-width="1.51"/><path d="M1266,98L1227,156L1285,251Z" fill="#a2a2a2" stroke="#a2a2a2" stroke-width="1.51"/><path d="M1194,1210L1133,1272L1330,1215Z" fill="#464646" stroke="#464646" stroke-width="1.51"/><path d="M1283,772L1166,882L1372,933Z" fill="#686868" stroke="#686868" stroke-width="1.51"/><path d="M1166,882L1142,1027L1372,933Z" fill="#656565" stroke="#656565" stroke-width="1.51"/><path d="M1285,251L1207,340L1367,328Z" fill="#989898" stroke="#989898" stroke-width="1.51"/><path d="M1316,-163L1110,-57L1352,-23Z" fill="#afafaf" stroke="#afafaf" stroke-width="1.51"/><path d="M1110,-57L1266,98L1352,-23Z" fill="#acacac" stroke="#acacac" stroke-width="1.51"/><path d="M1230,627L1283,772L1346,682Z" fill="#767676" stroke="#767676" stroke-width="1.51"/><path d="M1142,1027L1194,1210L1327,1154Z" fill="#4f4f4f" stroke="#4f4f4f" stroke-width="1.51"/><path d="M1327,1154L1194,1210L1330,1215Z" fill="#464646" stroke="#464646" stroke-width="1.51"/><path d="M428,1248L102,1306L628,1272Z" fill="#6d6d6d" stroke="#6d6d6d" stroke-width="1.51"/><path d="M1212,-258L1110,-57L1316,-163Z" fill="#b5b5b5" stroke="#b5b5b5" stroke-width="1.51"/><path d="M1110,-57L1102,84L1266,98Z" fill="#b0b0b0" stroke="#b0b0b0" stroke-width="1.51"/><path d="M1230,627L1076,774L1283,772Z" fill="#787878" stroke="#787878" stroke-width="1.51"/><path d="M1227,156L1167,199L1285,251Z" fill="#a2a2a2" stroke="#a2a2a2" stroke-width="1.51"/><path d="M1167,199L1207,340L1285,251Z" fill="#9e9e9e" stroke="#9e9e9e" stroke-width="1.51"/><path d="M1076,774L1166,882L1283,772Z" fill="#737373" stroke="#737373" stroke-width="1.51"/><path d="M1105,631L1076,774L1230,627Z" fill="#808080" stroke="#808080" stroke-width="1.51"/><path d="M1102,84L1227,156L1266,98Z" fill="#a9a9a9" stroke="#a9a9a9" stroke-width="1.51"/><path d="M1029,431L1176,498L1207,340Z" fill="#969696" stroke="#969696" stroke-width="1.51"/><path d="M1039,-142L1110,-57L1212,-258Z" fill="#bababa" stroke="#bababa" stroke-width="1.51"/><path d="M1102,84L1167,199L1227,156Z" fill="#a9a9a9" stroke="#a9a9a9" stroke-width="1.51"/><path d="M1176,498L1105,631L1230,627Z" fill="#858585" stroke="#858585" stroke-width="1.51"/><path d="M881,-214L1039,-142L1212,-258Z" fill="#c1c1c1" stroke="#c1c1c1" stroke-width="1.51"/><path d="M1080,953L1142,1027L1166,882Z" fill="#6a6a6a" stroke="#6a6a6a" stroke-width="1.51"/><path d="M1142,1027L1008,1087L1194,1210Z" fill="#585858" stroke="#585858" stroke-width="1.51"/><path d="M1167,199L999,236L1207,340Z" fill="#a4a4a4" stroke="#a4a4a4" stroke-width="1.51"/><path d="M999,236L1029,431L1207,340Z" fill="#a2a2a2" stroke="#a2a2a2" stroke-width="1.51"/><path d="M1008,1087L1133,1272L1194,1210Z" fill="#4f4f4f" stroke="#4f4f4f" stroke-width="1.51"/><path d="M1029,431L1105,631L1176,498Z" fill="#8f8f8f" stroke="#8f8f8f" stroke-width="1.51"/><path d="M999,236L958,366L1029,431Z" fill="#a6a6a6" stroke="#a6a6a6" stroke-width="1.51"/><path d="M1029,431L977,469L1105,631Z" fill="#949494" stroke="#949494" stroke-width="1.51"/><path d="M1076,774L1080,953L1166,882Z" fill="#727272" stroke="#727272" stroke-width="1.51"/><path d="M1102,84L999,236L1167,199Z" fill="#acacac" stroke="#acacac" stroke-width="1.51"/><path d="M1011,-21L1102,84L1110,-57Z" fill="#b6b6b6" stroke="#b6b6b6" stroke-width="1.51"/><path d="M1008,1087L933,1188L1133,1272Z" fill="#555555" stroke="#555555" stroke-width="1.51"/><path d="M1080,953L1008,1087L1142,1027Z" fill="#646464" stroke="#646464" stroke-width="1.51"/><path d="M933,1188L960,1347L1133,1272Z" fill="#4e4e4e" stroke="#4e4e4e" stroke-width="1.51"/><path d="M259,-232L421,-212L708,-272Z" fill="#e5e5e5" stroke="#e5e5e5" stroke-width="1.51"/><path d="M860,830L900,962L1076,774Z" fill="#7c7c7c" stroke="#7c7c7c" stroke-width="1.51"/><path d="M1076,774L900,962L1080,953Z" fill="#747474" stroke="#747474" stroke-width="1.51"/><path d="M876,715L1076,774L1105,631Z" fill="#848484" stroke="#848484" stroke-width="1.51"/><path d="M1039,-142L1011,-21L1110,-57Z" fill="#bcbcbc" stroke="#bcbcbc" stroke-width="1.51"/><path d="M908,49L999,236L1102,84Z" fill="#b4b4b4" stroke="#b4b4b4" stroke-width="1.51"/><path d="M977,469L876,715L1105,631Z" fill="#8f8f8f" stroke="#8f8f8f" stroke-width="1.51"/><path d="M1011,-21L908,49L1102,84Z" fill="#b9b9b9" stroke="#b9b9b9" stroke-width="1.51"/><path d="M271,1256L102,1306L428,1248Z" fill="#727272" stroke="#727272" stroke-width="1.51"/><path d="M900,962L1008,1087L1080,953Z" fill="#6b6b6b" stroke="#6b6b6b" stroke-width="1.51"/><path d="M946,465L876,715L977,469Z" fill="#969696" stroke="#969696" stroke-width="1.51"/><path d="M876,715L860,830L1076,774Z" fill="#848484" stroke="#848484" stroke-width="1.51"/><path d="M908,49L905,232L999,236Z" fill="#b6b6b6" stroke="#b6b6b6" stroke-width="1.51"/><path d="M927,-27L1011,-21L1039,-142Z" fill="#bfbfbf" stroke="#bfbfbf" stroke-width="1.51"/><path d="M881,-214L927,-27L1039,-142Z" fill="#c4c4c4" stroke="#c4c4c4" stroke-width="1.51"/><path d="M958,366L977,469L1029,431Z" fill="#9f9f9f" stroke="#9f9f9f" stroke-width="1.51"/><path d="M933,1188L890,1334L960,1347Z" fill="#515151" stroke="#515151" stroke-width="1.51"/><path d="M958,366L946,465L977,469Z" fill="#a0a0a0" stroke="#a0a0a0" stroke-width="1.51"/><path d="M905,232L958,366L999,236Z" fill="#adadad" stroke="#adadad" stroke-width="1.51"/><path d="M927,-27L908,49L1011,-21Z" fill="#bebebe" stroke="#bebebe" stroke-width="1.51"/><path d="M900,962L933,1188L1008,1087Z" fill="#656565" stroke="#656565" stroke-width="1.51"/><path d="M900,962L740,1088L933,1188Z" fill="#6a6a6a" stroke="#6a6a6a" stroke-width="1.51"/><path d="M710,554L876,715L946,465Z" fill="#9a9a9a" stroke="#9a9a9a" stroke-width="1.51"/><path d="M748,338L946,465L958,366Z" fill="#a9a9a9" stroke="#a9a9a9" stroke-width="1.51"/><path d="M905,232L748,338L958,366Z" fill="#b0b0b0" stroke="#b0b0b0" stroke-width="1.51"/><path d="M715,148L905,232L908,49Z" fill="#bebebe" stroke="#bebebe" stroke-width="1.51"/><path d="M881,-214L793,9L927,-27Z" fill="#c8c8c8" stroke="#c8c8c8" stroke-width="1.51"/><path d="M806,1318L890,1334L933,1188Z" fill="#555555" stroke="#555555" stroke-width="1.51"/><path d="M748,338L710,554L946,465Z" fill="#a8a8a8" stroke="#a8a8a8" stroke-width="1.51"/><path d="M740,1088L806,1318L933,1188Z" fill="#5f5f5f" stroke="#5f5f5f" stroke-width="1.51"/><path d="M793,9L715,148L908,49Z" fill="#c5c5c5" stroke="#c5c5c5" stroke-width="1.51"/><path d="M793,9L908,49L927,-27Z" fill="#c3c3c3" stroke="#c3c3c3" stroke-width="1.51"/><path d="M-43,-245L143,-223L259,-232Z" fill="#f3f3f3" stroke="#f3f3f3" stroke-width="1.51"/><path d="M710,554L688,667L876,715Z" fill="#9a9a9a" stroke="#9a9a9a" stroke-width="1.51"/><path d="M860,830L744,895L900,962Z" fill="#7f7f7f" stroke="#7f7f7f" stroke-width="1.51"/><path d="M714,270L748,338L905,232Z" fill="#b8b8b8" stroke="#b8b8b8" stroke-width="1.51"/><path d="M688,1005L740,1088L900,962Z" fill="#767676" stroke="#767676" stroke-width="1.51"/><path d="M715,148L714,270L905,232Z" fill="#bdbdbd" stroke="#bdbdbd" stroke-width="1.51"/><path d="M708,-272L793,9L881,-214Z" fill="#d0d0d0" stroke="#d0d0d0" stroke-width="1.51"/><path d="M744,895L688,1005L900,962Z" fill="#7e7e7e" stroke="#7e7e7e" stroke-width="1.51"/><path d="M688,667L860,830L876,715Z" fill="#8f8f8f" stroke="#8f8f8f" stroke-width="1.51"/><path d="M740,1088L628,1272L806,1318Z" fill="#626262" stroke="#626262" stroke-width="1.51"/><path d="M688,667L744,895L860,830Z" fill="#8c8c8c" stroke="#8c8c8c" stroke-width="1.51"/><path d="M421,-212L549,-201L708,-272Z" fill="#e0e0e0" stroke="#e0e0e0" stroke-width="1.51"/><path d="M549,-201L545,-52L708,-272Z" fill="#dcdcdc" stroke="#dcdcdc" stroke-width="1.51"/><path d="M688,667L632,896L744,895Z" fill="#8f8f8f" stroke="#8f8f8f" stroke-width="1.51"/><path d="M708,-272L545,-52L793,9Z" fill="#d6d6d6" stroke="#d6d6d6" stroke-width="1.51"/><path d="M536,20L715,148L793,9Z" fill="#cdcdcd" stroke="#cdcdcd" stroke-width="1.51"/><path d="M545,-52L536,20L793,9Z" fill="#d4d4d4" stroke="#d4d4d4" stroke-width="1.51"/><path d="M550,347L509,533L710,554Z" fill="#b2b2b2" stroke="#b2b2b2" stroke-width="1.51"/><path d="M647,594L688,667L710,554Z" fill="#a2a2a2" stroke="#a2a2a2" stroke-width="1.51"/><path d="M531,1124L628,1272L740,1088Z" fill="#6d6d6d" stroke="#6d6d6d" stroke-width="1.51"/><path d="M632,896L688,1005L744,895Z" fill="#858585" stroke="#858585" stroke-width="1.51"/><path d="M550,347L710,554L748,338Z" fill="#b5b5b5" stroke="#b5b5b5" stroke-width="1.51"/><path d="M638,296L550,347L748,338Z" fill="#bebebe" stroke="#bebebe" stroke-width="1.51"/><path d="M714,270L638,296L748,338Z" fill="#bcbcbc" stroke="#bcbcbc" stroke-width="1.51"/><path d="M688,1005L588,1021L740,1088Z" fill="#7a7a7a" stroke="#7a7a7a" stroke-width="1.51"/><path d="M588,1021L531,1124L740,1088Z" fill="#787878" stroke="#787878" stroke-width="1.51"/><path d="M552,632L632,896L688,667Z" fill="#9a9a9a" stroke="#9a9a9a" stroke-width="1.51"/><path d="M509,533L647,594L710,554Z" fill="#a9a9a9" stroke="#a9a9a9" stroke-width="1.51"/><path d="M638,296L714,270L715,148Z" fill="#c1c1c1" stroke="#c1c1c1" stroke-width="1.51"/><path d="M499,74L638,296L715,148Z" fill="#cacaca" stroke="#cacaca" stroke-width="1.51"/><path d="M536,20L499,74L715,148Z" fill="#d1d1d1" stroke="#d1d1d1" stroke-width="1.51"/><path d="M491,397L509,533L550,347Z" fill="#bababa" stroke="#bababa" stroke-width="1.51"/><path d="M552,632L454,881L632,896Z" fill="#989898" stroke="#989898" stroke-width="1.51"/><path d="M632,896L588,1021L688,1005Z" fill="#848484" stroke="#848484" stroke-width="1.51"/><path d="M647,594L552,632L688,667Z" fill="#a3a3a3" stroke="#a3a3a3" stroke-width="1.51"/><path d="M426,686L454,881L552,632Z" fill="#a0a0a0" stroke="#a0a0a0" stroke-width="1.51"/><path d="M531,1124L489,1164L628,1272Z" fill="#6e6e6e" stroke="#6e6e6e" stroke-width="1.51"/><path d="M499,74L550,347L638,296Z" fill="#c8c8c8" stroke="#c8c8c8" stroke-width="1.51"/><path d="M509,533L552,632L647,594Z" fill="#a9a9a9" stroke="#a9a9a9" stroke-width="1.51"/><path d="M499,74L405,313L550,347Z" fill="#cbcbcb" stroke="#cbcbcb" stroke-width="1.51"/><path d="M454,881L588,1021L632,896Z" fill="#8b8b8b" stroke="#8b8b8b" stroke-width="1.51"/><path d="M489,1164L428,1248L628,1272Z" fill="#6c6c6c" stroke="#6c6c6c" stroke-width="1.51"/><path d="M432,939L531,1124L588,1021Z" fill="#828282" stroke="#828282" stroke-width="1.51"/><path d="M454,881L432,939L588,1021Z" fill="#8e8e8e" stroke="#8e8e8e" stroke-width="1.51"/><path d="M338,277L405,313L499,74Z" fill="#d0d0d0" stroke="#d0d0d0" stroke-width="1.51"/><path d="M334,87L338,277L499,74Z" fill="#d6d6d6" stroke="#d6d6d6" stroke-width="1.51"/><path d="M421,-76L545,-52L549,-201Z" fill="#dedede" stroke="#dedede" stroke-width="1.51"/><path d="M421,-212L421,-76L549,-201Z" fill="#e2e2e2" stroke="#e2e2e2" stroke-width="1.51"/><path d="M405,313L491,397L550,347Z" fill="#c3c3c3" stroke="#c3c3c3" stroke-width="1.51"/><path d="M509,533L426,686L552,632Z" fill="#aaaaaa" stroke="#aaaaaa" stroke-width="1.51"/><path d="M421,-76L536,20L545,-52Z" fill="#dbdbdb" stroke="#dbdbdb" stroke-width="1.51"/><path d="M432,939L489,1164L531,1124Z" fill="#7d7d7d" stroke="#7d7d7d" stroke-width="1.51"/><path d="M432,939L312,1013L489,1164Z" fill="#868686" stroke="#868686" stroke-width="1.51"/><path d="M421,-76L499,74L536,20Z" fill="#d9d9d9" stroke="#d9d9d9" stroke-width="1.51"/><path d="M312,1013L296,1126L489,1164Z" fill="#7f7f7f" stroke="#7f7f7f" stroke-width="1.51"/><path d="M421,-76L334,87L499,74Z" fill="#dcdcdc" stroke="#dcdcdc" stroke-width="1.51"/><path d="M226,584L426,686L509,533Z" fill="#b0b0b0" stroke="#b0b0b0" stroke-width="1.51"/><path d="M329,410L226,584L509,533Z" fill="#bababa" stroke="#bababa" stroke-width="1.51"/><path d="M491,397L329,410L509,533Z" fill="#bcbcbc" stroke="#bcbcbc" stroke-width="1.51"/><path d="M426,686L357,898L454,881Z" fill="#9c9c9c" stroke="#9c9c9c" stroke-width="1.51"/><path d="M405,313L329,410L491,397Z" fill="#c4c4c4" stroke="#c4c4c4" stroke-width="1.51"/><path d="M296,1126L428,1248L489,1164Z" fill="#757575" stroke="#757575" stroke-width="1.51"/><path d="M226,584L224,625L426,686Z" fill="#b1b1b1" stroke="#b1b1b1" stroke-width="1.51"/><path d="M357,898L432,939L454,881Z" fill="#949494" stroke="#949494" stroke-width="1.51"/><path d="M252,-93L334,87L421,-76Z" fill="#e2e2e2" stroke="#e2e2e2" stroke-width="1.51"/><path d="M252,-93L421,-76L421,-212Z" fill="#e6e6e6" stroke="#e6e6e6" stroke-width="1.51"/><path d="M259,-232L252,-93L421,-212Z" fill="#eaeaea" stroke="#eaeaea" stroke-width="1.51"/><path d="M192,868L357,898L426,686Z" fill="#a0a0a0" stroke="#a0a0a0" stroke-width="1.51"/><path d="M224,625L192,868L426,686Z" fill="#a9a9a9" stroke="#a9a9a9" stroke-width="1.51"/><path d="M296,1126L271,1256L428,1248Z" fill="#757575" stroke="#757575" stroke-width="1.51"/><path d="M357,898L312,1013L432,939Z" fill="#929292" stroke="#929292" stroke-width="1.51"/><path d="M338,277L329,410L405,313Z" fill="#cbcbcb" stroke="#cbcbcb" stroke-width="1.51"/><path d="M252,-93L199,-67L334,87Z" fill="#e5e5e5" stroke="#e5e5e5" stroke-width="1.51"/><path d="M334,87L117,223L338,277Z" fill="#d8d8d8" stroke="#d8d8d8" stroke-width="1.51"/><path d="M192,868L312,1013L357,898Z" fill="#989898" stroke="#989898" stroke-width="1.51"/><path d="M192,868L186,998L312,1013Z" fill="#969696" stroke="#969696" stroke-width="1.51"/><path d="M104,460L226,584L329,410Z" fill="#c1c1c1" stroke="#c1c1c1" stroke-width="1.51"/><path d="M117,223L104,460L329,410Z" fill="#cecece" stroke="#cecece" stroke-width="1.51"/><path d="M73,145L117,223L334,87Z" fill="#dedede" stroke="#dedede" stroke-width="1.51"/><path d="M117,223L329,410L338,277Z" fill="#d1d1d1" stroke="#d1d1d1" stroke-width="1.51"/><path d="M199,-67L73,145L334,87Z" fill="#e3e3e3" stroke="#e3e3e3" stroke-width="1.51"/><path d="M186,998L296,1126L312,1013Z" fill="#8a8a8a" stroke="#8a8a8a" stroke-width="1.51"/><path d="M45,763L192,868L224,625Z" fill="#acacac" stroke="#acacac" stroke-width="1.51"/><path d="M105,1164L271,1256L296,1126Z" fill="#7b7b7b" stroke="#7b7b7b" stroke-width="1.51"/><path d="M186,998L105,1164L296,1126Z" fill="#868686" stroke="#868686" stroke-width="1.51"/><path d="M89,622L45,763L224,625Z" fill="#b4b4b4" stroke="#b4b4b4" stroke-width="1.51"/><path d="M104,460L133,565L226,584Z" fill="#bfbfbf" stroke="#bfbfbf" stroke-width="1.51"/><path d="M143,-223L199,-67L252,-93Z" fill="#ececec" stroke="#ececec" stroke-width="1.51"/><path d="M143,-223L252,-93L259,-232Z" fill="#eeeeee" stroke="#eeeeee" stroke-width="1.51"/><path d="M105,1164L102,1306L271,1256Z" fill="#787878" stroke="#787878" stroke-width="1.51"/><path d="M6,289L104,460L117,223Z" fill="#d6d6d6" stroke="#d6d6d6" stroke-width="1.51"/><path d="M8,103L73,145L199,-67Z" fill="#e6e6e6" stroke="#e6e6e6" stroke-width="1.51"/><path d="M133,565L224,625L226,584Z" fill="#b8b8b8" stroke="#b8b8b8" stroke-width="1.51"/><path d="M133,565L89,622L224,625Z" fill="#b9b9b9" stroke="#b9b9b9" stroke-width="1.51"/><path d="M22,1116L105,1164L186,998Z" fill="#8a8a8a" stroke="#8a8a8a" stroke-width="1.51"/><path d="M-3,1043L22,1116L186,998Z" fill="#909090" stroke="#909090" stroke-width="1.51"/><path d="M47,894L186,998L192,868Z" fill="#9d9d9d" stroke="#9d9d9d" stroke-width="1.51"/><path d="M45,763L47,894L192,868Z" fill="#a5a5a5" stroke="#a5a5a5" stroke-width="1.51"/><path d="M143,-223L-84,-93L199,-67Z" fill="#f1f1f1" stroke="#f1f1f1" stroke-width="1.51"/><path d="M-84,-93L8,103L199,-67Z" fill="#ededed" stroke="#ededed" stroke-width="1.51"/><path d="M45,1252L102,1306L105,1164Z" fill="#7b7b7b" stroke="#7b7b7b" stroke-width="1.51"/><path d="M47,894L-3,1043L186,998Z" fill="#999999" stroke="#999999" stroke-width="1.51"/><path d="M6,289L-34,321L104,460Z" fill="#d5d5d5" stroke="#d5d5d5" stroke-width="1.51"/><path d="M104,460L40,558L133,565Z" fill="#c2c2c2" stroke="#c2c2c2" stroke-width="1.51"/><path d="M-43,-245L-84,-93L143,-223Z" fill="#f5f5f5" stroke="#f5f5f5" stroke-width="1.51"/><path d="M40,558L89,622L133,565Z" fill="#bdbdbd" stroke="#bdbdbd" stroke-width="1.51"/><path d="M45,1252L-173,1284L102,1306Z" fill="#797979" stroke="#797979" stroke-width="1.51"/><path d="M73,145L6,289L117,223Z" fill="#dedede" stroke="#dedede" stroke-width="1.51"/><path d="M22,1116L45,1252L105,1164Z" fill="#818181" stroke="#818181" stroke-width="1.51"/><path d="M-34,321L40,558L104,460Z" fill="#cccccc" stroke="#cccccc" stroke-width="1.51"/><path d="M40,558L45,763L89,622Z" fill="#b9b9b9" stroke="#b9b9b9" stroke-width="1.51"/><path d="M-106,252L6,289L8,103Z" fill="#e1e1e1" stroke="#e1e1e1" stroke-width="1.51"/><path d="M-189,720L-108,791L40,558Z" fill="#b8b8b8" stroke="#b8b8b8" stroke-width="1.51"/><path d="M40,558L-108,791L45,763Z" fill="#b5b5b5" stroke="#b5b5b5" stroke-width="1.51"/><path d="M8,103L6,289L73,145Z" fill="#e2e2e2" stroke="#e2e2e2" stroke-width="1.51"/><path d="M-84,-93L-106,91L8,103Z" fill="#ececec" stroke="#ececec" stroke-width="1.51"/><path d="M-221,521L-189,720L40,558Z" fill="#c1c1c1" stroke="#c1c1c1" stroke-width="1.51"/><path d="M-34,321L-221,521L40,558Z" fill="#cdcdcd" stroke="#cdcdcd" stroke-width="1.51"/><path d="M22,1116L-173,1284L45,1252Z" fill="#808080" stroke="#808080" stroke-width="1.51"/><path d="M45,763L-108,791L47,894Z" fill="#ababab" stroke="#ababab" stroke-width="1.51"/><path d="M-108,791L-3,1043L47,894Z" fill="#a3a3a3" stroke="#a3a3a3" stroke-width="1.51"/><path d="M-108,791L-216,1014L-3,1043Z" fill="#a1a1a1" stroke="#a1a1a1" stroke-width="1.51"/><path d="M-96,-89L-106,91L-84,-93Z" fill="#f1f1f1" stroke="#f1f1f1" stroke-width="1.51"/><path d="M-167,320L-221,521L-34,321Z" fill="#d6d6d6" stroke="#d6d6d6" stroke-width="1.51"/><path d="M-106,91L-106,252L8,103Z" fill="#e6e6e6" stroke="#e6e6e6" stroke-width="1.51"/><path d="M-3,1043L-190,1081L22,1116Z" fill="#909090" stroke="#909090" stroke-width="1.51"/><path d="M-190,1081L-173,1284L22,1116Z" fill="#878787" stroke="#878787" stroke-width="1.51"/><path d="M-106,252L-34,321L6,289Z" fill="#dcdcdc" stroke="#dcdcdc" stroke-width="1.51"/><path d="M-216,1014L-190,1081L-3,1043Z" fill="#969696" stroke="#969696" stroke-width="1.51"/><path d="M-198,-136L-96,-89L-84,-93Z" fill="#f5f5f5" stroke="#f5f5f5" stroke-width="1.51"/><path d="M-198,-136L-84,-93L-43,-245Z" fill="#f7f7f7" stroke="#f7f7f7" stroke-width="1.51"/><path d="M-106,252L-167,320L-34,321Z" fill="#dddddd" stroke="#dddddd" stroke-width="1.51"/><path d="M-198,-136L-106,91L-96,-89Z" fill="#f3f3f3" stroke="#f3f3f3" stroke-width="1.51"/><path d="M-189,720L-216,1014L-108,791Z" fill="#acacac" stroke="#acacac" stroke-width="1.51"/><path d="M-106,91L-167,320L-106,252Z" fill="#e2e2e2" stroke="#e2e2e2" stroke-width="1.51"/><path d="M-198,-136L-167,320L-106,91Z" fill="#ececec" stroke="#ececec" stroke-width="1.51"/><path d="M-198,-136L-221,521L-167,320Z" fill="#e3e3e3" stroke="#e3e3e3" stroke-width="1.51"/><path d="M-190,1081L-216,1014L-173,1284Z" fill="#8d8d8d" stroke="#8d8d8d" stroke-width="1.51"/><path d="M-221,521L-216,1014L-189,720Z" fill="#b5b5b5" stroke="#b5b5b5" stroke-width="1.51"/></svg>